SourceCodePro-Italic_2.ufo
<glyph name="ampersand" format="1">
  <advance width="600"/>
  <unicode hex="0026"/>
  <outline>
    <contour>
      <point x="188" y="-12" type="curve" smooth="yes"/>
      <point x="286.463878327" y="-12.0"/>
      <point x="370" y="27"/>
      <point x="437" y="98" type="curve" smooth="yes"/>
      <point x="510.123620154" y="175.998528164"/>
      <point x="556.470318322" y="260.430742751"/>
      <point x="600" y="362" type="curve"/>
      <point x="460" y="362" type="line"/>
      <point x="430.380797459" y="287.474264574"/>
      <point x="399.373349206" y="220.891056299"/>
      <point x="342" y="168" type="curve" smooth="yes"/>
      <point x="298.448385403" y="128.235482324"/>
      <point x="255.6" y="108.0"/>
      <point x="216" y="108" type="curve" smooth="yes"/>
      <point x="175.958333333" y="108.0"/>
      <point x="154.0" y="134.0"/>
      <point x="154" y="170" type="curve" smooth="yes"/>
      <point x="154.0" y="298.0"/>
      <point x="458.0" y="314.0"/>
      <point x="458" y="522" type="curve" smooth="yes"/>
      <point x="458" y="608"/>
      <point x="406" y="662"/>
      <point x="314" y="662" type="curve" smooth="yes"/>
      <point x="188" y="662"/>
      <point x="110" y="572"/>
      <point x="110" y="466" type="curve" smooth="yes"/>
      <point x="110.0" y="340.0"/>
      <point x="205.351667554" y="177.907852616"/>
      <point x="329" y="78" type="curve" smooth="yes"/>
      <point x="386" y="32"/>
      <point x="451" y="0"/>
      <point x="514" y="-12" type="curve"/>
      <point x="576" y="114" type="line"/>
      <point x="540" y="122"/>
      <point x="486" y="140"/>
      <point x="440" y="173" type="curve" smooth="yes"/>
      <point x="339.331126516" y="245.047331023"/>
      <point x="242.0" y="365.0"/>
      <point x="242" y="470" type="curve" smooth="yes"/>
      <point x="242" y="526"/>
      <point x="270" y="558"/>
      <point x="304" y="558" type="curve" smooth="yes"/>
      <point x="322" y="558"/>
      <point x="334" y="546"/>
      <point x="334" y="525" type="curve" smooth="yes"/>
      <point x="334.0" y="380.0"/>
      <point x="0.0" y="376.0"/>
      <point x="0" y="154" type="curve" smooth="yes"/>
      <point x="0" y="56"/>
      <point x="68.0689655172" y="-12.0"/>
    </contour>
  </outline>
</glyph>
<glyph name="parenright" format="1">
  <advance width="600.0"/>
  <unicode hex="0029"/>
  <outline>
    <contour>
      <point x="114" y="-189" type="line"/>
      <point x="305" y="-61"/>
      <point x="420" y="124"/>
      <point x="420" y="367" type="curve" smooth="yes"/>
      <point x="420" y="515"/>
      <point x="369" y="645"/>
      <point x="290" y="733" type="curve"/>
      <point x="187" y="664" type="line"/>
      <point x="251" y="582"/>
      <point x="288" y="480"/>
      <point x="288" y="367" type="curve" smooth="yes"/>
      <point x="288" y="189"/>
      <point x="218" y="36"/>
      <point x="37" y="-101" type="curve"/>
    </contour>
  </outline>
</glyph>
<glyph name="plus" format="1">
  <advance width="600"/>
  <unicode hex="002B"/>
  <outline>
    <contour>
      <point x="248" y="92" type="line"/>
      <point x="362" y="92" type="line"/>
      <point x="362" y="274" type="line"/>
      <point x="536" y="274" type="line"/>
      <point x="536" y="386" type="line"/>
      <point x="362" y="386" type="line"/>
      <point x="362" y="568" type="line"/>
      <point x="248" y="568" type="line"/>
      <point x="248" y="386" type="line"/>
      <point x="74" y="386" type="line"/>
      <point x="74" y="274" type="line"/>
      <point x="248" y="274" type="line"/>
    </contour>
  </outline>
</glyph>
<glyph name="one" format="1">
  <advance width="600"/>
  <unicode hex="0031"/>
  <outline>
    <contour>
      <point x="18" y="0" type="line"/>
      <point x="476" y="0" type="line"/>
      <point x="502" y="128" type="line"/>
      <point x="362" y="128" type="line"/>
      <point x="464" y="634" type="line"/>
      <point x="346" y="634" type="line"/>
      <point x="296" y="604"/>
      <point x="236" y="586"/>
      <point x="162" y="574" type="curve"/>
      <point x="142" y="474" type="line"/>
      <point x="272" y="474" type="line"/>
      <point x="202" y="128" type="line"/>
      <point x="44" y="128" type="line"/>
    </contour>
  </outline>
</glyph>
<glyph name="less" format="1">
  <advance width="600"/>
  <unicode hex="003C"/>
  <outline>
    <contour>
      <point x="462" y="28" type="line"/>
      <point x="462" y="170" type="line"/>
      <point x="202" y="330" type="line"/>
      <point x="202" y="334" type="line"/>
      <point x="462" y="494" type="line"/>
      <point x="462" y="636" type="line"/>
      <point x="74" y="386" type="line"/>
      <point x="74" y="278" type="line"/>
    </contour>
  </outline>
</glyph>
<glyph name="question" format="1">
  <advance width="600"/>
  <unicode hex="003F"/>
  <outline>
    <contour>
      <point x="208" y="264" type="curve"/>
      <point x="340" y="264" type="line"/>
      <point x="348" y="318"/>
      <point x="374" y="340"/>
      <point x="414" y="368" type="curve" smooth="yes"/>
      <point x="486" y="418"/>
      <point x="544" y="457"/>
      <point x="544" y="550" type="curve" smooth="yes"/>
      <point x="544" y="643"/>
      <point x="464" y="682"/>
      <point x="372" y="682" type="curve" smooth="yes"/>
      <point x="276" y="682"/>
      <point x="214" y="646"/>
      <point x="160" y="580" type="curve"/>
      <point x="242" y="502" type="line"/>
      <point x="278" y="536"/>
      <point x="304" y="554"/>
      <point x="342" y="554" type="curve" smooth="yes"/>
      <point x="365" y="554"/>
      <point x="384" y="544"/>
      <point x="384" y="516" type="curve" smooth="yes"/>
      <point x="384" y="490"/>
      <point x="366" y="472"/>
      <point x="324" y="444" type="curve" smooth="yes"/>
      <point x="274" y="410"/>
      <point x="212" y="360"/>
    </contour>
    <contour>
      <point x="234" y="-12" type="curve" smooth="yes"/>
      <point x="304" y="-12"/>
      <point x="352" y="42"/>
      <point x="352" y="108" type="curve" smooth="yes"/>
      <point x="352" y="160"/>
      <point x="316" y="198"/>
      <point x="266" y="198" type="curve" smooth="yes"/>
      <point x="196" y="198"/>
      <point x="148" y="144"/>
      <point x="148" y="78" type="curve" smooth="yes"/>
      <point x="148" y="26"/>
      <point x="184" y="-12"/>
    </contour>
  </outline>
</glyph>
<glyph name="at" format="1">
  <advance width="600"/>
  <unicode hex="0040"/>
  <outline>
    <contour>
      <point x="282.0" y="-148.0" type="curve" smooth="yes"/>
      <point x="352.0" y="-148.0"/>
      <point x="410.0" y="-130.0"/>
      <point x="458.0" y="-94.0" type="curve"/>
      <point x="412.0" y="-12.0" type="line"/>
      <point x="378.0" y="-38.0"/>
      <point x="346.0" y="-52.0"/>
      <point x="301.0" y="-52.0" type="curve" smooth="yes"/>
      <point x="210" y="-52"/>
      <point x="122" y="20"/>
      <point x="122" y="166" type="curve" smooth="yes"/>
      <point x="122" y="419"/>
      <point x="260" y="554"/>
      <point x="374" y="554" type="curve" smooth="yes"/>
      <point x="459" y="554"/>
      <point x="482" y="505"/>
      <point x="482" y="440" type="curve" smooth="yes"/>
      <point x="482" y="428"/>
      <point x="480" y="414"/>
      <point x="476" y="396" type="curve"/>
      <point x="282" y="374"/>
      <point x="196" y="314"/>
      <point x="196" y="196" type="curve" smooth="yes"/>
      <point x="196" y="130"/>
      <point x="246" y="88"/>
      <point x="304" y="88" type="curve" smooth="yes"/>
      <point x="360" y="88"/>
      <point x="394" y="110"/>
      <point x="428.0" y="148.0" type="curve"/>
      <point x="432.0" y="148.0" type="line"/>
      <point x="433.0" y="100.0" type="line"/>
      <point x="516.0" y="100.0" type="line"/>
      <point x="574" y="390" type="line" smooth="yes"/>
      <point x="578" y="412"/>
      <point x="582" y="434"/>
      <point x="582" y="453" type="curve" smooth="yes"/>
      <point x="582" y="570"/>
      <point x="522" y="646"/>
      <point x="388" y="646" type="curve" smooth="yes"/>
      <point x="190" y="646"/>
      <point x="8" y="474"/>
      <point x="8" y="154" type="curve" smooth="yes"/>
      <point x="8" y="-48"/>
      <point x="137.0" y="-148.0"/>
    </contour>
    <contour>
      <point x="354" y="186" type="curve" smooth="yes"/>
      <point x="330" y="186"/>
      <point x="314" y="200"/>
      <point x="314" y="224" type="curve" smooth="yes"/>
      <point x="314" y="266"/>
      <point x="342" y="296"/>
      <point x="448" y="312" type="curve"/>
      <point x="428" y="214" type="line"/>
      <point x="404" y="196"/>
      <point x="378" y="186"/>
    </contour>
  </outline>
</glyph>
<glyph name="K" format="1">
  <advance width="600"/>
  <unicode hex="004B"/>
  <outline>
    <contour>
      <point x="648" y="650" type="curve"/>
      <point x="474" y="650" type="line"/>
      <point x="242" y="382" type="line"/>
      <point x="238" y="382" type="line"/>
      <point x="293" y="650" type="line"/>
      <point x="134" y="650" type="line"/>
      <point x="4" y="0" type="line"/>
      <point x="162" y="0" type="line"/>
      <point x="196" y="170" type="line"/>
      <point x="196" y="170"/>
      <point x="648" y="650"/>
    </contour>
    <contour>
      <point x="266" y="292" type="line"/>
      <point x="356" y="0" type="line"/>
      <point x="538" y="0" type="line"/>
      <point x="382" y="420" type="line"/>
    </contour>
    <contour>
      <point x="380" y="670" type="move" name="aboveUC"/>
    </contour>
    <contour>
      <point x="264" y="-20" type="move" name="belowLC"/>
    </contour>
  </outline>
</glyph>
<glyph name="U" format="1">
  <advance width="600"/>
  <unicode hex="0055"/>
  <outline>
    <contour>
      <point x="247.0" y="-12.0" type="curve" smooth="yes"/>
      <point x="400.0" y="-12.0"/>
      <point x="494" y="58"/>
      <point x="536" y="268" type="curve" smooth="yes"/>
      <point x="612.0" y="650.0" type="line"/>
      <point x="456.0" y="650.0" type="line"/>
      <point x="382" y="276" type="line" smooth="yes"/>
      <point x="358" y="156"/>
      <point x="324" y="126"/>
      <point x="264" y="126" type="curve" smooth="yes"/>
      <point x="222" y="126"/>
      <point x="202" y="159"/>
      <point x="202" y="218" type="curve" smooth="yes"/>
      <point x="202" y="238"/>
      <point x="205" y="261"/>
      <point x="210" y="288" type="curve" smooth="yes"/>
      <point x="282" y="650" type="line"/>
      <point x="122.0" y="650.0" type="line"/>
      <point x="54" y="308" type="line" smooth="yes"/>
      <point x="46" y="270"/>
      <point x="44" y="240"/>
      <point x="44" y="210" type="curve" smooth="yes"/>
      <point x="44" y="78"/>
      <point x="108.0" y="-12.0"/>
    </contour>
    <contour>
      <point x="370" y="670" type="move" name="aboveUC"/>
    </contour>
    <contour>
      <point x="238" y="0" type="move" name="baseLC"/>
    </contour>
    <contour>
      <point x="230" y="-20" type="move" name="belowLC"/>
    </contour>
    <contour>
      <point x="456" y="660" type="move" name="hornLC"/>
    </contour>
    <contour>
      <point x="238" y="0" type="move" name="ogonekUC"/>
    </contour>
  </outline>
</glyph>
<glyph name="X" format="1">
  <advance width="600"/>
  <unicode hex="0058"/>
  <outline>
    <contour>
      <point x="-41.0" y="0.0" type="line"/>
      <point x="133" y="0" type="line"/>
      <point x="216" y="124" type="line" smooth="yes"/>
      <point x="233" y="150"/>
      <point x="257" y="192"/>
      <point x="277" y="227" type="curve"/>
      <point x="281" y="227" type="line"/>
      <point x="291" y="194"/>
      <point x="303" y="150"/>
      <point x="311" y="126" type="curve" smooth="yes"/>
      <point x="352" y="0" type="line"/>
      <point x="526.0" y="0.0" type="line"/>
      <point x="400" y="318" type="line"/>
      <point x="640.0" y="651.0" type="line"/>
      <point x="467" y="651" type="line"/>
      <point x="395" y="537" type="line" smooth="yes"/>
      <point x="379" y="512"/>
      <point x="355" y="462"/>
      <point x="334" y="426" type="curve"/>
      <point x="330" y="426" type="line"/>
      <point x="319" y="464"/>
      <point x="308" y="511"/>
      <point x="300" y="537" type="curve" smooth="yes"/>
      <point x="266" y="651" type="line"/>
      <point x="91.0" y="651.0" type="line"/>
      <point x="207" y="344" type="line"/>
    </contour>
    <contour>
      <point x="360" y="670" type="move" name="aboveUC"/>
    </contour>
    <contour>
      <point x="445" y="0" type="move" name="baseLC"/>
    </contour>
    <contour>
      <point x="250" y="-20" type="move" name="belowLC"/>
    </contour>
  </outline>
</glyph>
<glyph name="c" format="1">
  <advance width="600"/>
  <unicode hex="0063"/>
  <outline>
    <contour>
      <point x="300" y="-12" type="curve" smooth="yes"/>
      <point x="380" y="-12"/>
      <point x="444" y="16"/>
      <point x="493" y="62" type="curve"/>
      <point x="438" y="170" type="line"/>
      <point x="402" y="141"/>
      <point x="371" y="118"/>
      <point x="324" y="118" type="curve" smooth="yes"/>
      <point x="270" y="118"/>
      <point x="220" y="150"/>
      <point x="220" y="220" type="curve" smooth="yes"/>
      <point x="220.0" y="312.0"/>
      <point x="286" y="382"/>
      <point x="354" y="382" type="curve" smooth="yes"/>
      <point x="392" y="382"/>
      <point x="430" y="366"/>
      <point x="462" y="332" type="curve"/>
      <point x="558" y="420" type="line"/>
      <point x="522" y="466"/>
      <point x="454" y="512"/>
      <point x="364" y="512" type="curve" smooth="yes"/>
      <point x="200" y="512"/>
      <point x="58.0" y="390.0"/>
      <point x="58" y="206" type="curve" smooth="yes"/>
      <point x="58" y="60"/>
      <point x="170" y="-12"/>
    </contour>
    <contour>
      <point x="380" y="520" type="move" name="aboveLC"/>
    </contour>
    <contour>
      <point x="280" y="0" type="move" name="baseLC"/>
    </contour>
    <contour>
      <point x="280" y="-20" type="move" name="belowLC"/>
    </contour>
  </outline>
</glyph>
<glyph name="d" format="1">
  <advance width="600"/>
  <unicode hex="0064"/>
  <outline>
    <contour>
      <point x="188" y="-12" type="curve" smooth="yes"/>
      <point x="242" y="-12"/>
      <point x="300" y="16"/>
      <point x="346" y="66" type="curve"/>
      <point x="350" y="66" type="line"/>
      <point x="350" y="0" type="line"/>
      <point x="480" y="0" type="line"/>
      <point x="620" y="696" type="line"/>
      <point x="460" y="696" type="line"/>
      <point x="432" y="550" type="line"/>
      <point x="422" y="456" type="line"/>
      <point x="420" y="456" type="line"/>
      <point x="396" y="490"/>
      <point x="358" y="512"/>
      <point x="294" y="512" type="curve" smooth="yes"/>
      <point x="156" y="512"/>
      <point x="28" y="366"/>
      <point x="28" y="182" type="curve" smooth="yes"/>
      <point x="28" y="58"/>
      <point x="90" y="-12"/>
    </contour>
    <contour>
      <point x="250" y="118" type="curve" smooth="yes"/>
      <point x="216" y="118"/>
      <point x="194" y="144"/>
      <point x="194" y="202" type="curve" smooth="yes"/>
      <point x="194" y="308"/>
      <point x="256" y="382"/>
      <point x="324" y="382" type="curve" smooth="yes"/>
      <point x="345" y="382"/>
      <point x="376" y="370"/>
      <point x="390" y="344" type="curve"/>
      <point x="358" y="188" type="line"/>
      <point x="324" y="138"/>
      <point x="282" y="118"/>
    </contour>
    <contour>
      <point x="540" y="730" type="move" name="aboveUC"/>
    </contour>
    <contour>
      <point x="250" y="-20" type="move" name="belowLC"/>
    </contour>
    <contour>
      <point x="210" y="0" type="move" name="baseLC"/>
    </contour>
  </outline>
</glyph>
<glyph name="e" format="1">
  <advance width="600"/>
  <unicode hex="0065"/>
  <outline>
    <contour>
      <point x="266" y="-12" type="curve" smooth="yes"/>
      <point x="356" y="-12"/>
      <point x="436" y="10"/>
      <point x="498" y="52" type="curve"/>
      <point x="446" y="158" type="line"/>
      <point x="400" y="130"/>
      <point x="358" y="110"/>
      <point x="304" y="110" type="curve" smooth="yes"/>
      <point x="250" y="110"/>
      <point x="200" y="132"/>
      <point x="200" y="218" type="curve" smooth="yes"/>
      <point x="200" y="340"/>
      <point x="276" y="390"/>
      <point x="328" y="390" type="curve" smooth="yes"/>
      <point x="368" y="390"/>
      <point x="394" y="366"/>
      <point x="394" y="317" type="curve" smooth="yes"/>
      <point x="394" y="305"/>
      <point x="391" y="292"/>
      <point x="388" y="281" type="curve"/>
      <point x="430" y="304" type="line"/>
      <point x="176" y="304" type="line"/>
      <point x="159" y="204" type="line"/>
      <point x="522" y="204" type="line"/>
      <point x="528.085491649" y="222.256474948"/>
      <point x="540" y="270"/>
      <point x="540" y="314" type="curve" smooth="yes"/>
      <point x="540" y="432"/>
      <point x="464" y="512"/>
      <point x="332" y="512" type="curve" smooth="yes"/>
      <point x="178" y="512"/>
      <point x="40" y="392"/>
      <point x="40" y="212" type="curve" smooth="yes"/>
      <point x="40" y="56"/>
      <point x="138" y="-12"/>
    </contour>
    <contour>
      <point x="340" y="520" type="move" name="aboveLC"/>
    </contour>
    <contour>
      <point x="260" y="0" type="move" name="baseLC"/>
    </contour>
    <contour>
      <point x="256" y="-20" type="move" name="belowLC"/>
    </contour>
    <contour>
      <point x="346" y="0" type="move" name="ogonekLC"/>
    </contour>
  </outline>
</glyph>
<glyph name="h" format="1">
  <advance width="600"/>
  <unicode hex="0068"/>
  <outline>
    <contour>
      <point x="8" y="0" type="line"/>
      <point x="168" y="0" type="line"/>
      <point x="226" y="298" type="line"/>
      <point x="265" y="350"/>
      <point x="311" y="376"/>
      <point x="344" y="376" type="curve" smooth="yes"/>
      <point x="370" y="376"/>
      <point x="385" y="363"/>
      <point x="385" y="335" type="curve" smooth="yes"/>
      <point x="385" y="323"/>
      <point x="382" y="308"/>
      <point x="378" y="290" type="curve" smooth="yes"/>
      <point x="320" y="0" type="line"/>
      <point x="480" y="0" type="line"/>
      <point x="542" y="310" type="line" smooth="yes"/>
      <point x="547" y="334"/>
      <point x="550" y="360"/>
      <point x="550" y="382" type="curve" smooth="yes"/>
      <point x="550" y="468"/>
      <point x="502" y="512"/>
      <point x="420" y="512" type="curve" smooth="yes"/>
      <point x="359" y="512"/>
      <point x="294" y="474"/>
      <point x="248" y="424" type="curve"/>
      <point x="244" y="424" type="line"/>
      <point x="270" y="512" type="line"/>
      <point x="308" y="696" type="line"/>
      <point x="148" y="696" type="line"/>
    </contour>
    <contour>
      <point x="230" y="730" type="move" name="aboveUC"/>
    </contour>
    <contour>
      <point x="90" y="0" type="move" name="baseLC"/>
    </contour>
    <contour>
      <point x="250" y="-20" type="move" name="belowLC"/>
    </contour>
  </outline>
</glyph>
<glyph name="m" format="1">
  <advance width="600"/>
  <unicode hex="006D"/>
  <outline>
    <contour>
      <point x="-28" y="0" type="line"/>
      <point x="120" y="0" type="line"/>
      <point x="184.0" y="334.0" type="line"/>
      <point x="201.0" y="365.0"/>
      <point x="218" y="376"/>
      <point x="236" y="376" type="curve" smooth="yes"/>
      <point x="247" y="376"/>
      <point x="254" y="372"/>
      <point x="254" y="358" type="curve" smooth="yes"/>
      <point x="254" y="354"/>
      <point x="254" y="350"/>
      <point x="252" y="340" type="curve" smooth="yes"/>
      <point x="181.0" y="0.0" type="line"/>
      <point x="305.0" y="0.0" type="line"/>
      <point x="374.0" y="335.0" type="line"/>
      <point x="390.0" y="364.0"/>
      <point x="404" y="376"/>
      <point x="422" y="376" type="curve" smooth="yes"/>
      <point x="432" y="376"/>
      <point x="438" y="372"/>
      <point x="438.0" y="358.0" type="curve" smooth="yes"/>
      <point x="438" y="354"/>
      <point x="438.0" y="350.0"/>
      <point x="436.0" y="340.0" type="curve" smooth="yes"/>
      <point x="366.0" y="0.0" type="line"/>
      <point x="512.0" y="0.0" type="line"/>
      <point x="588.0" y="372.0" type="line" smooth="yes"/>
      <point x="592.0" y="391.0"/>
      <point x="594.0" y="404.0"/>
      <point x="594.0" y="422.0" type="curve" smooth="yes"/>
      <point x="594.0" y="480.0"/>
      <point x="564.0" y="512.0"/>
      <point x="516.0" y="512.0" type="curve" smooth="yes"/>
      <point x="458.0" y="512.0"/>
      <point x="410.0" y="483.0"/>
      <point x="378.0" y="428.0" type="curve"/>
      <point x="389.0" y="434.0" type="line"/>
      <point x="385.0" y="487.0"/>
      <point x="363.0" y="512.0"/>
      <point x="320.0" y="512.0" type="curve" smooth="yes"/>
      <point x="260.0" y="512.0"/>
      <point x="215.0" y="475.0"/>
      <point x="188.0" y="436.0" type="curve"/>
      <point x="184.0" y="436.0" type="line"/>
      <point x="184.0" y="500.0" type="line"/>
      <point x="70.0" y="500.0" type="line"/>
    </contour>
    <contour>
      <point x="350" y="520" type="move" name="aboveLC"/>
    </contour>
    <contour>
      <point x="444" y="0" type="move" name="baseLC"/>
    </contour>
    <contour>
      <point x="250" y="-20" type="move" name="belowLC"/>
    </contour>
  </outline>
</glyph>
<glyph name="n" format="1">
  <advance width="600"/>
  <unicode hex="006E"/>
  <outline>
    <contour>
      <point x="8" y="0" type="line"/>
      <point x="168" y="0" type="line"/>
      <point x="226" y="298" type="line"/>
      <point x="265" y="350"/>
      <point x="311" y="376"/>
      <point x="344" y="376" type="curve" smooth="yes"/>
      <point x="370" y="376"/>
      <point x="385" y="363"/>
      <point x="385" y="335" type="curve" smooth="yes"/>
      <point x="385" y="323"/>
      <point x="382" y="308"/>
      <point x="378" y="290" type="curve" smooth="yes"/>
      <point x="320" y="0" type="line"/>
      <point x="480" y="0" type="line"/>
      <point x="542" y="310" type="line" smooth="yes"/>
      <point x="547" y="334"/>
      <point x="550" y="360"/>
      <point x="550" y="382" type="curve" smooth="yes"/>
      <point x="550" y="468"/>
      <point x="502" y="512"/>
      <point x="420" y="512" type="curve" smooth="yes"/>
      <point x="356" y="512"/>
      <point x="282" y="466"/>
      <point x="236" y="420" type="curve"/>
      <point x="232" y="420" type="line"/>
      <point x="235" y="500" type="line"/>
      <point x="106" y="500" type="line"/>
    </contour>
    <contour>
      <point x="354" y="520" type="move" name="aboveLC"/>
    </contour>
    <contour>
      <point x="400" y="0" type="move" name="baseLC"/>
    </contour>
    <contour>
      <point x="250" y="-20" type="move" name="belowLC"/>
    </contour>
  </outline>
</glyph>
<glyph name="r" format="1">
  <advance width="600"/>
  <unicode hex="0072"/>
  <outline>
    <contour>
      <point x="64" y="0" type="line"/>
      <point x="224" y="0" type="line"/>
      <point x="266" y="206" type="line"/>
      <point x="320" y="308"/>
      <point x="390" y="370"/>
      <point x="452" y="370" type="curve" smooth="yes"/>
      <point x="480" y="370"/>
      <point x="504" y="365"/>
      <point x="526" y="354" type="curve"/>
      <point x="582" y="492" type="line"/>
      <point x="564" y="504"/>
      <point x="528" y="512"/>
      <point x="484" y="512" type="curve" smooth="yes"/>
      <point x="412" y="512"/>
      <point x="336" y="460"/>
      <point x="284" y="370" type="curve"/>
      <point x="280" y="370" type="line"/>
      <point x="292" y="500" type="line"/>
      <point x="162" y="501" type="line"/>
    </contour>
    <contour>
      <point x="380" y="520" type="move" name="aboveLC"/>
    </contour>
    <contour>
      <point x="150" y="0" type="move" name="baseLC"/>
    </contour>
    <contour>
      <point x="150" y="-20" type="move" name="belowLC"/>
    </contour>
  </outline>
</glyph>
<glyph name="v" format="1">
  <advance width="600"/>
  <unicode hex="0076"/>
  <outline>
    <contour>
      <point x="148" y="0" type="line"/>
      <point x="334" y="0" type="line"/>
      <point x="610" y="500" type="line"/>
      <point x="452" y="500" type="line"/>
      <point x="338" y="270" type="line" smooth="yes"/>
      <point x="313" y="220"/>
      <point x="287" y="167"/>
      <point x="265" y="116" type="curve"/>
      <point x="261" y="116" type="line"/>
      <point x="257" y="169"/>
      <point x="254" y="220"/>
      <point x="248" y="270" type="curve" smooth="yes"/>
      <point x="222" y="500" type="line"/>
      <point x="64" y="500" type="line"/>
    </contour>
    <contour>
      <point x="330" y="520" type="move" name="aboveLC"/>
    </contour>
    <contour>
      <point x="240" y="-20" type="move" name="belowLC"/>
    </contour>
  </outline>
</glyph>
<glyph name="logicalnot" format="1">
  <advance width="600"/>
  <unicode hex="00AC"/>
  <outline>
    <contour>
      <point x="416" y="92" type="line"/>
      <point x="530" y="92" type="line"/>
      <point x="530" y="386" type="line"/>
      <point x="82" y="386" type="line"/>
      <point x="82" y="274" type="line"/>
      <point x="416" y="274" type="line"/>
    </contour>
  </outline>
</glyph>
<glyph name="registered" format="1">
  <advance width="600"/>
  <unicode hex="00AE"/>
  <outline>
    <contour>
      <point x="307" y="310" type="curve" smooth="yes"/>
      <point x="452" y="310"/>
      <point x="552" y="413"/>
      <point x="552" y="548" type="curve" smooth="yes"/>
      <point x="552" y="646"/>
      <point x="484" y="716"/>
      <point x="388" y="716" type="curve" smooth="yes"/>
      <point x="246" y="716"/>
      <point x="143" y="612"/>
      <point x="143" y="477" type="curve" smooth="yes"/>
      <point x="143" y="379"/>
      <point x="210" y="310"/>
    </contour>
    <contour>
      <point x="317" y="360" type="curve" smooth="yes"/>
      <point x="245" y="360"/>
      <point x="200" y="408"/>
      <point x="200" y="481" type="curve" smooth="yes"/>
      <point x="200" y="589"/>
      <point x="280" y="667"/>
      <point x="378" y="667" type="curve" smooth="yes"/>
      <point x="449" y="667"/>
      <point x="494" y="617"/>
      <point x="494" y="544" type="curve" smooth="yes"/>
      <point x="494" y="436"/>
      <point x="415" y="360"/>
    </contour>
    <contour>
      <point x="246" y="416" type="line"/>
      <point x="306" y="416" type="line"/>
      <point x="306" y="416"/>
      <point x="337" y="572"/>
      <point x="337" y="572" type="curve"/>
      <point x="326" y="567" type="line"/>
      <point x="356" y="567" type="line" smooth="yes"/>
      <point x="372" y="567"/>
      <point x="380" y="558"/>
      <point x="380" y="546" type="curve" smooth="yes"/>
      <point x="380" y="531"/>
      <point x="367" y="516"/>
      <point x="345" y="516" type="curve" smooth="yes"/>
      <point x="310" y="516" type="line"/>
      <point x="306" y="474" type="line"/>
      <point x="338" y="474" type="line" smooth="yes"/>
      <point x="404" y="474"/>
      <point x="446" y="507"/>
      <point x="446" y="554" type="curve" smooth="yes"/>
      <point x="446" y="594"/>
      <point x="417" y="612"/>
      <point x="376" y="612" type="curve" smooth="yes"/>
      <point x="285" y="612" type="line"/>
    </contour>
    <contour>
      <point x="333" y="479" type="line"/>
      <point x="362" y="416" type="line"/>
      <point x="425" y="416" type="line"/>
      <point x="390" y="492" type="line"/>
    </contour>
  </outline>
</glyph>
<glyph name="plusminus" format="1">
  <advance width="600"/>
  <unicode hex="00B1"/>
  <outline>
    <contour>
      <point x="248" y="164" type="line"/>
      <point x="362" y="164" type="line"/>
      <point x="362" y="310" type="line"/>
      <point x="536" y="310" type="line"/>
      <point x="536" y="422" type="line"/>
      <point x="362" y="422" type="line"/>
      <point x="362" y="568" type="line"/>
      <point x="248" y="568" type="line"/>
      <point x="248" y="422" type="line"/>
      <point x="74" y="422" type="line"/>
      <point x="74" y="310" type="line"/>
      <point x="248" y="310" type="line"/>
    </contour>
    <contour>
      <point x="74" y="0" type="line"/>
      <point x="536" y="0" type="line"/>
      <point x="536" y="112" type="line"/>
      <point x="74" y="112" type="line"/>
    </contour>
  </outline>
</glyph>
<glyph name="multiply" format="1">
  <advance width="600"/>
  <unicode hex="00D7"/>
  <outline>
    <contour>
      <point x="170" y="110" type="line"/>
      <point x="308" y="252" type="line"/>
      <point x="446" y="110" type="line"/>
      <point x="524" y="188" type="line"/>
      <point x="386" y="330" type="line"/>
      <point x="524" y="472" type="line"/>
      <point x="446" y="550" type="line"/>
      <point x="308" y="408" type="line"/>
      <point x="170" y="550" type="line"/>
      <point x="92" y="472" type="line"/>
      <point x="230" y="330" type="line"/>
      <point x="92" y="188" type="line"/>
    </contour>
  </outline>
</glyph>
<glyph name="ae" format="1">
  <advance width="600"/>
  <unicode hex="00E6"/>
  <outline>
    <contour>
      <point x="106" y="-12" type="curve" smooth="yes"/>
      <point x="172" y="-12"/>
      <point x="222" y="20"/>
      <point x="272" y="78" type="curve"/>
      <point x="232" y="150" type="line"/>
      <point x="213" y="130"/>
      <point x="183" y="108"/>
      <point x="158" y="108" type="curve" smooth="yes"/>
      <point x="138" y="108"/>
      <point x="126" y="120"/>
      <point x="126" y="142" type="curve" smooth="yes"/>
      <point x="126" y="180"/>
      <point x="153" y="213"/>
      <point x="246" y="228" type="curve"/>
      <point x="257" y="322" type="line"/>
      <point x="62" y="294"/>
      <point x="-18.0" y="230.0"/>
      <point x="-18" y="108" type="curve" smooth="yes"/>
      <point x="-18.0" y="41.0"/>
      <point x="22" y="-12"/>
    </contour>
    <contour>
      <point x="318" y="204" type="line"/>
      <point x="567" y="204" type="line"/>
      <point x="577" y="227"/>
      <point x="595" y="277"/>
      <point x="595" y="348" type="curve" smooth="yes"/>
      <point x="595" y="434"/>
      <point x="558" y="512"/>
      <point x="473" y="512" type="curve" smooth="yes"/>
      <point x="419" y="512"/>
      <point x="367" y="488"/>
      <point x="323" y="433" type="curve"/>
      <point x="345" y="423" type="line"/>
      <point x="335" y="475"/>
      <point x="295" y="512"/>
      <point x="238" y="512" type="curve" smooth="yes"/>
      <point x="162" y="512"/>
      <point x="98" y="486"/>
      <point x="46" y="446" type="curve"/>
      <point x="98" y="354" type="line"/>
      <point x="134" y="377"/>
      <point x="163" y="388"/>
      <point x="197" y="388" type="curve" smooth="yes"/>
      <point x="235" y="388"/>
      <point x="249" y="355"/>
      <point x="240" y="314" type="curve" smooth="yes"/>
      <point x="232" y="278"/>
      <point x="218.0" y="236.240963855"/>
      <point x="218" y="162" type="curve" smooth="yes"/>
      <point x="218.0" y="63.3292682927"/>
      <point x="281.0" y="-12.0"/>
      <point x="394" y="-12" type="curve" smooth="yes"/>
      <point x="438" y="-12"/>
      <point x="498.311923098" y="6.25250917431"/>
      <point x="540" y="40" type="curve"/>
      <point x="496" y="138" type="line"/>
      <point x="464" y="116"/>
      <point x="438" y="110"/>
      <point x="408" y="110" type="curve" smooth="yes"/>
      <point x="368" y="110"/>
      <point x="343" y="135"/>
      <point x="343" y="184" type="curve" smooth="yes"/>
      <point x="343" y="300"/>
      <point x="388" y="390"/>
      <point x="440" y="390" type="curve" smooth="yes"/>
      <point x="464" y="390"/>
      <point x="473" y="371"/>
      <point x="473" y="341" type="curve" smooth="yes"/>
      <point x="473" y="324"/>
      <point x="470" y="305"/>
      <point x="466" y="285" type="curve"/>
      <point x="490" y="304" type="line"/>
      <point x="318" y="304" type="line"/>
    </contour>
    <contour>
      <point x="340" y="520" type="move" name="aboveLC"/>
    </contour>
    <contour>
      <point x="380" y="0" type="move" name="baseLC"/>
    </contour>
    <contour>
      <point x="250" y="-20" type="move" name="belowLC"/>
    </contour>
  </outline>
</glyph>
<glyph name="hbar" format="1">
  <advance width="600"/>
  <unicode hex="0127"/>
  <outline>
    <contour>
      <point x="10" y="0" type="line"/>
      <point x="170" y="0" type="line"/>
      <point x="224" y="276" type="line"/>
      <point x="263" y="328"/>
      <point x="309" y="354"/>
      <point x="342" y="354" type="curve" smooth="yes"/>
      <point x="368" y="354"/>
      <point x="383" y="341"/>
      <point x="383" y="313" type="curve" smooth="yes"/>
      <point x="383" y="301"/>
      <point x="380" y="286"/>
      <point x="376" y="268" type="curve" smooth="yes"/>
      <point x="322" y="0" type="line"/>
      <point x="482" y="0" type="line"/>
      <point x="540" y="288" type="line" smooth="yes"/>
      <point x="545" y="312"/>
      <point x="548" y="338"/>
      <point x="548" y="360" type="curve" smooth="yes"/>
      <point x="548" y="446"/>
      <point x="500" y="490"/>
      <point x="418" y="490" type="curve" smooth="yes"/>
      <point x="357" y="490"/>
      <point x="292" y="452"/>
      <point x="246" y="402" type="curve"/>
      <point x="242" y="402" type="line"/>
      <point x="268" y="490" type="line"/>
      <point x="310" y="696" type="line"/>
      <point x="150" y="696" type="line"/>
    </contour>
    <contour>
      <point x="54" y="554" type="line"/>
      <point x="456" y="554" type="line"/>
      <point x="470" y="628" type="line"/>
      <point x="146" y="628" type="line"/>
      <point x="68" y="622" type="line"/>
    </contour>
  </outline>
</glyph>
<glyph name="dotlessi" format="1">
  <advance width="600"/>
  <unicode hex="0131"/>
  <outline>
    <contour>
      <point x="340" y="-12" type="curve" smooth="yes"/>
      <point x="404" y="-12"/>
      <point x="450" y="-2"/>
      <point x="494" y="16" type="curve"/>
      <point x="462" y="136" type="line"/>
      <point x="432" y="124"/>
      <point x="412" y="118"/>
      <point x="390" y="118" type="curve" smooth="yes"/>
      <point x="358" y="118"/>
      <point x="336" y="133"/>
      <point x="336" y="170" type="curve" smooth="yes"/>
      <point x="336" y="178"/>
      <point x="338" y="186"/>
      <point x="340" y="194" type="curve" smooth="yes"/>
      <point x="414" y="500" type="line"/>
      <point x="96" y="500" type="line"/>
      <point x="70" y="376" type="line"/>
      <point x="228" y="376" type="line"/>
      <point x="182" y="200" type="line" smooth="yes"/>
      <point x="176.233689879" y="177.93759606"/>
      <point x="172" y="158"/>
      <point x="172" y="138" type="curve" smooth="yes"/>
      <point x="172" y="46"/>
      <point x="238" y="-12"/>
    </contour>
    <contour>
      <point x="320" y="520" type="move" name="aboveLC"/>
    </contour>
    <contour>
      <point x="336" y="0" type="move" name="baseLC"/>
    </contour>
    <contour>
      <point x="304" y="-20" type="move" name="belowLC"/>
    </contour>
    <contour>
      <point x="336" y="0" type="move" name="ogonekLC"/>
    </contour>
  </outline>
</glyph>
<glyph name="Eng" format="1">
  <advance width="600"/>
  <unicode hex="014A"/>
  <outline>
    <contour>
      <point x="320" y="-12" type="curve" smooth="yes"/>
      <point x="474" y="-12"/>
      <point x="570" y="190"/>
      <point x="570" y="426" type="curve" smooth="yes"/>
      <point x="570" y="596"/>
      <point x="508.197802198" y="662.0"/>
      <point x="418" y="662" type="curve" smooth="yes"/>
      <point x="364.426229508" y="662.0"/>
      <point x="310" y="638"/>
      <point x="266" y="592" type="curve"/>
      <point x="278" y="650" type="line"/>
      <point x="126" y="650" type="line"/>
      <point x="-4" y="0" type="line"/>
      <point x="156" y="0" type="line"/>
      <point x="245" y="457" type="line"/>
      <point x="286" y="502"/>
      <point x="322" y="524"/>
      <point x="353" y="524" type="curve" smooth="yes"/>
      <point x="386.0" y="524.0"/>
      <point x="406" y="493"/>
      <point x="406" y="416" type="curve" smooth="yes"/>
      <point x="406" y="272"/>
      <point x="354" y="126"/>
      <point x="300" y="126" type="curve" smooth="yes"/>
      <point x="289" y="126"/>
      <point x="279" y="130"/>
      <point x="273" y="134" type="curve"/>
      <point x="215" y="7" type="line"/>
      <point x="235" y="-6"/>
      <point x="282" y="-12"/>
    </contour>
    <contour>
      <point x="380" y="670" type="move" name="aboveUC"/>
    </contour>
    <contour>
      <point x="260" y="-20" type="move" name="belowLC"/>
    </contour>
  </outline>
</glyph>
<glyph name="oe" format="1">
  <advance width="600"/>
  <unicode hex="0153"/>
  <outline>
    <contour>
      <point x="133" y="-12" type="curve" smooth="yes"/>
      <point x="200" y="-12"/>
      <point x="246" y="9"/>
      <point x="285" y="63" type="curve"/>
      <point x="260" y="72" type="line"/>
      <point x="270" y="17"/>
      <point x="333" y="-12"/>
      <point x="387" y="-12" type="curve" smooth="yes"/>
      <point x="448" y="-12"/>
      <point x="504" y="8"/>
      <point x="548" y="44" type="curve"/>
      <point x="504" y="145" type="line"/>
      <point x="474" y="127"/>
      <point x="450" y="110"/>
      <point x="412" y="110" type="curve" smooth="yes"/>
      <point x="376" y="110"/>
      <point x="344" y="128"/>
      <point x="344" y="188" type="curve" smooth="yes"/>
      <point x="344" y="290"/>
      <point x="384" y="390"/>
      <point x="437" y="390" type="curve" smooth="yes"/>
      <point x="466" y="390"/>
      <point x="473" y="370"/>
      <point x="473" y="339" type="curve" smooth="yes"/>
      <point x="473" y="325"/>
      <point x="471" y="308"/>
      <point x="467" y="289" type="curve"/>
      <point x="483" y="304" type="line"/>
      <point x="326" y="304" type="line"/>
      <point x="318" y="204" type="line"/>
      <point x="568" y="204" type="line"/>
      <point x="576" y="226"/>
      <point x="595" y="280"/>
      <point x="595" y="340" type="curve" smooth="yes"/>
      <point x="595" y="442"/>
      <point x="554" y="512"/>
      <point x="465" y="512" type="curve" smooth="yes"/>
      <point x="418" y="512"/>
      <point x="353" y="488"/>
      <point x="323" y="421" type="curve"/>
      <point x="342" y="417" type="line"/>
      <point x="332" y="480"/>
      <point x="297" y="512"/>
      <point x="236" y="512" type="curve" smooth="yes"/>
      <point x="107" y="512"/>
      <point x="-8" y="381"/>
      <point x="-8" y="181" type="curve" smooth="yes"/>
      <point x="-8" y="60"/>
      <point x="50" y="-12"/>
    </contour>
    <contour>
      <point x="134" y="189" type="curve" smooth="yes"/>
      <point x="134" y="254"/>
      <point x="164" y="383"/>
      <point x="220" y="383" type="curve" smooth="yes"/>
      <point x="245" y="383"/>
      <point x="254" y="354"/>
      <point x="254" y="310" type="curve" smooth="yes"/>
      <point x="254" y="221"/>
      <point x="222" y="115"/>
      <point x="168" y="115" type="curve" smooth="yes"/>
      <point x="144" y="115"/>
      <point x="134" y="144"/>
    </contour>
    <contour>
      <point x="340" y="520" type="move" name="aboveLC"/>
    </contour>
    <contour>
      <point x="390" y="0" type="move" name="baseLC"/>
    </contour>
    <contour>
      <point x="270" y="-20" type="move" name="belowLC"/>
    </contour>
  </outline>
</glyph>
<glyph name="ohorn" format="1">
  <advance width="600"/>
  <unicode hex="01A1"/>
  <outline>
    <contour>
      <point x="490" y="435" type="line"/>
      <point x="610" y="458"/>
      <point x="644.0" y="528.0"/>
      <point x="644" y="608" type="curve" smooth="yes"/>
      <point x="644" y="630"/>
      <point x="638" y="662"/>
      <point x="628" y="684" type="curve"/>
      <point x="510" y="648" type="line"/>
      <point x="515" y="636"/>
      <point x="520" y="612"/>
      <point x="520" y="600" type="curve" smooth="yes"/>
      <point x="520.0" y="548.0"/>
      <point x="498" y="500"/>
      <point x="428" y="490" type="curve"/>
    </contour>
    <component base="o"/>
    <contour>
      <point x="340" y="520" type="move" name="aboveLC"/>
    </contour>
    <contour>
      <point x="234" y="-20" type="move" name="belowLC"/>
    </contour>
  </outline>
</glyph>
<glyph name="Uhorn" format="1">
  <advance width="600"/>
  <unicode hex="01AF"/>
  <outline>
    <contour>
      <point x="592" y="592" type="line"/>
      <point x="698" y="610"/>
      <point x="748" y="655"/>
      <point x="748" y="730" type="curve" smooth="yes"/>
      <point x="748" y="756"/>
      <point x="742" y="781"/>
      <point x="730" y="808" type="curve"/>
      <point x="612" y="772" type="line"/>
      <point x="619" y="755"/>
      <point x="624" y="738"/>
      <point x="624" y="722" type="curve" smooth="yes"/>
      <point x="624" y="681"/>
      <point x="597" y="655"/>
      <point x="541" y="649" type="curve"/>
    </contour>
    <component base="U"/>
    <contour>
      <point x="370" y="670" type="move" name="aboveUC"/>
    </contour>
    <contour>
      <point x="230" y="-20" type="move" name="belowLC"/>
    </contour>
  </outline>
</glyph>
<glyph name="uhorn" format="1">
  <advance width="600"/>
  <unicode hex="01B0"/>
  <outline>
    <contour>
      <point x="548" y="443" type="line"/>
      <point x="641" y="464"/>
      <point x="682" y="528"/>
      <point x="682" y="608" type="curve" smooth="yes"/>
      <point x="682" y="630"/>
      <point x="676" y="662"/>
      <point x="666" y="684" type="curve"/>
      <point x="548" y="648" type="line"/>
      <point x="553" y="636"/>
      <point x="558" y="612"/>
      <point x="558" y="600" type="curve" smooth="yes"/>
      <point x="558" y="548"/>
      <point x="530" y="506"/>
      <point x="486" y="500" type="curve"/>
    </contour>
    <component base="u"/>
    <contour>
      <point x="334" y="520" type="move" name="aboveLC"/>
    </contour>
    <contour>
      <point x="246" y="-20" type="move" name="belowLC"/>
    </contour>
  </outline>
</glyph>
<glyph name="figuredash" format="1">
  <advance width="600"/>
  <unicode hex="2012"/>
  <outline>
    <contour>
      <point x="58" y="196" type="line"/>
      <point x="498" y="196" type="line"/>
      <point x="522" y="312" type="line"/>
      <point x="82" y="312" type="line"/>
    </contour>
  </outline>
</glyph>
<glyph name="arrowdown" format="1">
  <advance width="600"/>
  <unicode hex="2193"/>
  <outline>
    <contour>
      <point x="288" y="-26" type="line"/>
      <point x="292" y="-26" type="line"/>
      <point x="559" y="253" type="line"/>
      <point x="474" y="327" type="line"/>
      <point x="352" y="186" type="line"/>
      <point x="352" y="530" type="line"/>
      <point x="227" y="530" type="line"/>
      <point x="227" y="186" type="line"/>
      <point x="105" y="327" type="line"/>
      <point x="20" y="253" type="line"/>
    </contour>
  </outline>
</glyph>
<glyph name="arrowdblleft" format="1">
  <advance width="600"/>
  <unicode hex="21D0"/>
  <outline>
    <contour>
      <point x="282" y="-18" type="line"/>
      <point x="356" y="68" type="line"/>
      <point x="142" y="252" type="line"/>
      <point x="356" y="436" type="line"/>
      <point x="282" y="522" type="line"/>
      <point x="4" y="254" type="line"/>
      <point x="4" y="250" type="line"/>
    </contour>
    <contour>
      <point x="166" y="280" type="line"/>
      <point x="558" y="280" type="line"/>
      <point x="558" y="376" type="line"/>
      <point x="166" y="376" type="line"/>
    </contour>
    <contour>
      <point x="166" y="128" type="line"/>
      <point x="558" y="128" type="line"/>
      <point x="558" y="224" type="line"/>
      <point x="166" y="224" type="line"/>
    </contour>
  </outline>
</glyph>
<glyph name="arrowdblright" format="1">
  <advance width="600"/>
  <unicode hex="21D2"/>
  <outline>
    <contour>
      <point x="298" y="-18" type="line"/>
      <point x="576" y="250" type="line"/>
      <point x="576" y="254" type="line"/>
      <point x="298" y="522" type="line"/>
      <point x="224" y="436" type="line"/>
      <point x="438" y="252" type="line"/>
      <point x="224" y="68" type="line"/>
    </contour>
    <contour>
      <point x="22" y="280" type="line"/>
      <point x="414" y="280" type="line"/>
      <point x="414" y="376" type="line"/>
      <point x="22" y="376" type="line"/>
    </contour>
    <contour>
      <point x="22" y="128" type="line"/>
      <point x="414" y="128" type="line"/>
      <point x="414" y="224" type="line"/>
      <point x="22" y="224" type="line"/>
    </contour>
  </outline>
</glyph>
<glyph name="integral" format="1">
  <advance width="600"/>
  <unicode hex="222B"/>
  <outline>
    <contour>
      <point x="107" y="-158" type="curve" smooth="yes"/>
      <point x="271" y="-158"/>
      <point x="325" y="-51"/>
      <point x="353" y="92" type="curve" smooth="yes"/>
      <point x="387" y="260"/>
      <point x="376" y="391"/>
      <point x="407" y="545" type="curve" smooth="yes"/>
      <point x="426" y="637"/>
      <point x="445" y="674"/>
      <point x="495" y="674" type="curve" smooth="yes"/>
      <point x="509" y="674"/>
      <point x="521" y="672"/>
      <point x="530" y="670" type="curve"/>
      <point x="568" y="784" type="line"/>
      <point x="557" y="787"/>
      <point x="535" y="792"/>
      <point x="511" y="792" type="curve" smooth="yes"/>
      <point x="347" y="792"/>
      <point x="293" y="684"/>
      <point x="265" y="542" type="curve" smooth="yes"/>
      <point x="231" y="373"/>
      <point x="242" y="242"/>
      <point x="211" y="88" type="curve" smooth="yes"/>
      <point x="192" y="-6"/>
      <point x="174" y="-40"/>
      <point x="123" y="-40" type="curve" smooth="yes"/>
      <point x="109" y="-40"/>
      <point x="97" y="-39"/>
      <point x="88" y="-36" type="curve"/>
      <point x="50" y="-150" type="line"/>
      <point x="61" y="-153"/>
      <point x="83" y="-158"/>
    </contour>
  </outline>
</glyph>
<glyph name="lessequal" format="1">
  <advance width="600"/>
  <unicode hex="2264"/>
  <outline>
    <contour>
      <point x="77" y="0" type="line"/>
      <point x="536" y="0" type="line"/>
      <point x="536" y="111" type="line"/>
      <point x="77" y="111" type="line"/>
    </contour>
    <contour>
      <point x="536" y="154" type="line"/>
      <point x="536" y="283" type="line"/>
      <point x="370" y="325" type="line"/>
      <point x="231" y="357" type="line"/>
      <point x="231" y="361" type="line"/>
      <point x="370" y="393" type="line"/>
      <point x="536" y="435" type="line"/>
      <point x="536" y="564" type="line"/>
      <point x="77" y="424" type="line"/>
      <point x="77" y="294" type="line"/>
    </contour>
  </outline>
</glyph>
<glyph name="lightvertrightbxd" format="1">
	<unicode hex="251C"/>
	<advance width="600"/>
	<outline>
		<contour>
			<point x="680" y="220" type="line"/>
			<point x="680" y="380" type="line"/>
			<point x="380" y="380" type="line"/>
			<point x="380" y="1000" type="line"/>
			<point x="220" y="1000" type="line"/>
			<point x="220" y="-400" type="line"/>
			<point x="380" y="-400" type="line"/>
			<point x="380" y="220" type="line"/>
		</contour>
	</outline>
</glyph>
<glyph name="leftlightrightupheavybxd" format="1">
	<unicode hex="253A"/>
	<advance width="600"/>
	<outline>
		<contour>
			<point x="140" y="140" type="line"/>
			<point x="680" y="140" type="line"/>
			<point x="680" y="460" type="line"/>
			<point x="460" y="460" type="line"/>
			<point x="460" y="1000" type="line"/>
			<point x="140" y="1000" type="line"/>
			<point x="140" y="380" type="line"/>
			<point x="-80" y="380" type="line"/>
			<point x="-80" y="220" type="line"/>
			<point x="140" y="220" type="line"/>
		</contour>
	</outline>
</glyph>
<glyph name="dneighthblock" format="1">
	<unicode hex="2581"/>
	<advance width="600"/>
	<outline>
		<contour>
			<point x="0" y="-400" type="line"/>
			<point x="600" y="-400" type="line"/>
			<point x="600" y="-225" type="line"/>
			<point x="0" y="-225" type="line"/>
		</contour>
	</outline>
</glyph>
<glyph name="dnthreequartersblock" format="1">
	<unicode hex="2586"/>
	<advance width="600"/>
	<outline>
		<contour>
			<point x="0" y="-400" type="line"/>
			<point x="600" y="-400" type="line"/>
			<point x="600" y="650" type="line"/>
			<point x="0" y="650" type="line"/>
		</contour>
	</outline>
</glyph>
<glyph name="leftfiveeighthsblock" format="1">
	<unicode hex="258B"/>
	<advance width="600"/>
	<outline>
		<contour>
			<point x="0" y="-400" type="line"/>
			<point x="375" y="-400" type="line"/>
			<point x="375" y="1000" type="line"/>
			<point x="0" y="1000" type="line"/>
		</contour>
	</outline>
</glyph>
<glyph name="dnleftquadrant" format="1">
	<unicode hex="2596"/>
	<advance width="600"/>
	<outline>
		<contour>
			<point x="0" y="-400" type="line"/>
			<point x="300" y="-400" type="line"/>
			<point x="300" y="300" type="line"/>
			<point x="0" y="300" type="line"/>
		</contour>
	</outline>
</glyph>
<glyph name="A" format="1">
  <advance width="600"/>
  <outline>
    <contour>
      <point x="-50" y="0" type="line"/>
      <point x="126" y="0" type="line"/>
      <point x="270" y="344" type="line" smooth="yes"/>
      <point x="296" y="407"/>
      <point x="320" y="469"/>
      <point x="344" y="530" type="curve"/>
      <point x="348" y="530" type="line"/>
      <point x="349" y="465"/>
      <point x="350" y="406"/>
      <point x="352" y="344" type="curve" smooth="yes"/>
      <point x="362" y="0" type="line"/>
      <point x="530" y="0" type="line"/>
      <point x="468" y="650" type="line"/>
      <point x="276" y="650" type="line"/>
    </contour>
    <contour>
      <point x="114" y="148" type="line"/>
      <point x="416" y="148" type="line"/>
      <point x="444" y="268" type="line"/>
      <point x="142" y="268" type="line"/>
    </contour>
    <contour>
      <point x="370" y="670" type="move" name="aboveUC"/>
    </contour>
    <contour>
      <point x="450" y="0" type="move" name="baseLC"/>
    </contour>
    <contour>
      <point x="250" y="-20" type="move" name="belowLC"/>
    </contour>
    <contour>
      <point x="430" y="0" type="move" name="ogonekUC"/>
    </contour>
  </outline>
</glyph>
<glyph name="Bstroke" format="1">
	<advance width="600"/>
	<outline>
		<contour>
			<point x="23" y="0" type="line"/>
			<point x="245" y="0" type="line" smooth="yes"/>
			<point x="405" y="0"/>
			<point x="540" y="75"/>
			<point x="540" y="228" type="curve" smooth="yes"/>
			<point x="540" y="305"/>
			<point x="500" y="349"/>
			<point x="435" y="363" type="curve"/>
			<point x="436" y="367" type="line"/>
			<point x="529" y="389"/>
			<point x="572" y="455"/>
			<point x="572" y="523" type="curve" smooth="yes"/>
			<point x="572" y="619"/>
			<point x="492" y="651"/>
			<point x="370" y="651" type="curve" smooth="yes"/>
			<point x="153" y="651" type="line"/>
		</contour>
		<contour>
			<point x="-17" y="174" type="line"/>
			<point x="315" y="174" type="line"/>
			<point x="330" y="249" type="line"/>
			<point x="74" y="249" type="line"/>
			<point x="-3" y="243" type="line"/>
		</contour>
		<contour>
			<point x="203" y="113" type="line"/>
			<point x="242" y="307" type="line"/>
			<point x="301" y="307" type="line" smooth="yes"/>
			<point x="365" y="307"/>
			<point x="391" y="285"/>
			<point x="391" y="235" type="curve" smooth="yes"/>
			<point x="391" y="160"/>
			<point x="344" y="113"/>
			<point x="255" y="113" type="curve" smooth="yes"/>
		</contour>
		<contour>
			<point x="261" y="400" type="line"/>
			<point x="288" y="538" type="line"/>
			<point x="333" y="538" type="line" smooth="yes"/>
			<point x="388" y="538"/>
			<point x="415" y="523"/>
			<point x="415" y="488" type="curve" smooth="yes"/>
			<point x="415" y="435"/>
			<point x="383" y="400"/>
			<point x="307" y="400" type="curve" smooth="yes"/>
		</contour>
	</outline>
</glyph>
<glyph name="D" format="1">
  <advance width="600.0"/>
  <outline>
    <contour>
      <point x="8" y="0" type="line"/>
      <point x="222" y="0" type="line" smooth="yes"/>
      <point x="416" y="0"/>
      <point x="568" y="130"/>
      <point x="568" y="394" type="curve" smooth="yes"/>
      <point x="568" y="570"/>
      <point x="462" y="650"/>
      <point x="290" y="650" type="curve" smooth="yes"/>
      <point x="138" y="650" type="line"/>
    </contour>
    <contour>
      <point x="194" y="128" type="line"/>
      <point x="272" y="522" type="line"/>
      <point x="286" y="522" type="line" smooth="yes"/>
      <point x="352" y="522"/>
      <point x="404" y="486"/>
      <point x="404" y="384" type="curve" smooth="yes"/>
      <point x="404" y="196"/>
      <point x="316" y="128"/>
      <point x="218" y="128" type="curve" smooth="yes"/>
    </contour>
    <contour>
      <point x="370" y="670" type="move" name="aboveUC"/>
    </contour>
    <contour>
      <point x="230" y="-20" type="move" name="belowLC"/>
    </contour>
    <contour>
      <point x="230" y="0" type="move" name="baseLC"/>
    </contour>
  </outline>
</glyph>
<glyph name="Delta.math" format="1">
  <advance width="600"/>
  <outline>
    <contour>
      <point x="-49" y="0" type="line"/>
      <point x="530" y="0" type="line"/>
      <point x="549" y="95" type="line"/>
      <point x="465" y="651" type="line"/>
      <point x="275" y="651" type="line"/>
      <point x="-30" y="95" type="line"/>
    </contour>
    <contour>
      <point x="147" y="132" type="line"/>
      <point x="250" y="340" type="line"/>
      <point x="341" y="531" type="line"/>
      <point x="345" y="531" type="line"/>
      <point x="361" y="340" type="line"/>
      <point x="383" y="132" type="line"/>
    </contour>
  </outline>
</glyph>
<glyph name="Dhook" format="1">
  <advance width="600"/>
  <outline>
    <contour>
      <point x="104" y="0" type="line"/>
      <point x="218" y="0" type="line" smooth="yes"/>
      <point x="436" y="0"/>
      <point x="606" y="162"/>
      <point x="606" y="434" type="curve" smooth="yes"/>
      <point x="606" y="593"/>
      <point x="500" y="663"/>
      <point x="332" y="663" type="curve" smooth="yes"/>
      <point x="108" y="663"/>
      <point x="0" y="530"/>
      <point x="0" y="390" type="curve" smooth="yes"/>
      <point x="0" y="324"/>
      <point x="28" y="282"/>
      <point x="78" y="254" type="curve"/>
      <point x="156" y="350" type="line"/>
      <point x="134" y="366"/>
      <point x="122" y="386"/>
      <point x="122" y="414" type="curve" smooth="yes"/>
      <point x="122" y="480"/>
      <point x="162" y="534"/>
      <point x="266" y="534" type="curve" smooth="yes"/>
      <point x="344" y="534" type="line" smooth="yes"/>
      <point x="416" y="534"/>
      <point x="442" y="504"/>
      <point x="442" y="424" type="curve" smooth="yes"/>
      <point x="442" y="226"/>
      <point x="325" y="128"/>
      <point x="274" y="128" type="curve" smooth="yes"/>
      <point x="270" y="128" type="line"/>
      <point x="360" y="577" type="line"/>
      <point x="217" y="577" type="line"/>
    </contour>
    <contour>
      <point x="390" y="670" type="move" name="aboveUC"/>
    </contour>
    <contour>
      <point x="270" y="-20" type="move" name="belowLC"/>
    </contour>
  </outline>
</glyph>
<glyph name="Eacute" format="1">
  <advance width="600"/>
  <outline>
    <component base="E"/>
    <component base="acutecmb.cap" xOffset="16"/>
    <contour>
      <point x="368" y="0" type="move" name="ogonekUC"/>
    </contour>
  </outline>
</glyph>
<glyph name="Eth" format="1">
  <advance width="600"/>
  <outline>
    <contour>
      <point x="330" y="298" type="curve"/>
      <point x="346" y="374" type="line"/>
      <point x="84" y="374" type="line"/>
      <point x="12" y="368" type="line"/>
      <point x="-2" y="298" type="line"/>
      <point x="-2" y="298"/>
      <point x="330" y="298"/>
    </contour>
    <component base="D"/>
    <contour>
      <point x="370" y="670" type="move" name="aboveUC"/>
    </contour>
    <contour>
      <point x="230" y="-20" type="move" name="belowLC"/>
    </contour>
  </outline>
</glyph>
<glyph name="Hbar" format="1">
  <advance width="600"/>
  <outline>
    <contour>
      <point x="36" y="484" type="line"/>
      <point x="632" y="484" type="line"/>
      <point x="648" y="560" type="line"/>
      <point x="114" y="560" type="line"/>
      <point x="50" y="554" type="line"/>
    </contour>
    <component base="H"/>
  </outline>
</glyph>
<glyph name="IJ" format="1">
	<advance width="600"/>
	<outline>
		<contour>
			<point x="0" y="0" type="line"/>
			<point x="160" y="0" type="line"/>
			<point x="290" y="650" type="line"/>
			<point x="130" y="650" type="line"/>
		</contour>
		<contour>
			<point x="278" y="-182" type="curve" smooth="yes"/>
			<point x="402" y="-182"/>
			<point x="456" y="-96"/>
			<point x="478" y="8" type="curve" smooth="yes"/>
			<point x="606" y="650" type="line"/>
			<point x="446" y="650" type="line"/>
			<point x="320" y="16" type="line"/>
			<point x="308" y="-36"/>
			<point x="296" y="-56"/>
			<point x="264" y="-56" type="curve" smooth="yes"/>
			<point x="250" y="-56"/>
			<point x="236" y="-52"/>
			<point x="222" y="-44" type="curve"/>
			<point x="174" y="-158" type="line"/>
			<point x="210" y="-176"/>
			<point x="242" y="-182"/>
		</contour>
	</outline>
</glyph>
<glyph name="J" format="1">
  <advance width="600"/>
  <outline>
    <contour>
      <point x="228" y="-12" type="curve" smooth="yes"/>
      <point x="384" y="-12"/>
      <point x="468" y="82"/>
      <point x="494" y="212" type="curve" smooth="yes"/>
      <point x="582" y="650" type="line"/>
      <point x="174" y="650" type="line"/>
      <point x="148" y="516" type="line"/>
      <point x="398" y="516" type="line"/>
      <point x="344" y="248" type="line" smooth="yes"/>
      <point x="326" y="160"/>
      <point x="296" y="126"/>
      <point x="228" y="126" type="curve" smooth="yes"/>
      <point x="172" y="126"/>
      <point x="134" y="160"/>
      <point x="104" y="200" type="curve"/>
      <point x="2" y="104" type="line"/>
      <point x="48" y="40"/>
      <point x="114" y="-12"/>
    </contour>
    <contour>
      <point x="390" y="670" type="move" name="aboveUC"/>
    </contour>
    <contour>
      <point x="244" y="-20" type="move" name="belowLC"/>
    </contour>
  </outline>
</glyph>
<glyph name="Lcat" format="1">
  <advance width="600"/>
  <outline>
    <contour>
      <point x="-28" y="0" type="line"/>
      <point x="220" y="0" type="line"/>
      <point x="246" y="134" type="line"/>
      <point x="150" y="134" type="line"/>
      <point x="254" y="650" type="line"/>
      <point x="102" y="650" type="line"/>
    </contour>
    <contour>
      <point x="265" y="306" type="curve" smooth="yes"/>
      <point x="307" y="306"/>
      <point x="341" y="337"/>
      <point x="349" y="376" type="curve" smooth="yes"/>
      <point x="357" y="414"/>
      <point x="335" y="446"/>
      <point x="293" y="446" type="curve" smooth="yes"/>
      <point x="251" y="446"/>
      <point x="217" y="414"/>
      <point x="209" y="376" type="curve" smooth="yes"/>
      <point x="201" y="337"/>
      <point x="223" y="306"/>
    </contour>
    <contour>
      <point x="284" y="0" type="line"/>
      <point x="532" y="0" type="line"/>
      <point x="558" y="134" type="line"/>
      <point x="462" y="134" type="line"/>
      <point x="566" y="650" type="line"/>
      <point x="414" y="650" type="line"/>
    </contour>
  </outline>
</glyph>
<glyph name="N" format="1">
  <advance width="600"/>
  <outline>
    <contour>
      <point x="6" y="0" type="line"/>
      <point x="157" y="0" type="line"/>
      <point x="196" y="202" type="line" smooth="yes"/>
      <point x="208" y="265"/>
      <point x="218" y="381"/>
      <point x="224" y="454" type="curve"/>
      <point x="228" y="454" type="line"/>
      <point x="249" y="310" type="line"/>
      <point x="312" y="0" type="line"/>
      <point x="468" y="0" type="line"/>
      <point x="598" y="650" type="line"/>
      <point x="447" y="650" type="line"/>
      <point x="405" y="438" type="line" smooth="yes"/>
      <point x="396" y="391"/>
      <point x="384" y="266"/>
      <point x="378" y="196" type="curve"/>
      <point x="374" y="196" type="line"/>
      <point x="353" y="340" type="line"/>
      <point x="296" y="650" type="line"/>
      <point x="136" y="650" type="line"/>
    </contour>
    <contour>
      <point x="360" y="670" type="move" name="aboveUC"/>
    </contour>
    <contour>
      <point x="394" y="0" type="move" name="baseLC"/>
    </contour>
    <contour>
      <point x="248" y="-20" type="move" name="belowLC"/>
    </contour>
  </outline>
</glyph>
<glyph name="O" format="1">
	<advance width="600"/>
	<outline>
		<contour>
			<point x="250" y="-12" type="curve" smooth="yes"/>
			<point x="442" y="-12"/>
			<point x="580" y="164"/>
			<point x="580" y="394" type="curve" smooth="yes"/>
			<point x="580" y="562"/>
			<point x="493" y="662"/>
			<point x="358" y="662" type="curve" smooth="yes"/>
			<point x="165" y="662"/>
			<point x="26" y="486"/>
			<point x="26" y="256" type="curve" smooth="yes"/>
			<point x="26" y="88"/>
			<point x="114" y="-12"/>
		</contour>
		<contour>
			<point x="266" y="126" type="curve" smooth="yes"/>
			<point x="214" y="126"/>
			<point x="190" y="160"/>
			<point x="190" y="240" type="curve" smooth="yes"/>
			<point x="190" y="404"/>
			<point x="256" y="524"/>
			<point x="342" y="524" type="curve" smooth="yes"/>
			<point x="393" y="524"/>
			<point x="416" y="490"/>
			<point x="416" y="410" type="curve" smooth="yes"/>
			<point x="416" y="246"/>
			<point x="352" y="126"/>
		</contour>
		<contour>
			<point name="aboveUC" x="370" y="670" type="move"/>
		</contour>
		<contour>
			<point name="baseLC" x="238" y="0" type="move"/>
		</contour>
		<contour>
			<point name="hornLC" x="366" y="640" type="move"/>
		</contour>
		<contour>
			<point name="ogonekUC" x="238" y="0" type="move"/>
		</contour>
		<contour>
			<point name="belowLC" x="230" y="-20" type="move"/>
		</contour>
	</outline>
</glyph>
<glyph name="Odieresis" format="1">
	<advance width="600"/>
	<outline>
		<component base="O"/>
		<component base="dieresiscmb.cap"/>
		<contour>
			<point name="ogonekUC" x="238" y="0" type="move"/>
		</contour>
	</outline>
</glyph>
<glyph name="Q" format="1">
  <advance width="600"/>
  <outline>
    <contour>
      <point x="250" y="-12" type="curve" smooth="yes"/>
      <point x="442" y="-12"/>
      <point x="580" y="164"/>
      <point x="580" y="394" type="curve" smooth="yes"/>
      <point x="580" y="562"/>
      <point x="493" y="662"/>
      <point x="358" y="662" type="curve" smooth="yes"/>
      <point x="165" y="662"/>
      <point x="26" y="486"/>
      <point x="26" y="256" type="curve" smooth="yes"/>
      <point x="26" y="88"/>
      <point x="114" y="-12"/>
    </contour>
    <contour>
      <point x="268" y="118" type="curve" smooth="yes"/>
      <point x="214" y="118"/>
      <point x="190" y="152"/>
      <point x="190" y="240" type="curve" smooth="yes"/>
      <point x="190" y="404"/>
      <point x="256" y="524"/>
      <point x="342" y="524" type="curve" smooth="yes"/>
      <point x="393" y="524"/>
      <point x="416" y="490"/>
      <point x="416" y="410" type="curve" smooth="yes"/>
      <point x="416" y="236"/>
      <point x="352" y="118"/>
    </contour>
    <contour>
      <point x="410" y="-188" type="curve" smooth="yes"/>
      <point x="465" y="-188"/>
      <point x="510" y="-178"/>
      <point x="531" y="-168" type="curve"/>
      <point x="507" y="-47" type="line"/>
      <point x="488" y="-53"/>
      <point x="464" y="-60"/>
      <point x="429" y="-60" type="curve" smooth="yes"/>
      <point x="375" y="-60"/>
      <point x="333" y="-32"/>
      <point x="320" y="32" type="curve"/>
      <point x="161" y="32" type="line"/>
      <point x="201" y="-118"/>
      <point x="291" y="-188"/>
    </contour>
    <contour>
      <point x="370" y="670" type="move" name="aboveUC"/>
    </contour>
  </outline>
</glyph>
<glyph name="T" format="1">
  <advance width="600"/>
  <outline>
    <contour>
      <point x="158" y="0" type="line"/>
      <point x="318" y="0" type="line"/>
      <point x="420" y="516" type="line"/>
      <point x="610" y="516" type="line"/>
      <point x="636" y="650" type="line"/>
      <point x="96" y="650" type="line"/>
      <point x="70" y="516" type="line"/>
      <point x="260" y="516" type="line"/>
    </contour>
    <contour>
      <point x="370" y="670" type="move" name="aboveUC"/>
    </contour>
    <contour>
      <point x="240" y="0" type="move" name="baseLC"/>
    </contour>
    <contour>
      <point x="236" y="-20" type="move" name="belowLC"/>
    </contour>
  </outline>
</glyph>
<glyph name="W" format="1">
  <advance width="600"/>
  <outline>
    <contour>
      <point x="14" y="0" type="line"/>
      <point x="192" y="0" type="line"/>
      <point x="259" y="193" type="line" smooth="yes"/>
      <point x="274" y="235"/>
      <point x="289" y="280"/>
      <point x="300" y="319" type="curve"/>
      <point x="303" y="319" type="line"/>
      <point x="300" y="282"/>
      <point x="298" y="235"/>
      <point x="297" y="193" type="curve" smooth="yes"/>
      <point x="291" y="0" type="line"/>
      <point x="465" y="0" type="line"/>
      <point x="663" y="651" type="line"/>
      <point x="511" y="651" type="line"/>
      <point x="430" y="316" type="line" smooth="yes"/>
      <point x="417" y="262"/>
      <point x="402" y="199"/>
      <point x="391" y="148" type="curve"/>
      <point x="386" y="148" type="line"/>
      <point x="387" y="205"/>
      <point x="388" y="283"/>
      <point x="387" y="315" type="curve" smooth="yes"/>
      <point x="381" y="486" type="line"/>
      <point x="285" y="486" type="line"/>
      <point x="212" y="315" type="line" smooth="yes"/>
      <point x="191" y="265"/>
      <point x="169" y="203"/>
      <point x="150" y="148" type="curve"/>
      <point x="145" y="148" type="line"/>
      <point x="154" y="198"/>
      <point x="166" y="273"/>
      <point x="172" y="315" type="curve" smooth="yes"/>
      <point x="224" y="651" type="line"/>
      <point x="72" y="651" type="line"/>
    </contour>
    <contour>
      <point x="360" y="670" type="move" name="aboveUC"/>
    </contour>
    <contour>
      <point x="230" y="-20" type="move" name="belowLC"/>
    </contour>
  </outline>
</glyph>
<glyph name="a" format="1">
	<advance width="600"/>
	<outline>
		<contour>
			<point x="189" y="-12" type="curve" smooth="yes"/>
			<point x="242" y="-12"/>
			<point x="300" y="16"/>
			<point x="346" y="66" type="curve"/>
			<point x="350" y="66" type="line"/>
			<point x="350" y="0" type="line"/>
			<point x="480" y="0" type="line"/>
			<point x="580" y="500" type="line"/>
			<point x="452" y="500" type="line"/>
			<point x="430" y="450" type="line"/>
			<point x="426" y="450" type="line"/>
			<point x="404" y="488"/>
			<point x="358" y="512"/>
			<point x="294" y="512" type="curve" smooth="yes"/>
			<point x="156" y="512"/>
			<point x="28" y="366"/>
			<point x="28" y="182" type="curve" smooth="yes"/>
			<point x="28" y="58"/>
			<point x="90" y="-12"/>
		</contour>
		<contour>
			<point x="250" y="118" type="curve" smooth="yes"/>
			<point x="216" y="118"/>
			<point x="194" y="143"/>
			<point x="194" y="202" type="curve" smooth="yes"/>
			<point x="194" y="308"/>
			<point x="256" y="382"/>
			<point x="324" y="382" type="curve" smooth="yes"/>
			<point x="345" y="382"/>
			<point x="377" y="370"/>
			<point x="391" y="344" type="curve"/>
			<point x="358" y="188" type="line"/>
			<point x="324" y="138"/>
			<point x="282" y="118"/>
		</contour>
		<contour>
			<point name="aboveLC" x="346" y="520" type="move"/>
		</contour>
		<contour>
			<point name="baseLC" x="414" y="0" type="move"/>
		</contour>
		<contour>
			<point name="belowLC" x="250" y="-20" type="move"/>
		</contour>
		<contour>
			<point name="ogonekLC" x="380" y="0" type="move"/>
		</contour>
	</outline>
</glyph>
<glyph name="aogonek.a" format="1">
  <advance width="600"/>
  <outline>
    <contour>
      <point x="344" y="-228" type="curve" smooth="yes"/>
      <point x="392" y="-228"/>
      <point x="436" y="-212"/>
      <point x="468" y="-188" type="curve"/>
      <point x="442" y="-124" type="line"/>
      <point x="426" y="-132"/>
      <point x="416" y="-134"/>
      <point x="402" y="-134" type="curve" smooth="yes"/>
      <point x="378" y="-134"/>
      <point x="356" y="-120"/>
      <point x="356" y="-94" type="curve" smooth="yes"/>
      <point x="356" y="-62"/>
      <point x="382" y="-24"/>
      <point x="472" y="0" type="curve"/>
      <point x="526" y="276" type="line" smooth="yes"/>
      <point x="532" y="306"/>
      <point x="534" y="326"/>
      <point x="534" y="348" type="curve" smooth="yes"/>
      <point x="534" y="460"/>
      <point x="454" y="512"/>
      <point x="345" y="512" type="curve" smooth="yes"/>
      <point x="254" y="512"/>
      <point x="176" y="492"/>
      <point x="96" y="456" type="curve"/>
      <point x="142" y="346" type="line"/>
      <point x="214" y="376"/>
      <point x="255" y="388"/>
      <point x="303" y="388" type="curve" smooth="yes"/>
      <point x="358" y="388"/>
      <point x="378" y="368"/>
      <point x="378" y="336" type="curve" smooth="yes"/>
      <point x="378" y="334"/>
      <point x="378" y="330"/>
      <point x="376" y="320" type="curve"/>
      <point x="126" y="312"/>
      <point x="22" y="236"/>
      <point x="22" y="112" type="curve" smooth="yes"/>
      <point x="22" y="38"/>
      <point x="80" y="-12"/>
      <point x="160" y="-12" type="curve" smooth="yes"/>
      <point x="228" y="-12"/>
      <point x="288" y="14"/>
      <point x="338" y="62" type="curve"/>
      <point x="342" y="62" type="line"/>
      <point x="342" y="2" type="line"/>
      <point x="306" y="-18"/>
      <point x="242" y="-72"/>
      <point x="242" y="-140" type="curve" smooth="yes"/>
      <point x="242" y="-198"/>
      <point x="284" y="-228"/>
    </contour>
    <contour>
      <point x="224" y="110" type="curve" smooth="yes"/>
      <point x="193" y="110"/>
      <point x="178" y="122"/>
      <point x="178" y="146" type="curve" smooth="yes"/>
      <point x="178" y="184"/>
      <point x="226" y="224"/>
      <point x="360" y="232" type="curve"/>
      <point x="350" y="170" type="line"/>
      <point x="316" y="130"/>
      <point x="260" y="110"/>
    </contour>
    <contour>
      <point x="330" y="520" type="move" name="aboveLC"/>
    </contour>
  </outline>
</glyph>
<glyph name="arrowupleft" format="1">
  <advance width="600"/>
  <outline>
    <contour>
      <point x="432" y="11" type="line"/>
      <point x="521" y="100" type="line"/>
      <point x="279" y="343" type="line"/>
      <point x="465" y="329" type="line"/>
      <point x="472" y="442" type="line"/>
      <point x="86" y="450" type="line"/>
      <point x="83" y="447" type="line"/>
      <point x="91" y="60" type="line"/>
      <point x="203" y="68" type="line"/>
      <point x="190" y="254" type="line"/>
    </contour>
  </outline>
</glyph>
<glyph name="asperacutecmb" format="1">
  <advance width="600"/>
  <outline>
    <contour>
      <point x="289" y="574" type="curve"/>
      <point x="314" y="640" type="line"/>
      <point x="299" y="643"/>
      <point x="287" y="649"/>
      <point x="291" y="668" type="curve" smooth="yes"/>
      <point x="294" y="685"/>
      <point x="314" y="696"/>
      <point x="363" y="700" type="curve"/>
      <point x="374" y="794" type="line"/>
      <point x="258" y="790"/>
      <point x="199" y="747"/>
      <point x="187" y="686" type="curve" smooth="yes"/>
      <point x="172" y="611"/>
      <point x="232" y="582"/>
    </contour>
    <contour>
      <point x="362" y="574" type="line"/>
      <point x="449" y="556" type="line"/>
      <point x="562" y="776" type="line"/>
      <point x="437" y="802" type="line"/>
    </contour>
    <contour>
      <point x="340" y="520" type="move" name="_aboveLC"/>
    </contour>
  </outline>
</glyph>
<glyph name="aspergravecmb" format="1">
	<advance width="600"/>
	<outline>
		<contour>
			<point x="280" y="574" type="curve"/>
			<point x="305" y="640" type="line"/>
			<point x="290" y="643"/>
			<point x="278" y="649"/>
			<point x="281" y="668" type="curve" smooth="yes"/>
			<point x="285" y="685"/>
			<point x="304" y="696"/>
			<point x="353" y="700" type="curve"/>
			<point x="364" y="794" type="line"/>
			<point x="248" y="790"/>
			<point x="190" y="747"/>
			<point x="177" y="686" type="curve" smooth="yes"/>
			<point x="162" y="611"/>
			<point x="223" y="582"/>
		</contour>
		<contour>
			<point x="418" y="556" type="line"/>
			<point x="512" y="574" type="line"/>
			<point x="529" y="802" type="line"/>
			<point x="393" y="776" type="line"/>
		</contour>
		<contour>
			<point name="_aboveLC" x="340" y="520" type="move"/>
		</contour>
	</outline>
</glyph>
<glyph name="braceleft" format="1">
  <advance width="600"/>
  <outline>
    <contour>
      <point x="280" y="-152" type="curve" smooth="yes"/>
      <point x="406" y="-152" type="line"/>
      <point x="422" y="-68" type="line"/>
      <point x="350" y="-68" type="line" smooth="yes"/>
      <point x="314" y="-68"/>
      <point x="292" y="-56"/>
      <point x="292" y="-24" type="curve" smooth="yes"/>
      <point x="292" y="26"/>
      <point x="336" y="128"/>
      <point x="336" y="188" type="curve" smooth="yes"/>
      <point x="336" y="240"/>
      <point x="315" y="262"/>
      <point x="275" y="272" type="curve"/>
      <point x="276" y="276" type="line"/>
      <point x="331" y="288"/>
      <point x="364" y="320"/>
      <point x="380" y="400" type="curve" smooth="yes"/>
      <point x="391" y="458"/>
      <point x="397" y="505"/>
      <point x="407" y="556" type="curve" smooth="yes"/>
      <point x="418" y="608"/>
      <point x="445" y="624"/>
      <point x="487" y="624" type="curve" smooth="yes"/>
      <point x="561" y="624" type="line"/>
      <point x="579" y="708" type="line"/>
      <point x="451" y="708" type="line" smooth="yes"/>
      <point x="353" y="708"/>
      <point x="303" y="672"/>
      <point x="280" y="562" type="curve" smooth="yes"/>
      <point x="266" y="492"/>
      <point x="272" y="462"/>
      <point x="258" y="400" type="curve" smooth="yes"/>
      <point x="250" y="365"/>
      <point x="222" y="326"/>
      <point x="110" y="324" type="curve"/>
      <point x="90" y="232" type="line"/>
      <point x="194" y="230"/>
      <point x="210" y="197"/>
      <point x="210" y="162" type="curve" smooth="yes"/>
      <point x="210" y="121"/>
      <point x="160" y="22"/>
      <point x="160" y="-52" type="curve" smooth="yes"/>
      <point x="160" y="-116"/>
      <point x="199" y="-152"/>
    </contour>
  </outline>
</glyph>
<glyph name="braceright" format="1">
  <advance width="600"/>
  <outline>
    <contour>
      <point x="15" y="-152" type="line"/>
      <point x="143" y="-152" type="line" smooth="yes"/>
      <point x="241" y="-152"/>
      <point x="291" y="-116"/>
      <point x="314" y="-6" type="curve" smooth="yes"/>
      <point x="328" y="64"/>
      <point x="322" y="94"/>
      <point x="336" y="156" type="curve" smooth="yes"/>
      <point x="344" y="191"/>
      <point x="372" y="230"/>
      <point x="484" y="232" type="curve"/>
      <point x="504" y="324" type="line"/>
      <point x="400" y="326"/>
      <point x="384" y="359"/>
      <point x="384" y="394" type="curve" smooth="yes"/>
      <point x="384" y="435"/>
      <point x="434" y="534"/>
      <point x="434" y="608" type="curve" smooth="yes"/>
      <point x="434" y="672"/>
      <point x="395" y="708"/>
      <point x="314" y="708" type="curve" smooth="yes"/>
      <point x="188" y="708" type="line"/>
      <point x="172" y="624" type="line"/>
      <point x="244" y="624" type="line" smooth="yes"/>
      <point x="280" y="624"/>
      <point x="302" y="612"/>
      <point x="302" y="580" type="curve" smooth="yes"/>
      <point x="302" y="530"/>
      <point x="258" y="428"/>
      <point x="258" y="368" type="curve" smooth="yes"/>
      <point x="258" y="316"/>
      <point x="279" y="294"/>
      <point x="319" y="284" type="curve"/>
      <point x="318" y="280" type="line"/>
      <point x="263" y="268"/>
      <point x="230" y="236"/>
      <point x="214" y="156" type="curve" smooth="yes"/>
      <point x="203" y="98"/>
      <point x="197" y="51"/>
      <point x="187" y="0" type="curve" smooth="yes"/>
      <point x="176" y="-52"/>
      <point x="149" y="-68"/>
      <point x="107" y="-68" type="curve" smooth="yes"/>
      <point x="33" y="-68" type="line"/>
    </contour>
  </outline>
</glyph>
<glyph name="brackhalftopleft" format="1">
  <advance width="600"/>
  <outline>
    <contour>
      <point x="188" y="278" type="line"/>
      <point x="308.0" y="278.0" type="line"/>
      <point x="378.0" y="624.0" type="line"/>
      <point x="558.0" y="624.0" type="line"/>
      <point x="574.0" y="708.0" type="line"/>
      <point x="276.0" y="708.0" type="line"/>
    </contour>
  </outline>
</glyph>
<glyph name="brevetildecmb.cap" format="1">
  <advance width="600"/>
  <outline>
    <contour>
      <point x="376" y="700" type="curve" smooth="yes"/>
      <point x="478" y="700"/>
      <point x="536" y="742"/>
      <point x="558" y="814" type="curve"/>
      <point x="480" y="828" type="line"/>
      <point x="466" y="802"/>
      <point x="441" y="780"/>
      <point x="390" y="780" type="curve" smooth="yes"/>
      <point x="338" y="780"/>
      <point x="321" y="802"/>
      <point x="316" y="828" type="curve"/>
      <point x="234" y="814" type="line"/>
      <point x="228" y="742"/>
      <point x="273" y="700"/>
    </contour>
    <contour>
      <point x="460" y="848" type="curve" smooth="yes"/>
      <point x="516" y="848"/>
      <point x="559" y="881"/>
      <point x="578" y="966" type="curve"/>
      <point x="500" y="976" type="line"/>
      <point x="492" y="950"/>
      <point x="480" y="940"/>
      <point x="464" y="940" type="curve" smooth="yes"/>
      <point x="442" y="940"/>
      <point x="418" y="982"/>
      <point x="366" y="982" type="curve" smooth="yes"/>
      <point x="310" y="982"/>
      <point x="266" y="949"/>
      <point x="248" y="864" type="curve"/>
      <point x="326" y="854" type="line"/>
      <point x="334" y="880"/>
      <point x="346" y="890"/>
      <point x="362" y="890" type="curve" smooth="yes"/>
      <point x="384" y="890"/>
      <point x="408" y="848"/>
    </contour>
    <contour>
      <point x="370" y="670" type="move" name="_aboveUC"/>
    </contour>
  </outline>
</glyph>
<glyph name="brevetildecmb" format="1">
  <advance width="600"/>
  <outline>
    <contour>
      <point x="352" y="572" type="curve" smooth="yes"/>
      <point x="458" y="572"/>
      <point x="512" y="624"/>
      <point x="530" y="688" type="curve"/>
      <point x="450" y="702" type="line"/>
      <point x="440" y="678"/>
      <point x="416" y="656"/>
      <point x="366" y="656" type="curve" smooth="yes"/>
      <point x="317" y="656"/>
      <point x="301" y="678"/>
      <point x="298" y="702" type="curve"/>
      <point x="214" y="688" type="line"/>
      <point x="208" y="624"/>
      <point x="246" y="572"/>
    </contour>
    <contour>
      <point x="432" y="716" type="curve" smooth="yes"/>
      <point x="489" y="716"/>
      <point x="535" y="750"/>
      <point x="560" y="836" type="curve"/>
      <point x="476" y="844" type="line"/>
      <point x="464" y="818"/>
      <point x="452" y="808"/>
      <point x="438" y="808" type="curve" smooth="yes"/>
      <point x="412" y="808"/>
      <point x="398" y="850"/>
      <point x="344" y="850" type="curve" smooth="yes"/>
      <point x="287" y="850"/>
      <point x="241" y="816"/>
      <point x="218" y="730" type="curve"/>
      <point x="302" y="722" type="line"/>
      <point x="312" y="748"/>
      <point x="324" y="758"/>
      <point x="338" y="758" type="curve" smooth="yes"/>
      <point x="364" y="758"/>
      <point x="378" y="716"/>
    </contour>
    <contour>
      <point x="340" y="520" type="move" name="_aboveLC"/>
    </contour>
  </outline>
</glyph>
<glyph name="bstroke" format="1">
  <advance width="600"/>
  <outline>
    <contour>
      <point x="294" y="-12" type="curve" smooth="yes"/>
      <point x="430" y="-12"/>
      <point x="558" y="128"/>
      <point x="558" y="308" type="curve" smooth="yes"/>
      <point x="558" y="426"/>
      <point x="500" y="492"/>
      <point x="394" y="492" type="curve" smooth="yes"/>
      <point x="346" y="492"/>
      <point x="289" y="468"/>
      <point x="246" y="424" type="curve"/>
      <point x="244" y="424" type="line"/>
      <point x="274" y="530" type="line"/>
      <point x="308" y="696" type="line"/>
      <point x="148" y="696" type="line"/>
      <point x="8" y="0" type="line"/>
      <point x="140" y="0" type="line"/>
      <point x="162" y="50" type="line"/>
      <point x="164" y="50" type="line"/>
      <point x="188" y="12"/>
      <point x="240" y="-12"/>
    </contour>
    <contour>
      <point x="270" y="118" type="curve" smooth="yes"/>
      <point x="242" y="118"/>
      <point x="214" y="130"/>
      <point x="200" y="156" type="curve"/>
      <point x="226" y="286" type="line"/>
      <point x="260" y="342"/>
      <point x="298" y="362"/>
      <point x="330" y="362" type="curve" smooth="yes"/>
      <point x="366" y="362"/>
      <point x="392" y="340"/>
      <point x="392" y="288" type="curve" smooth="yes"/>
      <point x="392" y="188"/>
      <point x="332" y="118"/>
    </contour>
    <contour>
      <point x="54" y="553" type="line"/>
      <point x="454" y="553" type="line"/>
      <point x="469" y="628" type="line"/>
      <point x="145" y="628" type="line"/>
      <point x="68" y="622" type="line"/>
    </contour>
  </outline>
</glyph>
<glyph name="bulletwhite" format="1">
  <advance width="600"/>
  <outline>
    <contour>
      <point x="265" y="79" type="curve" smooth="yes"/>
      <point x="383" y="79"/>
      <point x="479" y="164"/>
      <point x="479" y="294" type="curve" smooth="yes"/>
      <point x="479" y="382"/>
      <point x="415" y="445"/>
      <point x="322" y="445" type="curve" smooth="yes"/>
      <point x="201" y="445"/>
      <point x="102" y="360"/>
      <point x="102" y="231" type="curve" smooth="yes"/>
      <point x="102" y="144"/>
      <point x="169" y="79"/>
    </contour>
    <contour>
      <point x="276" y="159" type="curve" smooth="yes"/>
      <point x="227" y="159"/>
      <point x="193" y="195"/>
      <point x="193" y="244" type="curve" smooth="yes"/>
      <point x="193" y="318"/>
      <point x="245" y="365"/>
      <point x="309" y="365" type="curve" smooth="yes"/>
      <point x="356" y="365"/>
      <point x="389" y="329"/>
      <point x="389" y="280" type="curve" smooth="yes"/>
      <point x="389" y="206"/>
      <point x="339" y="159"/>
    </contour>
  </outline>
</glyph>
<glyph name="c.sups" format="1">
  <advance width="600"/>
  <outline>
    <contour>
      <point x="332" y="360" type="curve" smooth="yes"/>
      <point x="381" y="360"/>
      <point x="434" y="377"/>
      <point x="469" y="412" type="curve"/>
      <point x="425" y="480" type="line"/>
      <point x="406" y="464"/>
      <point x="384" y="452"/>
      <point x="356" y="452" type="curve" smooth="yes"/>
      <point x="324" y="452"/>
      <point x="305" y="472"/>
      <point x="305" y="512" type="curve" smooth="yes"/>
      <point x="305" y="572"/>
      <point x="340" y="618"/>
      <point x="395" y="618" type="curve" smooth="yes"/>
      <point x="421" y="618"/>
      <point x="438" y="605"/>
      <point x="447" y="593" type="curve"/>
      <point x="510" y="654" type="line"/>
      <point x="491" y="679"/>
      <point x="455" y="706"/>
      <point x="401" y="706" type="curve" smooth="yes"/>
      <point x="287" y="706"/>
      <point x="190" y="631"/>
      <point x="190" y="505" type="curve" smooth="yes"/>
      <point x="190" y="403"/>
      <point x="249" y="360"/>
    </contour>
  </outline>
</glyph>
<glyph name="caron.a" format="1">
	<advance width="600"/>
	<outline>
		<contour>
			<point x="288" y="548" type="line"/>
			<point x="390" y="548" type="line"/>
			<point x="458" y="720" type="line"/>
			<point x="482" y="824" type="line"/>
			<point x="334" y="824" type="line"/>
		</contour>
	</outline>
</glyph>
<glyph name="caroncmb.cap" format="1">
  <advance width="600"/>
  <outline>
    <contour>
      <point x="292" y="700" type="line"/>
      <point x="480" y="700" type="line"/>
      <point x="600" y="826" type="line"/>
      <point x="534" y="876" type="line"/>
      <point x="396" y="786" type="line"/>
      <point x="392" y="786" type="line"/>
      <point x="294" y="876" type="line"/>
      <point x="216" y="832" type="line"/>
    </contour>
    <contour>
      <point x="370" y="670" type="move" name="_aboveUC"/>
    </contour>
  </outline>
</glyph>
<glyph name="carondotaccentcmb.cap" format="1">
  <advance width="600"/>
  <outline>
    <contour>
      <point x="404" y="816" type="curve" smooth="yes"/>
      <point x="454" y="816"/>
      <point x="500" y="860"/>
      <point x="500" y="912" type="curve" smooth="yes"/>
      <point x="500" y="958"/>
      <point x="466" y="978"/>
      <point x="428" y="978" type="curve" smooth="yes"/>
      <point x="378" y="978"/>
      <point x="332" y="934"/>
      <point x="332" y="882" type="curve" smooth="yes"/>
      <point x="332" y="836"/>
      <point x="366" y="816"/>
    </contour>
    <contour>
      <point x="292" y="700" type="line"/>
      <point x="480" y="700" type="line"/>
      <point x="600" y="826" type="line"/>
      <point x="544" y="870" type="line"/>
      <point x="394" y="774" type="line"/>
      <point x="390" y="774" type="line"/>
      <point x="284" y="870" type="line"/>
      <point x="216" y="832" type="line"/>
    </contour>
    <contour>
      <point x="370.0" y="670.0" type="move" name="_aboveUC"/>
    </contour>
  </outline>
</glyph>
<glyph name="ccurl" format="1">
  <advance width="600"/>
  <outline>
    <contour>
      <point x="126" y="-94" type="line"/>
      <point x="212" y="84"/>
      <point x="304" y="184"/>
      <point x="388" y="184" type="curve" smooth="yes"/>
      <point x="414" y="184"/>
      <point x="424" y="174"/>
      <point x="424" y="162" type="curve" smooth="yes"/>
      <point x="424" y="140"/>
      <point x="394" y="118"/>
      <point x="344" y="118" type="curve" smooth="yes"/>
      <point x="282" y="118"/>
      <point x="220" y="150"/>
      <point x="220" y="220" type="curve" smooth="yes"/>
      <point x="220" y="312"/>
      <point x="286" y="382"/>
      <point x="354" y="382" type="curve" smooth="yes"/>
      <point x="392" y="382"/>
      <point x="430" y="366"/>
      <point x="462" y="332" type="curve"/>
      <point x="558" y="420" type="line"/>
      <point x="522" y="466"/>
      <point x="454" y="512"/>
      <point x="364" y="512" type="curve" smooth="yes"/>
      <point x="200" y="512"/>
      <point x="58" y="390"/>
      <point x="58" y="206" type="curve" smooth="yes"/>
      <point x="58" y="60"/>
      <point x="190" y="-12"/>
      <point x="316" y="-12" type="curve" smooth="yes"/>
      <point x="460" y="-12"/>
      <point x="548" y="76"/>
      <point x="548" y="182" type="curve" smooth="yes"/>
      <point x="548" y="252"/>
      <point x="500" y="296"/>
      <point x="414" y="296" type="curve" smooth="yes"/>
      <point x="278" y="296"/>
      <point x="136" y="192"/>
      <point x="10" y="-36" type="curve"/>
    </contour>
    <contour>
      <point x="397" y="520" type="move" name="aboveLC"/>
    </contour>
    <contour>
      <point x="320" y="-20" type="move" name="belowLC"/>
    </contour>
  </outline>
</glyph>
<glyph name="cedillacmb" format="1">
  <advance width="600"/>
  <outline>
    <contour>
      <point x="90" y="-244" type="line"/>
      <point x="224" y="-240"/>
      <point x="306" y="-208"/>
      <point x="320" y="-136" type="curve" smooth="yes"/>
      <point x="326" y="-94"/>
      <point x="304" y="-72"/>
      <point x="254" y="-60" type="curve"/>
      <point x="294" y="4" type="line"/>
      <point x="196" y="4" type="line"/>
      <point x="128" y="-96" type="line"/>
      <point x="188" y="-104"/>
      <point x="200" y="-118"/>
      <point x="198" y="-136" type="curve" smooth="yes"/>
      <point x="192" y="-164"/>
      <point x="166" y="-174"/>
      <point x="90" y="-178" type="curve"/>
    </contour>
    <contour>
      <point x="240" y="0" type="move" name="_baseLC"/>
    </contour>
  </outline>
</glyph>
<glyph name="check" format="1">
  <advance width="600"/>
  <outline>
    <contour>
      <point x="141" y="-20" type="curve"/>
      <point x="290" y="-3" type="line"/>
      <point x="371" y="290"/>
      <point x="497" y="483"/>
      <point x="627" y="604" type="curve"/>
      <point x="530" y="689" type="line"/>
      <point x="398" y="554"/>
      <point x="282" y="338"/>
      <point x="210" y="99" type="curve"/>
      <point x="206" y="99" type="line"/>
      <point x="174" y="181"/>
      <point x="136" y="264"/>
      <point x="83" y="345" type="curve"/>
      <point x="-18" y="279" type="line"/>
      <point x="54" y="179"/>
      <point x="98" y="93"/>
    </contour>
  </outline>
</glyph>
<glyph name="circleblack" format="1">
  <advance width="600"/>
  <outline>
    <contour>
      <point x="300" y="87" type="curve" smooth="yes"/>
      <point x="442" y="87"/>
      <point x="547" y="191"/>
      <point x="547" y="330" type="curve" smooth="yes"/>
      <point x="547" y="469"/>
      <point x="442" y="573"/>
      <point x="300" y="573" type="curve" smooth="yes"/>
      <point x="158" y="573"/>
      <point x="53" y="469"/>
      <point x="53" y="330" type="curve" smooth="yes"/>
      <point x="53" y="191"/>
      <point x="158" y="87"/>
    </contour>
  </outline>
</glyph>
<glyph name="circumflexacutecmb.cap" format="1">
	<advance width="600"/>
	<outline>
		<contour>
			<point x="284" y="680" type="line"/>
			<point x="388" y="752" type="line"/>
			<point x="392" y="752" type="line"/>
			<point x="472" y="680" type="line"/>
			<point x="546" y="724" type="line"/>
			<point x="476" y="828" type="line"/>
			<point x="328" y="828" type="line"/>
			<point x="222" y="724" type="line"/>
		</contour>
		<contour>
			<point x="542" y="761" type="line"/>
			<point x="660" y="823" type="line"/>
			<point x="618" y="895" type="line"/>
			<point x="502" y="821" type="line"/>
		</contour>
		<contour>
			<point name="_aboveUC" x="370" y="670" type="move"/>
		</contour>
	</outline>
</glyph>
<glyph name="circumflexacutecmb" format="1">
  <advance width="600"/>
  <outline>
    <contour>
      <point x="247" y="564" type="line"/>
      <point x="363" y="630" type="line"/>
      <point x="367" y="630" type="line"/>
      <point x="455" y="564" type="line"/>
      <point x="517" y="620" type="line"/>
      <point x="443" y="716" type="line"/>
      <point x="307" y="716" type="line"/>
      <point x="201" y="628" type="line"/>
    </contour>
    <contour>
      <point x="537" y="641" type="line"/>
      <point x="660" y="752" type="line"/>
      <point x="581" y="818" type="line"/>
      <point x="483" y="696" type="line"/>
    </contour>
    <contour>
      <point x="340" y="520" type="move" name="_aboveLC"/>
    </contour>
  </outline>
</glyph>
<glyph name="circumflexcmb.cap" format="1">
  <advance width="600"/>
  <outline>
    <contour>
      <point x="252" y="680" type="line"/>
      <point x="390" y="770" type="line"/>
      <point x="394" y="770" type="line"/>
      <point x="492" y="680" type="line"/>
      <point x="570" y="724" type="line"/>
      <point x="494" y="856" type="line"/>
      <point x="306" y="856" type="line"/>
      <point x="186" y="730" type="line"/>
    </contour>
    <contour>
      <point x="370" y="670" type="move" name="_aboveUC"/>
    </contour>
  </outline>
</glyph>
<glyph name="circumflexgravecmb" format="1">
	<advance width="600"/>
	<outline>
		<contour>
			<point x="247" y="564" type="line"/>
			<point x="363" y="630" type="line"/>
			<point x="367" y="630" type="line"/>
			<point x="455" y="564" type="line"/>
			<point x="517" y="620" type="line"/>
			<point x="443" y="716" type="line"/>
			<point x="307" y="716" type="line"/>
			<point x="201" y="628" type="line"/>
		</contour>
		<contour>
			<point x="153" y="637" type="line"/>
			<point x="226" y="681" type="line"/>
			<point x="173" y="816" type="line"/>
			<point x="73" y="767" type="line"/>
		</contour>
		<contour>
			<point name="_aboveLC" x="340" y="520" type="move"/>
		</contour>
	</outline>
</glyph>
<glyph name="circumflexhoicmb.cap" format="1">
  <advance width="600"/>
  <outline>
    <contour>
      <point x="284" y="680" type="line"/>
      <point x="388" y="752" type="line"/>
      <point x="392" y="752" type="line"/>
      <point x="472" y="680" type="line"/>
      <point x="546" y="724" type="line"/>
      <point x="476" y="828" type="line"/>
      <point x="328" y="828" type="line"/>
      <point x="222" y="724" type="line"/>
    </contour>
    <contour>
      <point x="532" y="748" type="line"/>
      <point x="603" y="752"/>
      <point x="661" y="776"/>
      <point x="673" y="838" type="curve" smooth="yes"/>
      <point x="682" y="882"/>
      <point x="655" y="918"/>
      <point x="534" y="922" type="curve"/>
      <point x="504" y="854" type="line"/>
      <point x="555" y="850"/>
      <point x="566" y="840"/>
      <point x="562" y="824" type="curve" smooth="yes"/>
      <point x="559" y="808"/>
      <point x="546" y="803"/>
      <point x="530" y="800" type="curve"/>
    </contour>
    <contour>
      <point x="370" y="670" type="move" name="_aboveUC"/>
    </contour>
  </outline>
</glyph>
<glyph name="colonmonetary" format="1">
  <advance width="600"/>
  <outline>
    <contour>
      <point x="290" y="-12" type="curve"/>
      <point x="385" y="-12"/>
      <point x="457" y="16"/>
      <point x="524" y="77" type="curve"/>
      <point x="449" y="179" type="line"/>
      <point x="413" y="143"/>
      <point x="374" y="118"/>
      <point x="320" y="118" type="curve" smooth="yes"/>
      <point x="266" y="118"/>
      <point x="225" y="158"/>
      <point x="225" y="246" type="curve" smooth="yes"/>
      <point x="225" y="380"/>
      <point x="294" y="523"/>
      <point x="413" y="523" type="curve" smooth="yes"/>
      <point x="457" y="523"/>
      <point x="490" y="497"/>
      <point x="511" y="467" type="curve"/>
      <point x="606" y="546" type="line"/>
      <point x="572" y="598"/>
      <point x="512" y="647"/>
      <point x="420" y="647" type="curve" smooth="yes"/>
      <point x="220" y="647"/>
      <point x="66" y="490"/>
      <point x="66" y="239" type="curve" smooth="yes"/>
      <point x="66" y="77"/>
      <point x="158" y="-12"/>
    </contour>
    <contour>
      <point x="145" y="-110" type="line"/>
      <point x="197" y="-110" type="line"/>
      <point x="469" y="745" type="line"/>
      <point x="418" y="745" type="line"/>
    </contour>
    <contour>
      <point x="234" y="-110" type="line"/>
      <point x="286" y="-110" type="line"/>
      <point x="558" y="745" type="line"/>
      <point x="507" y="745" type="line"/>
    </contour>
  </outline>
</glyph>
<glyph name="comma.dnom" format="1">
  <advance width="600"/>
  <outline>
    <contour>
      <point x="156" y="-125" type="line"/>
      <point x="270" y="-104"/>
      <point x="331" y="-32"/>
      <point x="331" y="54" type="curve"/>
      <point x="331" y="102"/>
      <point x="303" y="127"/>
      <point x="266" y="127" type="curve" smooth="yes"/>
      <point x="226" y="127"/>
      <point x="187" y="96"/>
      <point x="187" y="51" type="curve" smooth="yes"/>
      <point x="187" y="13"/>
      <point x="211" y="0"/>
      <point x="241" y="0" type="curve" smooth="yes"/>
      <point x="255" y="0"/>
      <point x="270" y="9"/>
      <point x="281" y="17" type="curve"/>
      <point x="257" y="76" type="line"/>
      <point x="242" y="4" type="line"/>
      <point x="237" y="-36"/>
      <point x="207" y="-59"/>
      <point x="147" y="-72" type="curve"/>
    </contour>
  </outline>
</glyph>
<glyph name="commaabovecmb" format="1">
  <advance width="600"/>
  <outline>
    <contour>
      <point x="306" y="566" type="line"/>
      <point x="400" y="588"/>
      <point x="450" y="644"/>
      <point x="450" y="720" type="curve" smooth="yes"/>
      <point x="450" y="768"/>
      <point x="420" y="800"/>
      <point x="372" y="800" type="curve" smooth="yes"/>
      <point x="328" y="800"/>
      <point x="290.0" y="770.0"/>
      <point x="290" y="724" type="curve" smooth="yes"/>
      <point x="290.0" y="690.0"/>
      <point x="321.0" y="666.0"/>
      <point x="352" y="666" type="curve" smooth="yes"/>
      <point x="376.0" y="666.0"/>
      <point x="391.432750191" y="675.28910953"/>
      <point x="412" y="692" type="curve"/>
      <point x="388" y="730" type="line"/>
      <point x="369" y="682" type="line"/>
      <point x="360.932395816" y="649.729583264"/>
      <point x="334" y="636"/>
      <point x="285" y="622" type="curve"/>
    </contour>
    <contour>
      <point x="340" y="520" type="move" name="_aboveLC"/>
    </contour>
  </outline>
</glyph>
<glyph name="commabelowcmb" format="1">
  <advance width="600"/>
  <outline>
    <contour>
      <point x="89" y="-244" type="line"/>
      <point x="222" y="-240"/>
      <point x="322" y="-206"/>
      <point x="322" y="-124" type="curve" smooth="yes"/>
      <point x="322" y="-85"/>
      <point x="298" y="-54"/>
      <point x="187" y="-50" type="curve"/>
      <point x="143" y="-110" type="line"/>
      <point x="186" y="-110"/>
      <point x="197" y="-126"/>
      <point x="197" y="-138" type="curve" smooth="yes"/>
      <point x="197" y="-160"/>
      <point x="169" y="-174"/>
      <point x="92" y="-178" type="curve"/>
    </contour>
    <contour>
      <point x="234" y="-20" type="move" name="_belowLC"/>
    </contour>
  </outline>
</glyph>
<glyph name="dblgravecmb.cap" format="1">
  <advance width="600"/>
  <outline>
    <contour>
      <point x="224" y="689" type="line"/>
      <point x="315" y="721" type="line"/>
      <point x="240" y="893" type="line"/>
      <point x="122" y="843" type="line"/>
    </contour>
    <contour>
      <point x="422" y="689" type="line"/>
      <point x="513" y="721" type="line"/>
      <point x="438" y="893" type="line"/>
      <point x="320" y="843" type="line"/>
    </contour>
    <contour>
      <point x="370" y="670" type="move" name="_aboveUC"/>
    </contour>
  </outline>
</glyph>
<glyph name="dblgravecmb" format="1">
  <advance width="600"/>
  <outline>
    <contour>
      <point x="200" y="564" type="line"/>
      <point x="297" y="596" type="line"/>
      <point x="242" y="786" type="line"/>
      <point x="119" y="746" type="line"/>
    </contour>
    <contour>
      <point x="390" y="564" type="line"/>
      <point x="487" y="596" type="line"/>
      <point x="432" y="786" type="line"/>
      <point x="309" y="746" type="line"/>
    </contour>
    <contour>
      <point x="340" y="520" type="move" name="_aboveLC"/>
    </contour>
  </outline>
</glyph>
<glyph name="dezh" format="1">
  <advance width="600"/>
  <outline>
    <contour>
      <point x="78" y="-12" type="curve" smooth="yes"/>
      <point x="108.354166667" y="-12.0"/>
      <point x="139.163018573" y="3.1728984868"/>
      <point x="172" y="38" type="curve"/>
      <point x="174" y="38" type="line"/>
      <point x="180" y="0" type="line"/>
      <point x="280" y="0" type="line"/>
      <point x="420" y="696" type="line"/>
      <point x="290" y="696" type="line"/>
      <point x="264" y="560" type="line"/>
      <point x="254" y="470" type="line"/>
      <point x="252" y="470" type="line"/>
      <point x="234" y="498"/>
      <point x="208" y="512"/>
      <point x="180" y="512" type="curve" smooth="yes"/>
      <point x="74" y="512"/>
      <point x="-28" y="356"/>
      <point x="-28" y="176" type="curve" smooth="yes"/>
      <point x="-28" y="58"/>
      <point x="11" y="-12"/>
    </contour>
    <contour>
      <point x="146" y="118" type="curve" smooth="yes"/>
      <point x="128" y="118"/>
      <point x="118" y="136"/>
      <point x="118" y="178" type="curve" smooth="yes"/>
      <point x="118" y="298"/>
      <point x="160" y="382"/>
      <point x="196" y="382" type="curve" smooth="yes"/>
      <point x="208" y="382"/>
      <point x="218" y="374"/>
      <point x="222" y="358" type="curve"/>
      <point x="182" y="160" type="line"/>
      <point x="172" y="126"/>
      <point x="158" y="118"/>
    </contour>
    <contour>
      <point x="334" y="-188" type="curve" smooth="yes"/>
      <point x="476" y="-188"/>
      <point x="568" y="-46"/>
      <point x="568" y="88" type="curve" smooth="yes"/>
      <point x="568" y="164"/>
      <point x="524" y="224"/>
      <point x="446" y="224" type="curve"/>
      <point x="460" y="200" type="line"/>
      <point x="614" y="408" type="line"/>
      <point x="632" y="500" type="line"/>
      <point x="338" y="500" type="line"/>
      <point x="314" y="376" type="line"/>
      <point x="456" y="376" type="line"/>
      <point x="326" y="204" type="line"/>
      <point x="358" y="112" type="line"/>
      <point x="370" y="118"/>
      <point x="374" y="118"/>
      <point x="382" y="118" type="curve" smooth="yes"/>
      <point x="404" y="118"/>
      <point x="422" y="100"/>
      <point x="422" y="58" type="curve" smooth="yes"/>
      <point x="422" y="-4"/>
      <point x="382" y="-62"/>
      <point x="336" y="-62" type="curve" smooth="yes"/>
      <point x="320" y="-62"/>
      <point x="304" y="-54"/>
      <point x="288" y="-36" type="curve"/>
      <point x="206" y="-128" type="line"/>
      <point x="234" y="-162"/>
      <point x="270" y="-188"/>
    </contour>
    <contour>
      <point x="350" y="730" type="move" name="aboveUC"/>
    </contour>
    <contour>
      <point x="240" y="-200" type="move" name="belowLC"/>
    </contour>
  </outline>
</glyph>
<glyph name="dialytikagravecmb" format="1">
  <advance width="600"/>
  <outline>
    <contour>
      <point x="221" y="580" type="curve" smooth="yes"/>
      <point x="254" y="580"/>
      <point x="286" y="604"/>
      <point x="293" y="642" type="curve" smooth="yes"/>
      <point x="301" y="680"/>
      <point x="279" y="704"/>
      <point x="246" y="704" type="curve" smooth="yes"/>
      <point x="214" y="704"/>
      <point x="182" y="680"/>
      <point x="174" y="642" type="curve" smooth="yes"/>
      <point x="167" y="604"/>
      <point x="189" y="580"/>
    </contour>
    <contour>
      <point x="336" y="568" type="line"/>
      <point x="410" y="584" type="line"/>
      <point x="423" y="812" type="line"/>
      <point x="307" y="788" type="line"/>
    </contour>
    <contour>
      <point x="490" y="580" type="curve" smooth="yes"/>
      <point x="523" y="580"/>
      <point x="555" y="604"/>
      <point x="562" y="642" type="curve" smooth="yes"/>
      <point x="570" y="680"/>
      <point x="548" y="704"/>
      <point x="515" y="704" type="curve" smooth="yes"/>
      <point x="482" y="704"/>
      <point x="451" y="680"/>
      <point x="443" y="642" type="curve" smooth="yes"/>
      <point x="436" y="604"/>
      <point x="458" y="580"/>
    </contour>
    <contour>
      <point x="340" y="520" type="move" name="_aboveLC"/>
    </contour>
  </outline>
</glyph>
<glyph name="dieresisgravecmb.cap" format="1">
	<advance width="600"/>
	<outline>
		<contour>
			<point x="264" y="696" type="curve" smooth="yes"/>
			<point x="306" y="696"/>
			<point x="336" y="734"/>
			<point x="336" y="770" type="curve" smooth="yes"/>
			<point x="336" y="804"/>
			<point x="312" y="826"/>
			<point x="280" y="826" type="curve" smooth="yes"/>
			<point x="238" y="826"/>
			<point x="208" y="788"/>
			<point x="208" y="752" type="curve" smooth="yes"/>
			<point x="208" y="718"/>
			<point x="232" y="696"/>
		</contour>
		<contour>
			<point x="478" y="696" type="curve" smooth="yes"/>
			<point x="520" y="696"/>
			<point x="550" y="734"/>
			<point x="550" y="770" type="curve" smooth="yes"/>
			<point x="550" y="804"/>
			<point x="526" y="826"/>
			<point x="494" y="826" type="curve" smooth="yes"/>
			<point x="452" y="826"/>
			<point x="422" y="788"/>
			<point x="422" y="752" type="curve" smooth="yes"/>
			<point x="422" y="718"/>
			<point x="446" y="696"/>
		</contour>
		<contour>
			<point x="370" y="825" type="line"/>
			<point x="452" y="862" type="line"/>
			<point x="384" y="1022" type="line"/>
			<point x="266" y="968" type="line"/>
		</contour>
		<contour>
			<point name="_aboveUC" x="370" y="670" type="move"/>
		</contour>
	</outline>
</glyph>
<glyph name="dotaccentcmb.cap" format="1">
  <advance width="600"/>
  <outline>
    <contour>
      <point x="388" y="698" type="curve" smooth="yes"/>
      <point x="442" y="698"/>
      <point x="484" y="736"/>
      <point x="484" y="788" type="curve" smooth="yes"/>
      <point x="484" y="836"/>
      <point x="442" y="862"/>
      <point x="400" y="862" type="curve" smooth="yes"/>
      <point x="346" y="862"/>
      <point x="304" y="820"/>
      <point x="304" y="772" type="curve" smooth="yes"/>
      <point x="304" y="722"/>
      <point x="346" y="698"/>
    </contour>
    <contour>
      <point x="370" y="670" type="move" name="_aboveUC"/>
    </contour>
  </outline>
</glyph>
<glyph name="dotbelowcmb" format="1">
	<advance width="600"/>
	<outline>
		<component base="dotaccentcmb" xOffset="-166" yOffset="-826"/>
		<contour>
			<point name="_belowLC" x="234" y="-20" type="move"/>
		</contour>
	</outline>
</glyph>
<glyph name="dotlessj" format="1">
	<advance width="600"/>
	<outline>
		<contour>
			<point x="145" y="-188" type="curve" smooth="yes"/>
			<point x="290" y="-188"/>
			<point x="368" y="-106"/>
			<point x="398" y="42" type="curve" smooth="yes"/>
			<point x="490" y="500" type="line"/>
			<point x="136" y="500" type="line"/>
			<point x="110" y="376" type="line"/>
			<point x="306" y="376" type="line"/>
			<point x="242" y="56" type="line" smooth="yes"/>
			<point x="224" y="-32"/>
			<point x="192" y="-62"/>
			<point x="134" y="-62" type="curve" smooth="yes"/>
			<point x="96" y="-62"/>
			<point x="67" y="-48"/>
			<point x="38" y="-28" type="curve"/>
			<point x="-26" y="-140" type="line"/>
			<point x="10" y="-164"/>
			<point x="66" y="-188"/>
		</contour>
		<contour>
			<point name="aboveLC" x="398" y="520" type="move"/>
		</contour>
		<contour>
			<point name="belowLC" x="170" y="-200" type="move"/>
		</contour>
	</outline>
</glyph>
<glyph name="eight.cap" format="1">
  <advance width="600"/>
  <outline>
    <contour>
      <point x="250" y="-12" type="curve" smooth="yes"/>
      <point x="406.0" y="-12.0"/>
      <point x="502" y="72"/>
      <point x="502" y="192" type="curve" smooth="yes"/>
      <point x="502" y="266"/>
      <point x="468" y="310"/>
      <point x="424" y="340" type="curve"/>
      <point x="424" y="344" type="line"/>
      <point x="496" y="378"/>
      <point x="542" y="434"/>
      <point x="542" y="514" type="curve" smooth="yes"/>
      <point x="542" y="612"/>
      <point x="454.0" y="662.0"/>
      <point x="346" y="662" type="curve" smooth="yes"/>
      <point x="212.0" y="662.0"/>
      <point x="116" y="588"/>
      <point x="116" y="472" type="curve" smooth="yes"/>
      <point x="116" y="416"/>
      <point x="142" y="372"/>
      <point x="180" y="334" type="curve"/>
      <point x="180" y="330" type="line"/>
      <point x="74" y="284"/>
      <point x="36" y="228"/>
      <point x="36" y="144" type="curve" smooth="yes"/>
      <point x="36" y="50"/>
      <point x="112.0" y="-12.0"/>
    </contour>
    <contour>
      <point x="346" y="383" type="curve"/>
      <point x="294" y="408"/>
      <point x="256" y="440"/>
      <point x="256" y="482" type="curve" smooth="yes"/>
      <point x="256" y="522"/>
      <point x="290.0" y="550.0"/>
      <point x="334" y="550" type="curve" smooth="yes"/>
      <point x="380.0" y="550.0"/>
      <point x="406" y="524"/>
      <point x="406" y="486" type="curve" smooth="yes"/>
      <point x="406" y="448"/>
      <point x="388" y="412"/>
    </contour>
    <contour>
      <point x="262" y="100" type="curve" smooth="yes"/>
      <point x="216.0" y="100.0"/>
      <point x="178" y="124"/>
      <point x="178" y="176" type="curve" smooth="yes"/>
      <point x="178" y="216"/>
      <point x="204" y="254"/>
      <point x="246" y="282" type="curve"/>
      <point x="320" y="244"/>
      <point x="356" y="216"/>
      <point x="356" y="174" type="curve" smooth="yes"/>
      <point x="356" y="124"/>
      <point x="310.0" y="100.0"/>
    </contour>
  </outline>
</glyph>
<glyph name="emdash" format="1">
  <advance width="600"/>
  <outline>
    <contour>
      <point x="-22" y="196" type="line"/>
      <point x="578" y="196" type="line"/>
      <point x="602" y="312" type="line"/>
      <point x="2" y="312" type="line"/>
    </contour>
  </outline>
</glyph>
<glyph name="eopenreversedclosed" format="1">
	<advance width="600"/>
	<outline>
		<contour>
			<point x="268" y="-12" type="curve" smooth="yes"/>
			<point x="402" y="-12"/>
			<point x="524" y="50"/>
			<point x="524" y="152" type="curve" smooth="yes"/>
			<point x="524" y="196"/>
			<point x="503" y="244"/>
			<point x="443" y="262" type="curve"/>
			<point x="444" y="266" type="line"/>
			<point x="511" y="278"/>
			<point x="548" y="324"/>
			<point x="548" y="382" type="curve" smooth="yes"/>
			<point x="548" y="468"/>
			<point x="444" y="512"/>
			<point x="334" y="512" type="curve" smooth="yes"/>
			<point x="176" y="512"/>
			<point x="30" y="394"/>
			<point x="30" y="212" type="curve" smooth="yes"/>
			<point x="30" y="76"/>
			<point x="121" y="-12"/>
		</contour>
		<contour>
			<point x="290" y="112" type="curve" smooth="yes"/>
			<point x="232" y="112"/>
			<point x="192" y="152"/>
			<point x="192" y="216" type="curve" smooth="yes"/>
			<point x="192" y="316"/>
			<point x="254" y="390"/>
			<point x="328" y="390" type="curve" smooth="yes"/>
			<point x="362" y="390"/>
			<point x="382" y="370"/>
			<point x="382" y="346" type="curve" smooth="yes"/>
			<point x="382" y="317"/>
			<point x="356" y="304"/>
			<point x="316" y="304" type="curve"/>
			<point x="291" y="304" type="line"/>
			<point x="272" y="204" type="line"/>
			<point x="282" y="204" type="line"/>
			<point x="340" y="204"/>
			<point x="358" y="190"/>
			<point x="358" y="162" type="curve" smooth="yes"/>
			<point x="358" y="137"/>
			<point x="333" y="112"/>
		</contour>
		<contour>
			<point name="aboveLC" x="340" y="520" type="move"/>
		</contour>
		<contour>
			<point name="belowLC" x="250" y="-20" type="move"/>
		</contour>
	</outline>
</glyph>
<glyph name="ereversed" format="1">
  <advance width="600"/>
  <outline>
    <contour>
      <point x="232" y="-12" type="curve" smooth="yes"/>
      <point x="408" y="-12"/>
      <point x="544" y="94"/>
      <point x="544" y="294" type="curve" smooth="yes"/>
      <point x="544" y="439"/>
      <point x="445" y="512"/>
      <point x="330" y="512" type="curve" smooth="yes"/>
      <point x="118" y="512"/>
      <point x="54" y="344"/>
      <point x="54" y="257" type="curve" smooth="yes"/>
      <point x="54" y="230"/>
      <point x="56" y="216"/>
      <point x="58" y="204" type="curve"/>
      <point x="443" y="204" type="line"/>
      <point x="438" y="304" type="line"/>
      <point x="175" y="304" type="line"/>
      <point x="196" y="278" type="line"/>
      <point x="204" y="344"/>
      <point x="248" y="390"/>
      <point x="304" y="390" type="curve" smooth="yes"/>
      <point x="342" y="390"/>
      <point x="384" y="366"/>
      <point x="384" y="292" type="curve" smooth="yes"/>
      <point x="384" y="162"/>
      <point x="314" y="110"/>
      <point x="243" y="110" type="curve" smooth="yes"/>
      <point x="192" y="110"/>
      <point x="154" y="128"/>
      <point x="116" y="158" type="curve"/>
      <point x="36" y="60" type="line"/>
      <point x="80" y="14"/>
      <point x="161" y="-12"/>
    </contour>
    <contour>
      <point x="340.0" y="520.0" type="move" name="aboveLC"/>
    </contour>
    <contour>
      <point x="250.0" y="-20.0" type="move" name="belowLC"/>
    </contour>
  </outline>
</glyph>
<glyph name="esh" format="1">
  <advance width="600"/>
  <outline>
    <contour>
      <point x="100" y="-188" type="curve" smooth="yes"/>
      <point x="242" y="-188"/>
      <point x="304" y="-86"/>
      <point x="326" y="26" type="curve" smooth="yes"/>
      <point x="418" y="500" type="line" smooth="yes"/>
      <point x="430" y="560"/>
      <point x="454" y="582"/>
      <point x="498" y="582" type="curve" smooth="yes"/>
      <point x="521" y="582"/>
      <point x="544" y="574"/>
      <point x="574" y="556" type="curve"/>
      <point x="644" y="656" type="line"/>
      <point x="606" y="684"/>
      <point x="550" y="708"/>
      <point x="486" y="708" type="curve" smooth="yes"/>
      <point x="345" y="708"/>
      <point x="282" y="606"/>
      <point x="259" y="494" type="curve" smooth="yes"/>
      <point x="163" y="20" type="line"/>
      <point x="151" y="-40"/>
      <point x="134" y="-62"/>
      <point x="100" y="-62" type="curve" smooth="yes"/>
      <point x="80" y="-62"/>
      <point x="62" y="-56"/>
      <point x="38" y="-36" type="curve"/>
      <point x="-26" y="-140" type="line"/>
      <point x="2" y="-168"/>
      <point x="42" y="-188"/>
    </contour>
    <contour>
      <point x="470" y="730" type="move" name="aboveUC"/>
    </contour>
    <contour>
      <point x="140" y="-200" type="move" name="belowLC"/>
    </contour>
  </outline>
</glyph>
<glyph name="f" format="1">
  <advance width="600"/>
  <outline>
    <contour>
      <point x="134" y="0" type="line"/>
      <point x="294" y="0" type="line"/>
      <point x="394" y="508" type="line" smooth="yes"/>
      <point x="405" y="562"/>
      <point x="439" y="582"/>
      <point x="486" y="582" type="curve" smooth="yes"/>
      <point x="524" y="582"/>
      <point x="547" y="574"/>
      <point x="574" y="556" type="curve"/>
      <point x="644" y="656" type="line"/>
      <point x="612" y="680"/>
      <point x="558" y="708"/>
      <point x="478" y="708" type="curve" smooth="yes"/>
      <point x="342" y="708"/>
      <point x="262" y="638"/>
      <point x="236" y="508" type="curve" smooth="yes"/>
    </contour>
    <contour>
      <point x="78" y="376" type="line"/>
      <point x="530" y="376" type="line"/>
      <point x="554" y="500" type="line"/>
      <point x="236" y="500" type="line"/>
      <point x="102" y="494" type="line"/>
    </contour>
    <contour>
      <point x="470" y="730" type="move" name="aboveUC"/>
    </contour>
    <contour>
      <point x="220" y="0" type="move" name="baseLC"/>
    </contour>
    <contour>
      <point x="214" y="-20" type="move" name="belowLC"/>
    </contour>
  </outline>
</glyph>
<glyph name="fi" format="1">
  <advance width="600"/>
  <outline>
    <contour>
      <point x="12" y="0" type="line"/>
      <point x="172" y="0" type="line"/>
      <point x="246" y="376" type="line"/>
      <point x="340" y="376" type="line"/>
      <point x="364" y="500" type="line"/>
      <point x="272" y="500" type="line"/>
      <point x="276" y="520" type="line" smooth="yes"/>
      <point x="286" y="574"/>
      <point x="306" y="582"/>
      <point x="340" y="582" type="curve" smooth="yes"/>
      <point x="356" y="582"/>
      <point x="376" y="574"/>
      <point x="386" y="568" type="curve"/>
      <point x="436" y="680" type="line"/>
      <point x="402" y="698"/>
      <point x="362" y="708"/>
      <point x="322" y="708" type="curve" smooth="yes"/>
      <point x="196" y="708"/>
      <point x="136" y="618"/>
      <point x="116" y="514" type="curve" smooth="yes"/>
      <point x="114" y="500" type="line"/>
      <point x="48" y="494" type="line"/>
      <point x="24" y="376" type="line"/>
      <point x="88" y="376" type="line"/>
    </contour>
    <contour>
      <point x="330" y="0" type="line"/>
      <point x="490" y="0" type="line"/>
      <point x="590" y="500" type="line"/>
      <point x="430" y="500" type="line"/>
    </contour>
    <contour>
      <point x="536" y="564" type="curve" smooth="yes"/>
      <point x="599" y="564"/>
      <point x="649" y="609"/>
      <point x="649" y="669" type="curve" smooth="yes"/>
      <point x="649" y="726"/>
      <point x="607" y="756"/>
      <point x="550" y="756" type="curve" smooth="yes"/>
      <point x="487" y="756"/>
      <point x="438" y="707"/>
      <point x="438" y="651" type="curve" smooth="yes"/>
      <point x="438" y="592"/>
      <point x="486" y="564"/>
    </contour>
  </outline>
</glyph>
<glyph name="five.cap" format="1">
	<advance width="600"/>
	<outline>
		<contour>
			<point x="230" y="-12" type="curve" smooth="yes"/>
			<point x="370" y="-12"/>
			<point x="508" y="84"/>
			<point x="508" y="244" type="curve" smooth="yes"/>
			<point x="508" y="358"/>
			<point x="426" y="418"/>
			<point x="324" y="418" type="curve" smooth="yes"/>
			<point x="298" y="418"/>
			<point x="276" y="416"/>
			<point x="250" y="408" type="curve"/>
			<point x="280" y="516" type="line"/>
			<point x="524" y="516" type="line"/>
			<point x="550" y="650" type="line"/>
			<point x="168" y="650" type="line"/>
			<point x="88" y="320" type="line"/>
			<point x="146" y="272" type="line"/>
			<point x="198" y="298"/>
			<point x="218" y="300"/>
			<point x="256" y="300" type="curve" smooth="yes"/>
			<point x="312" y="300"/>
			<point x="346" y="272"/>
			<point x="346" y="218" type="curve" smooth="yes"/>
			<point x="346" y="152"/>
			<point x="292" y="116"/>
			<point x="232" y="116" type="curve" smooth="yes"/>
			<point x="183" y="116"/>
			<point x="136" y="138"/>
			<point x="100" y="186" type="curve"/>
			<point x="0" y="104" type="line"/>
			<point x="62" y="16"/>
			<point x="148" y="-12"/>
		</contour>
	</outline>
</glyph>
<glyph name="five" format="1">
	<advance width="600"/>
	<outline>
		<contour>
			<point x="230" y="-12" type="curve" smooth="yes"/>
			<point x="370" y="-12"/>
			<point x="508" y="84"/>
			<point x="508" y="242" type="curve" smooth="yes"/>
			<point x="508" y="352"/>
			<point x="426" y="410"/>
			<point x="322" y="410" type="curve" smooth="yes"/>
			<point x="296" y="410"/>
			<point x="274" y="408"/>
			<point x="248" y="400" type="curve"/>
			<point x="276" y="500" type="line"/>
			<point x="520" y="500" type="line"/>
			<point x="546" y="634" type="line"/>
			<point x="164" y="634" type="line"/>
			<point x="86" y="312" type="line"/>
			<point x="144" y="264" type="line"/>
			<point x="196" y="290"/>
			<point x="216" y="292"/>
			<point x="254" y="292" type="curve" smooth="yes"/>
			<point x="312" y="292"/>
			<point x="346" y="266"/>
			<point x="346" y="216" type="curve" smooth="yes"/>
			<point x="346" y="152"/>
			<point x="292" y="116"/>
			<point x="232" y="116" type="curve" smooth="yes"/>
			<point x="183" y="116"/>
			<point x="136" y="138"/>
			<point x="100" y="186" type="curve"/>
			<point x="0" y="104" type="line"/>
			<point x="62" y="16"/>
			<point x="148" y="-12"/>
		</contour>
	</outline>
</glyph>
<glyph name="four.onum" format="1">
  <advance width="600"/>
  <outline>
    <contour>
      <point x="262" y="-80" type="line"/>
      <point x="406" y="-80" type="line"/>
      <point x="538" y="580" type="line"/>
      <point x="342" y="580" type="line"/>
      <point x="6" y="186" type="line"/>
      <point x="-16" y="74" type="line"/>
      <point x="510" y="74" type="line"/>
      <point x="534" y="196" type="line"/>
      <point x="162" y="196" type="line"/>
      <point x="278" y="338" type="line" smooth="yes"/>
      <point x="307" y="373"/>
      <point x="338" y="416"/>
      <point x="366" y="454" type="curve"/>
      <point x="366" y="454"/>
      <point x="370" y="454"/>
      <point x="370" y="454" type="curve"/>
      <point x="360" y="414"/>
      <point x="348" y="356"/>
      <point x="338" y="306" type="curve" smooth="yes"/>
    </contour>
  </outline>
</glyph>
<glyph name="four.subs" format="1">
  <advance width="600"/>
  <outline>
    <contour>
      <point x="268" y="-190" type="line"/>
      <point x="368" y="-190" type="line"/>
      <point x="419" y="64" type="line"/>
      <point x="319" y="64" type="line"/>
    </contour>
    <contour>
      <point x="280" y="212" type="line"/>
      <point x="90" y="-48" type="line"/>
      <point x="78" y="-108" type="line"/>
      <point x="442" y="-108" type="line"/>
      <point x="458" y="-32" type="line"/>
      <point x="206" y="-32" type="line"/>
      <point x="354" y="172" type="line"/>
    </contour>
  </outline>
</glyph>
<glyph name="g.a" format="1">
  <advance width="600"/>
  <outline>
    <component base="gscript"/>
    <contour>
      <point x="330" y="520" type="move" name="aboveLC"/>
    </contour>
    <contour>
      <point x="190" y="-200" type="move" name="belowLC"/>
    </contour>
  </outline>
</glyph>
<glyph name="g.supa" format="1">
  <advance width="600"/>
  <outline>
    <contour>
      <point x="491" y="360" type="curve" smooth="yes"/>
      <point x="491" y="419"/>
      <point x="455" y="436"/>
      <point x="382" y="436" type="curve" smooth="yes"/>
      <point x="300" y="436" type="line" smooth="yes"/>
      <point x="269" y="436"/>
      <point x="260" y="441"/>
      <point x="260" y="454" type="curve" smooth="yes"/>
      <point x="260" y="462"/>
      <point x="265" y="470"/>
      <point x="272" y="477" type="curve"/>
      <point x="285" y="474"/>
      <point x="301" y="472"/>
      <point x="318" y="472" type="curve" smooth="yes"/>
      <point x="409" y="472"/>
      <point x="482" y="512"/>
      <point x="482" y="592" type="curve" smooth="yes"/>
      <point x="482" y="602"/>
      <point x="481" y="612"/>
      <point x="480" y="621" type="curve"/>
      <point x="529" y="621" type="line"/>
      <point x="542" y="698" type="line"/>
      <point x="417" y="698" type="line"/>
      <point x="401" y="703"/>
      <point x="381" y="706"/>
      <point x="359" y="706" type="curve" smooth="yes"/>
      <point x="275" y="706"/>
      <point x="193" y="659"/>
      <point x="193" y="568" type="curve" smooth="yes"/>
      <point x="193" y="542"/>
      <point x="203" y="517"/>
      <point x="225" y="499" type="curve"/>
      <point x="192" y="480"/>
      <point x="168" y="457"/>
      <point x="168" y="420" type="curve" smooth="yes"/>
      <point x="168" y="401"/>
      <point x="177" y="386"/>
      <point x="191" y="377" type="curve"/>
      <point x="191" y="375" type="line"/>
      <point x="146" y="359"/>
      <point x="126" y="332"/>
      <point x="126" y="302" type="curve" smooth="yes"/>
      <point x="126" y="252"/>
      <point x="185" y="231"/>
      <point x="262" y="231" type="curve" smooth="yes"/>
      <point x="397" y="231"/>
      <point x="491" y="280"/>
    </contour>
    <contour>
      <point x="328" y="542" type="curve" smooth="yes"/>
      <point x="308" y="542"/>
      <point x="293" y="554"/>
      <point x="293" y="579" type="curve" smooth="yes"/>
      <point x="293" y="614"/>
      <point x="319" y="638"/>
      <point x="347" y="638" type="curve" smooth="yes"/>
      <point x="367" y="638"/>
      <point x="383" y="625"/>
      <point x="383" y="598" type="curve" smooth="yes"/>
      <point x="383" y="562"/>
      <point x="356" y="542"/>
    </contour>
    <contour>
      <point x="292" y="299" type="curve" smooth="yes"/>
      <point x="249" y="299"/>
      <point x="220" y="308"/>
      <point x="220" y="328" type="curve" smooth="yes"/>
      <point x="220" y="337"/>
      <point x="228" y="347"/>
      <point x="240" y="356" type="curve"/>
      <point x="251" y="354"/>
      <point x="261" y="353"/>
      <point x="271" y="353" type="curve" smooth="yes"/>
      <point x="340" y="353" type="line" smooth="yes"/>
      <point x="372" y="353"/>
      <point x="381" y="349"/>
      <point x="381" y="335" type="curve" smooth="yes"/>
      <point x="381" y="314"/>
      <point x="342" y="299"/>
    </contour>
  </outline>
</glyph>
<glyph name="gammalatin" format="1">
  <advance width="600"/>
  <outline>
    <contour>
      <point x="162" y="69" type="line"/>
      <point x="352" y="69" type="line"/>
      <point x="610" y="500" type="line"/>
      <point x="452" y="500" type="line"/>
      <point x="352" y="312" type="line" smooth="yes"/>
      <point x="332" y="274"/>
      <point x="310" y="234"/>
      <point x="277" y="180" type="curve"/>
      <point x="273" y="180" type="line"/>
      <point x="262" y="234"/>
      <point x="256" y="274"/>
      <point x="250" y="312" type="curve" smooth="yes"/>
      <point x="222" y="500" type="line"/>
      <point x="64" y="500" type="line"/>
    </contour>
    <contour>
      <point x="203" y="-206" type="curve" smooth="yes"/>
      <point x="320" y="-206"/>
      <point x="401" y="-117"/>
      <point x="401" y="-14" type="curve" smooth="yes"/>
      <point x="401" y="32"/>
      <point x="381.0" y="75.0"/>
      <point x="353.0" y="152.0" type="curve"/>
      <point x="196.0" y="152.0" type="line"/>
      <point x="106" y="38"/>
      <point x="68" y="-14"/>
      <point x="68" y="-86" type="curve" smooth="yes"/>
      <point x="68" y="-160"/>
      <point x="118" y="-206"/>
    </contour>
    <contour>
      <point x="224.0" y="-100.0" type="curve" smooth="yes"/>
      <point x="210.0" y="-100.0"/>
      <point x="200.0" y="-90.0"/>
      <point x="200.0" y="-73.0" type="curve" smooth="yes"/>
      <point x="200.0" y="-51.449591728"/>
      <point x="214.633519284" y="-18.7923033365"/>
      <point x="246.0" y="30.0" type="curve"/>
      <point x="251.0" y="30.0" type="line"/>
      <point x="260.0" y="2.0"/>
      <point x="264" y="-19"/>
      <point x="264.0" y="-37.0" type="curve" smooth="yes"/>
      <point x="264" y="-76"/>
      <point x="246.718289541" y="-100.0"/>
    </contour>
    <contour>
      <point x="330" y="520" type="move" name="aboveLC"/>
    </contour>
    <contour>
      <point x="210" y="-200" type="move" name="belowLC"/>
    </contour>
  </outline>
</glyph>
<glyph name="glottalstopstroke" format="1">
  <advance width="600"/>
  <outline>
    <contour>
      <point x="138" y="0" type="line"/>
      <point x="298" y="0" type="line"/>
      <point x="344" y="234" type="line"/>
      <point x="508" y="234" type="line"/>
      <point x="524" y="310" type="line"/>
      <point x="406" y="310" type="line"/>
      <point x="502" y="372"/>
      <point x="568" y="443"/>
      <point x="568" y="530" type="curve" smooth="yes"/>
      <point x="568" y="648"/>
      <point x="470" y="708"/>
      <point x="356" y="708" type="curve" smooth="yes"/>
      <point x="254" y="708"/>
      <point x="194" y="680"/>
      <point x="120" y="628" type="curve"/>
      <point x="182" y="520" type="line"/>
      <point x="240" y="560"/>
      <point x="280" y="582"/>
      <point x="328" y="582" type="curve" smooth="yes"/>
      <point x="374" y="582"/>
      <point x="402" y="558"/>
      <point x="402" y="512" type="curve" smooth="yes"/>
      <point x="402" y="454"/>
      <point x="364" y="392"/>
      <point x="202" y="310" type="curve"/>
      <point x="78" y="304" type="line"/>
      <point x="64" y="234" type="line"/>
      <point x="185" y="234" type="line"/>
    </contour>
    <contour>
      <point x="380" y="730" type="move" name="aboveUC"/>
    </contour>
    <contour>
      <point x="220" y="-20" type="move" name="belowLC"/>
    </contour>
  </outline>
</glyph>
<glyph name="glottalstopstrokereversed" format="1">
  <advance width="600"/>
  <outline>
    <contour>
      <point x="178" y="0" type="line"/>
      <point x="338" y="0" type="line"/>
      <point x="385" y="234" type="line"/>
      <point x="508" y="234" type="line"/>
      <point x="524" y="310" type="line"/>
      <point x="384" y="310" type="line"/>
      <point x="310" y="372"/>
      <point x="272" y="417"/>
      <point x="272" y="490" type="curve" smooth="yes"/>
      <point x="272" y="540"/>
      <point x="308" y="582"/>
      <point x="366" y="582" type="curve" smooth="yes"/>
      <point x="428" y="582"/>
      <point x="466" y="560"/>
      <point x="510" y="514" type="curve"/>
      <point x="598" y="604" type="line"/>
      <point x="552" y="664"/>
      <point x="479" y="708"/>
      <point x="364" y="708" type="curve" smooth="yes"/>
      <point x="223" y="708"/>
      <point x="106" y="614"/>
      <point x="106" y="472" type="curve" smooth="yes"/>
      <point x="106" y="414"/>
      <point x="134" y="360"/>
      <point x="190" y="310" type="curve"/>
      <point x="78" y="304" type="line"/>
      <point x="64" y="234" type="line"/>
      <point x="225" y="234" type="line"/>
    </contour>
    <contour>
      <point x="380" y="730" type="move" name="aboveUC"/>
    </contour>
    <contour>
      <point x="250" y="-20" type="move" name="belowLC"/>
    </contour>
  </outline>
</glyph>
<glyph name="gravecmb.cap" format="1">
  <advance width="600"/>
  <outline>
    <contour>
      <point x="398" y="670" type="line"/>
      <point x="488" y="748" type="line"/>
      <point x="332" y="907" type="line"/>
      <point x="223" y="806" type="line"/>
    </contour>
    <contour>
      <point x="370" y="670" type="move" name="_aboveUC"/>
    </contour>
  </outline>
</glyph>
<glyph name="heavyleftbxd" format="1">
	<advance width="600"/>
	<outline>
		<contour>
			<point x="-80" y="140" type="line"/>
			<point x="380" y="140" type="line"/>
			<point x="380" y="460" type="line"/>
			<point x="-80" y="460" type="line"/>
		</contour>
	</outline>
</glyph>
<glyph name="heavyrightbxd" format="1">
	<advance width="600"/>
	<outline>
		<contour>
			<point x="220" y="140" type="line"/>
			<point x="680" y="140" type="line"/>
			<point x="680" y="460" type="line"/>
			<point x="220" y="460" type="line"/>
		</contour>
	</outline>
</glyph>
<glyph name="henghook" format="1">
  <advance width="600"/>
  <outline>
    <contour>
      <point x="280" y="-188" type="curve" smooth="yes"/>
      <point x="404" y="-188"/>
      <point x="459" y="-104"/>
      <point x="480" y="0" type="curve" smooth="yes"/>
      <point x="538" y="290" type="line" smooth="yes"/>
      <point x="543" y="314"/>
      <point x="546" y="340"/>
      <point x="546" y="362" type="curve" smooth="yes"/>
      <point x="546" y="448"/>
      <point x="498" y="492"/>
      <point x="416" y="492" type="curve" smooth="yes"/>
      <point x="355" y="492"/>
      <point x="290" y="454"/>
      <point x="244" y="404" type="curve"/>
      <point x="240" y="404" type="line"/>
      <point x="266" y="492" type="line"/>
      <point x="284" y="556"/>
      <point x="316" y="574"/>
      <point x="368" y="574" type="curve" smooth="yes"/>
      <point x="390" y="574"/>
      <point x="410" y="570"/>
      <point x="432" y="560" type="curve"/>
      <point x="486" y="686" type="line"/>
      <point x="458" y="698"/>
      <point x="422" y="708"/>
      <point x="369" y="708" type="curve" smooth="yes"/>
      <point x="202" y="708"/>
      <point x="130" y="606"/>
      <point x="106" y="486" type="curve" smooth="yes"/>
      <point x="8" y="0" type="line"/>
      <point x="168" y="0" type="line"/>
      <point x="222" y="278" type="line"/>
      <point x="261" y="330"/>
      <point x="307" y="356"/>
      <point x="340" y="356" type="curve" smooth="yes"/>
      <point x="366" y="356"/>
      <point x="381" y="343"/>
      <point x="381" y="315" type="curve" smooth="yes"/>
      <point x="381" y="303"/>
      <point x="377" y="288"/>
      <point x="374" y="270" type="curve" smooth="yes"/>
      <point x="322" y="8" type="line" smooth="yes"/>
      <point x="312" y="-44"/>
      <point x="298" y="-62"/>
      <point x="266" y="-62" type="curve" smooth="yes"/>
      <point x="252" y="-62"/>
      <point x="238" y="-58"/>
      <point x="224" y="-50" type="curve"/>
      <point x="176" y="-164" type="line"/>
      <point x="212" y="-182"/>
      <point x="244" y="-188"/>
    </contour>
    <contour>
      <point x="380" y="730" type="move" name="aboveUC"/>
    </contour>
  </outline>
</glyph>
<glyph name="hoicmb.cap" format="1">
  <advance width="600"/>
  <outline>
    <contour>
      <point x="312" y="688" type="line"/>
      <point x="395" y="692"/>
      <point x="469" y="724"/>
      <point x="483" y="796" type="curve" smooth="yes"/>
      <point x="494" y="850"/>
      <point x="459" y="888"/>
      <point x="322" y="892" type="curve"/>
      <point x="285" y="808" type="line"/>
      <point x="343" y="804"/>
      <point x="361" y="794"/>
      <point x="358" y="778" type="curve" smooth="yes"/>
      <point x="355" y="762"/>
      <point x="336" y="757"/>
      <point x="313" y="754" type="curve"/>
    </contour>
    <contour>
      <point x="370" y="670" type="move" name="_aboveUC"/>
    </contour>
  </outline>
</glyph>
<glyph name="hoicmb" format="1">
  <advance width="600"/>
  <outline>
    <contour>
      <point x="299" y="566" type="line"/>
      <point x="381" y="570"/>
      <point x="458" y="602"/>
      <point x="472" y="674" type="curve" smooth="yes"/>
      <point x="486" y="748"/>
      <point x="451" y="802"/>
      <point x="305" y="806" type="curve"/>
      <point x="275" y="702" type="line"/>
      <point x="332" y="698"/>
      <point x="350" y="684"/>
      <point x="345" y="662" type="curve" smooth="yes"/>
      <point x="341" y="642"/>
      <point x="322" y="635"/>
      <point x="300" y="632" type="curve"/>
    </contour>
    <contour>
      <point x="340" y="520" type="move" name="_aboveLC"/>
    </contour>
    <contour>
      <point x="400" y="820" type="move" name="aboveLC"/>
    </contour>
  </outline>
</glyph>
<glyph name="horncmb" format="1">
  <advance width="600"/>
  <outline>
    <contour>
      <point x="327" y="426" type="line"/>
      <point x="434" y="431"/>
      <point x="530" y="477"/>
      <point x="530" y="579" type="curve" smooth="yes"/>
      <point x="530" y="604"/>
      <point x="522" y="629"/>
      <point x="514" y="642" type="curve"/>
      <point x="398" y="596" type="line"/>
      <point x="402" y="587"/>
      <point x="405" y="574"/>
      <point x="405" y="560" type="curve" smooth="yes"/>
      <point x="405" y="511"/>
      <point x="373" y="496"/>
      <point x="327" y="488" type="curve"/>
    </contour>
    <contour>
      <point x="240" y="500" type="move" name="_hornLC"/>
    </contour>
  </outline>
</glyph>
<glyph name="hsmall" format="1">
  <advance width="600"/>
  <outline>
    <contour>
      <point x="10" y="1" type="line"/>
      <point x="170" y="1" type="line"/>
      <point x="206" y="185" type="line"/>
      <point x="345" y="185" type="line"/>
      <point x="308" y="1" type="line"/>
      <point x="468" y="1" type="line"/>
      <point x="566" y="501" type="line"/>
      <point x="406" y="501" type="line"/>
      <point x="372" y="323" type="line"/>
      <point x="234" y="323" type="line"/>
      <point x="268" y="501" type="line"/>
      <point x="108" y="501" type="line"/>
    </contour>
    <contour>
      <point x="330" y="520" type="move" name="aboveLC"/>
    </contour>
    <contour>
      <point x="234" y="-20" type="move" name="belowLC"/>
    </contour>
  </outline>
</glyph>
<glyph name="i" format="1">
	<advance width="600"/>
	<outline>
		<component base="dotlessi"/>
		<component base="dotaccentcmb" xOffset="-20"/>
		<contour>
			<point name="aboveUC" x="360" y="770" type="move"/>
		</contour>
		<contour>
			<point name="baseLC" x="336" y="0" type="move"/>
		</contour>
		<contour>
			<point name="belowLC" x="304" y="-20" type="move"/>
		</contour>
		<contour>
			<point name="ogonekLC" x="336" y="0" type="move"/>
		</contour>
	</outline>
</glyph>
<glyph name="ijacute" format="1">
  <advance width="600"/>
  <outline>
    <contour>
      <point x="4" y="0" type="line"/>
      <point x="164" y="0" type="line"/>
      <point x="264" y="500" type="line"/>
      <point x="104" y="500" type="line"/>
    </contour>
    <contour>
      <point x="272" y="-188" type="curve" smooth="yes"/>
      <point x="396" y="-188"/>
      <point x="450" y="-102"/>
      <point x="472" y="2" type="curve" smooth="yes"/>
      <point x="572" y="500" type="line"/>
      <point x="412" y="500" type="line"/>
      <point x="314" y="10" type="line" smooth="yes"/>
      <point x="302" y="-42"/>
      <point x="290" y="-62"/>
      <point x="258" y="-62" type="curve" smooth="yes"/>
      <point x="244" y="-62"/>
      <point x="230" y="-58"/>
      <point x="216" y="-50" type="curve"/>
      <point x="168" y="-164" type="line"/>
      <point x="204" y="-182"/>
      <point x="236" y="-188"/>
    </contour>
    <component base="acutecmb" xOffset="-164"/>
    <component base="acutecmb" xOffset="143"/>
  </outline>
</glyph>
<glyph name="intersection" format="1">
	<advance width="600"/>
	<outline>
		<contour>
			<point x="68" y="92" type="line"/>
			<point x="185" y="92" type="line"/>
			<point x="185" y="333" type="line" smooth="yes"/>
			<point x="185" y="420"/>
			<point x="230" y="467"/>
			<point x="300" y="467" type="curve" smooth="yes"/>
			<point x="370" y="467"/>
			<point x="415" y="420"/>
			<point x="415" y="333" type="curve" smooth="yes"/>
			<point x="415" y="92" type="line"/>
			<point x="532" y="92" type="line"/>
			<point x="532" y="345" type="line" smooth="yes"/>
			<point x="532" y="488"/>
			<point x="434" y="582"/>
			<point x="300" y="582" type="curve" smooth="yes"/>
			<point x="166" y="582"/>
			<point x="68" y="488"/>
			<point x="68" y="345" type="curve" smooth="yes"/>
		</contour>
	</outline>
</glyph>
<glyph name="invsmileface" format="1">
  <advance width="600"/>
  <outline>
    <contour>
      <point x="300" y="46" type="curve" smooth="yes"/>
      <point x="471" y="46"/>
      <point x="588" y="163"/>
      <point x="588" y="330" type="curve" smooth="yes"/>
      <point x="588" y="497"/>
      <point x="471" y="614"/>
      <point x="300" y="614" type="curve" smooth="yes"/>
      <point x="129" y="614"/>
      <point x="12" y="497"/>
      <point x="12" y="330" type="curve" smooth="yes"/>
      <point x="12" y="163"/>
      <point x="129" y="46"/>
    </contour>
    <contour>
      <point x="207" y="345" type="curve" smooth="yes"/>
      <point x="168" y="345"/>
      <point x="142" y="374"/>
      <point x="142" y="414" type="curve" smooth="yes"/>
      <point x="142" y="453"/>
      <point x="168" y="483"/>
      <point x="207" y="483" type="curve" smooth="yes"/>
      <point x="246" y="483"/>
      <point x="271" y="453"/>
      <point x="271" y="414" type="curve" smooth="yes"/>
      <point x="271" y="374"/>
      <point x="246" y="345"/>
    </contour>
    <contour>
      <point x="393" y="345" type="curve" smooth="yes"/>
      <point x="354" y="345"/>
      <point x="329" y="374"/>
      <point x="329" y="414" type="curve" smooth="yes"/>
      <point x="329" y="453"/>
      <point x="354" y="483"/>
      <point x="393" y="483" type="curve" smooth="yes"/>
      <point x="432" y="483"/>
      <point x="458" y="453"/>
      <point x="458" y="414" type="curve" smooth="yes"/>
      <point x="458" y="374"/>
      <point x="432" y="345"/>
    </contour>
    <contour>
      <point x="300" y="142" type="curve" smooth="yes"/>
      <point x="207" y="142"/>
      <point x="152" y="188"/>
      <point x="136" y="262" type="curve"/>
      <point x="186" y="283" type="line"/>
      <point x="204" y="244"/>
      <point x="243" y="220"/>
      <point x="300" y="220" type="curve" smooth="yes"/>
      <point x="357" y="220"/>
      <point x="396" y="244"/>
      <point x="414" y="283" type="curve"/>
      <point x="464" y="262" type="line"/>
      <point x="448" y="188"/>
      <point x="393" y="142"/>
    </contour>
  </outline>
</glyph>
<glyph name="jcrossedtail.d" format="1">
  <advance width="600"/>
  <outline>
    <contour>
      <point x="336" y="-220" type="curve"/>
      <point x="474" y="-162" type="line"/>
      <point x="436" y="28"/>
      <point x="280.0" y="120.0"/>
      <point x="184" y="120" type="curve" smooth="yes"/>
      <point x="72" y="120"/>
      <point x="6" y="52"/>
      <point x="6" y="-50" type="curve" smooth="yes"/>
      <point x="6" y="-132"/>
      <point x="74" y="-188"/>
      <point x="166" y="-188" type="curve" smooth="yes"/>
      <point x="286" y="-188"/>
      <point x="372.319490994" y="-85.8442730935"/>
      <point x="398" y="42" type="curve" smooth="yes"/>
      <point x="490" y="500" type="line"/>
      <point x="136" y="500" type="line"/>
      <point x="110" y="376" type="line"/>
      <point x="306" y="376" type="line"/>
      <point x="230" y="0" type="line" smooth="yes"/>
      <point x="222" y="-40"/>
      <point x="198" y="-62"/>
      <point x="170" y="-62" type="curve" smooth="yes"/>
      <point x="142" y="-62"/>
      <point x="130" y="-50"/>
      <point x="130" y="-32" type="curve" smooth="yes"/>
      <point x="130" y="-8"/>
      <point x="146" y="8"/>
      <point x="174" y="8" type="curve" smooth="yes"/>
      <point x="240.0" y="8.0"/>
      <point x="312" y="-76"/>
    </contour>
    <contour>
      <point x="398.0" y="520.0" type="move" name="aboveLC"/>
    </contour>
    <contour>
      <point x="170.0" y="-200.0" type="move" name="belowLC"/>
    </contour>
  </outline>
</glyph>
<glyph name="jcrossedtail" format="1">
  <advance width="600"/>
  <outline>
    <component base="jcrossedtail.d"/>
    <component base="dotaccentcmb" xOffset="58"/>
    <contour>
      <point x="170" y="-200" type="move" name="belowLC"/>
    </contour>
  </outline>
</glyph>
<glyph name="kturned" format="1">
  <advance width="600"/>
  <outline>
    <contour>
      <point x="274" y="-176" type="line"/>
      <point x="434" y="-176" type="line"/>
      <point x="570" y="500" type="line"/>
      <point x="410" y="500" type="line"/>
      <point x="388" y="386" type="line"/>
      <point x="234" y="254" type="line"/>
      <point x="-38" y="0" type="line"/>
      <point x="146" y="0" type="line"/>
      <point x="344" y="184" type="line"/>
      <point x="348" y="184" type="line"/>
    </contour>
    <contour>
      <point x="202" y="172" type="line"/>
      <point x="304" y="282" type="line"/>
      <point x="212" y="500" type="line"/>
      <point x="50" y="500" type="line"/>
    </contour>
    <contour>
      <point x="320" y="520" type="move" name="aboveLC"/>
    </contour>
    <contour>
      <point x="350" y="-200" type="move" name="belowLC"/>
    </contour>
  </outline>
</glyph>
<glyph name="l" format="1">
	<advance width="600"/>
	<outline>
		<contour>
			<point x="326" y="-12" type="curve" smooth="yes"/>
			<point x="384" y="-12"/>
			<point x="432" y="-4"/>
			<point x="486" y="20" type="curve"/>
			<point x="454" y="138" type="line"/>
			<point x="422" y="124"/>
			<point x="405" y="118"/>
			<point x="376" y="118" type="curve" smooth="yes"/>
			<point x="348" y="118"/>
			<point x="324" y="132"/>
			<point x="324" y="164" type="curve" smooth="yes"/>
			<point x="324" y="180"/>
			<point x="326" y="190"/>
			<point x="328" y="198" type="curve" smooth="yes"/>
			<point x="440" y="696" type="line"/>
			<point x="148" y="696" type="line"/>
			<point x="122" y="572" type="line"/>
			<point x="256" y="572" type="line"/>
			<point x="174" y="220" type="line" smooth="yes"/>
			<point x="168" y="196"/>
			<point x="166" y="174"/>
			<point x="166" y="154" type="curve" smooth="yes"/>
			<point x="166" y="50"/>
			<point x="232" y="-12"/>
		</contour>
		<contour>
			<point name="aboveUC" x="360" y="730" type="move"/>
		</contour>
		<contour>
			<point name="baseLC" x="318" y="0" type="move"/>
		</contour>
		<contour>
			<point name="belowLC" x="310" y="-20" type="move"/>
		</contour>
		<contour>
			<point name="center" x="284" y="360" type="move"/>
		</contour>
	</outline>
</glyph>
<glyph name="lbelt" format="1">
  <advance width="600"/>
  <outline>
    <contour>
      <point x="186" y="262" type="curve" smooth="yes"/>
      <point x="474" y="262" type="line"/>
      <point x="490" y="342" type="line"/>
      <point x="178" y="342" type="line" smooth="yes"/>
      <point x="144" y="342"/>
      <point x="130" y="356"/>
      <point x="130" y="372" type="curve" smooth="yes"/>
      <point x="130" y="388"/>
      <point x="140" y="400"/>
      <point x="158" y="400" type="curve" smooth="yes"/>
      <point x="196" y="400"/>
      <point x="206" y="360"/>
      <point x="202" y="342" type="curve"/>
      <point x="253" y="322" type="line"/>
      <point x="261" y="361"/>
      <point x="264" y="478"/>
      <point x="158" y="478" type="curve" smooth="yes"/>
      <point x="96" y="478"/>
      <point x="46" y="434"/>
      <point x="46" y="372" type="curve" smooth="yes"/>
      <point x="46" y="310"/>
      <point x="90" y="262"/>
    </contour>
    <component base="l"/>
    <contour>
      <point x="360" y="730" type="move" name="aboveUC"/>
    </contour>
    <contour>
      <point x="310" y="-20" type="move" name="belowLC"/>
    </contour>
  </outline>
</glyph>
<glyph name="lcat" format="1">
  <advance width="600"/>
  <outline>
    <contour>
      <point x="168" y="-12" type="curve" smooth="yes"/>
      <point x="206" y="-12"/>
      <point x="234" y="-8"/>
      <point x="272" y="8" type="curve"/>
      <point x="240" y="126" type="line"/>
      <point x="226" y="120"/>
      <point x="214" y="118"/>
      <point x="200" y="118" type="curve" smooth="yes"/>
      <point x="176" y="118"/>
      <point x="156" y="132"/>
      <point x="156" y="164" type="curve" smooth="yes"/>
      <point x="156" y="180"/>
      <point x="158" y="190"/>
      <point x="160" y="198" type="curve" smooth="yes"/>
      <point x="272" y="696" type="line"/>
      <point x="30" y="696" type="line"/>
      <point x="4" y="572" type="line"/>
      <point x="98" y="572" type="line"/>
      <point x="16" y="220" type="line" smooth="yes"/>
      <point x="10" y="196"/>
      <point x="8" y="174"/>
      <point x="8" y="144" type="curve" smooth="yes"/>
      <point x="8" y="50"/>
      <point x="74" y="-12"/>
    </contour>
    <contour>
      <point x="267" y="306" type="curve" smooth="yes"/>
      <point x="309" y="306"/>
      <point x="343" y="337"/>
      <point x="351" y="376" type="curve" smooth="yes"/>
      <point x="359" y="414"/>
      <point x="337" y="446"/>
      <point x="295" y="446" type="curve" smooth="yes"/>
      <point x="253" y="446"/>
      <point x="219" y="414"/>
      <point x="211" y="376" type="curve" smooth="yes"/>
      <point x="203" y="337"/>
      <point x="225" y="306"/>
    </contour>
    <contour>
      <point x="480" y="-12" type="curve" smooth="yes"/>
      <point x="518" y="-12"/>
      <point x="546" y="-8"/>
      <point x="584" y="8" type="curve"/>
      <point x="552" y="126" type="line"/>
      <point x="538" y="120"/>
      <point x="526" y="118"/>
      <point x="512" y="118" type="curve" smooth="yes"/>
      <point x="488" y="118"/>
      <point x="468" y="132"/>
      <point x="468" y="164" type="curve" smooth="yes"/>
      <point x="468" y="180"/>
      <point x="470" y="190"/>
      <point x="472" y="198" type="curve" smooth="yes"/>
      <point x="584" y="696" type="line"/>
      <point x="342" y="696" type="line"/>
      <point x="316" y="572" type="line"/>
      <point x="410" y="572" type="line"/>
      <point x="328" y="220" type="line" smooth="yes"/>
      <point x="322" y="196"/>
      <point x="320" y="174"/>
      <point x="320" y="144" type="curve" smooth="yes"/>
      <point x="320" y="50"/>
      <point x="386" y="-12"/>
    </contour>
  </outline>
</glyph>
<glyph name="leftangleabovecmb" format="1">
	<advance width="600"/>
	<outline>
		<contour>
			<point x="380" y="574" type="line"/>
			<point x="465" y="574" type="line"/>
			<point x="495" y="728" type="line"/>
			<point x="307" y="728" type="line"/>
			<point x="291" y="648" type="line"/>
			<point x="395" y="648" type="line"/>
		</contour>
		<contour>
			<point name="_aboverightLC" x="354" y="520" type="move"/>
		</contour>
	</outline>
</glyph>
<glyph name="lenistildecmb" format="1">
  <advance width="600"/>
  <outline>
    <contour>
      <point x="440" y="730" type="curve" smooth="yes"/>
      <point x="494" y="730"/>
      <point x="540" y="764"/>
      <point x="565" y="850" type="curve"/>
      <point x="484" y="858" type="line"/>
      <point x="473" y="832"/>
      <point x="462" y="822"/>
      <point x="448" y="822" type="curve" smooth="yes"/>
      <point x="423" y="822"/>
      <point x="411" y="864"/>
      <point x="359" y="864" type="curve" smooth="yes"/>
      <point x="304" y="864"/>
      <point x="259" y="830"/>
      <point x="233" y="744" type="curve"/>
      <point x="314" y="736" type="line"/>
      <point x="325" y="762"/>
      <point x="337" y="772"/>
      <point x="350" y="772" type="curve" smooth="yes"/>
      <point x="375" y="772"/>
      <point x="388" y="730"/>
    </contour>
    <contour>
      <point x="316" y="563" type="line"/>
      <point x="385" y="570"/>
      <point x="443" y="594"/>
      <point x="454" y="647" type="curve" smooth="yes"/>
      <point x="462" y="687"/>
      <point x="432" y="711"/>
      <point x="316" y="715" type="curve"/>
      <point x="287" y="649" type="line"/>
      <point x="335" y="645"/>
      <point x="347" y="639"/>
      <point x="345" y="629" type="curve" smooth="yes"/>
      <point x="343" y="620"/>
      <point x="333" y="617"/>
      <point x="317" y="615" type="curve"/>
    </contour>
    <contour>
      <point x="340" y="520" type="move" name="_aboveLC"/>
    </contour>
  </outline>
</glyph>
<glyph name="lozenge" format="1">
  <advance width="600"/>
  <outline>
    <contour>
      <point x="236" y="-10" type="line"/>
      <point x="364" y="-10" type="line"/>
      <point x="526" y="330" type="line"/>
      <point x="364" y="670" type="line"/>
      <point x="236" y="670" type="line"/>
      <point x="74" y="330" type="line"/>
    </contour>
    <contour>
      <point x="298" y="125" type="line"/>
      <point x="246" y="243" type="line"/>
      <point x="205" y="330" type="line"/>
      <point x="246" y="417" type="line"/>
      <point x="298" y="535" type="line"/>
      <point x="302" y="535" type="line"/>
      <point x="354" y="417" type="line"/>
      <point x="395" y="330" type="line"/>
      <point x="354" y="243" type="line"/>
      <point x="302" y="125" type="line"/>
    </contour>
  </outline>
</glyph>
<glyph name="lsmall" format="1">
  <advance width="600"/>
  <outline>
    <contour>
      <point x="66" y="0" type="line"/>
      <point x="482" y="0" type="line"/>
      <point x="508" y="124" type="line"/>
      <point x="250" y="124" type="line"/>
      <point x="324" y="500" type="line"/>
      <point x="164" y="500" type="line"/>
    </contour>
    <contour>
      <point x="240" y="520" type="move" name="aboveLC"/>
    </contour>
    <contour>
      <point x="290" y="-20" type="move" name="belowLC"/>
    </contour>
  </outline>
</glyph>
<glyph name="macronacutecmb.cap" format="1">
  <advance width="600"/>
  <outline>
    <contour>
      <point x="232" y="716" type="line"/>
      <point x="532" y="716" type="line"/>
      <point x="552" y="818" type="line"/>
      <point x="252" y="818" type="line"/>
    </contour>
    <contour>
      <point x="424" y="829" type="line"/>
      <point x="575" y="951" type="line"/>
      <point x="481" y="1023" type="line"/>
      <point x="358" y="879" type="line"/>
    </contour>
    <contour>
      <point x="370" y="670" type="move" name="_aboveUC"/>
    </contour>
  </outline>
</glyph>
<glyph name="macronacutecmb" format="1">
  <advance width="600"/>
  <outline>
    <contour>
      <point x="210" y="590" type="line"/>
      <point x="504" y="590" type="line"/>
      <point x="524" y="690" type="line"/>
      <point x="230" y="690" type="line"/>
    </contour>
    <contour>
      <point x="396" y="719" type="line"/>
      <point x="519" y="830" type="line"/>
      <point x="440" y="896" type="line"/>
      <point x="340" y="764" type="line"/>
    </contour>
    <contour>
      <point x="340" y="520" type="move" name="_aboveLC"/>
    </contour>
  </outline>
</glyph>
<glyph name="macroncmb.cap" format="1">
  <advance width="600"/>
  <outline>
    <contour>
      <point x="232" y="716" type="line"/>
      <point x="532" y="716" type="line"/>
      <point x="552" y="818" type="line"/>
      <point x="252" y="818" type="line"/>
    </contour>
    <contour>
      <point x="370" y="670" type="move" name="_aboveUC"/>
    </contour>
  </outline>
</glyph>
<glyph name="macroncmb" format="1">
  <advance width="600"/>
  <outline>
    <contour>
      <point x="210" y="590" type="line"/>
      <point x="504" y="590" type="line"/>
      <point x="524" y="690" type="line"/>
      <point x="230" y="690" type="line"/>
    </contour>
    <contour>
      <point x="340" y="520" type="move" name="_aboveLC"/>
    </contour>
    <contour>
      <point x="300" y="520" type="move" name="aboveLC"/>
    </contour>
  </outline>
</glyph>
<glyph name="macrondoublebelowcmb" format="1">
	<advance width="600"/>
	<outline>
		<contour>
			<point x="-307" y="-188" type="line"/>
			<point x="707" y="-188" type="line"/>
			<point x="727" y="-88" type="line"/>
			<point x="-287" y="-88" type="line"/>
		</contour>
	</outline>
</glyph>
<glyph name="n.sups" format="1">
  <advance width="600"/>
  <outline>
    <contour>
      <point x="156" y="368" type="line"/>
      <point x="266" y="368" type="line"/>
      <point x="310" y="586" type="line"/>
      <point x="327" y="600"/>
      <point x="349" y="613"/>
      <point x="375" y="613" type="curve" smooth="yes"/>
      <point x="401" y="613"/>
      <point x="408" y="596"/>
      <point x="401" y="560" type="curve" smooth="yes"/>
      <point x="363" y="368" type="line"/>
      <point x="473" y="368" type="line"/>
      <point x="514" y="574" type="line" smooth="yes"/>
      <point x="531" y="657"/>
      <point x="504" y="706"/>
      <point x="438" y="706" type="curve" smooth="yes"/>
      <point x="385" y="706"/>
      <point x="346" y="681"/>
      <point x="314" y="656" type="curve"/>
      <point x="311" y="656" type="line"/>
      <point x="311" y="698" type="line"/>
      <point x="222" y="698" type="line"/>
    </contour>
  </outline>
</glyph>
<glyph name="nhookleft" format="1">
  <advance width="600"/>
  <outline>
    <contour>
      <point x="-32" y="-188" type="curve" smooth="yes"/>
      <point x="96" y="-188"/>
      <point x="148" y="-106"/>
      <point x="168" y="-4" type="curve" smooth="yes"/>
      <point x="226" y="298" type="line"/>
      <point x="265" y="350"/>
      <point x="311" y="376"/>
      <point x="344" y="376" type="curve" smooth="yes"/>
      <point x="370" y="376"/>
      <point x="385" y="363"/>
      <point x="385" y="335" type="curve" smooth="yes"/>
      <point x="385" y="323"/>
      <point x="382" y="308"/>
      <point x="378" y="290" type="curve" smooth="yes"/>
      <point x="320" y="0" type="line"/>
      <point x="480" y="0" type="line"/>
      <point x="542" y="310" type="line" smooth="yes"/>
      <point x="547" y="334"/>
      <point x="550" y="360"/>
      <point x="550" y="382" type="curve" smooth="yes"/>
      <point x="550" y="468"/>
      <point x="502" y="512"/>
      <point x="420" y="512" type="curve" smooth="yes"/>
      <point x="356" y="512"/>
      <point x="282" y="466"/>
      <point x="236" y="420" type="curve"/>
      <point x="232" y="420" type="line"/>
      <point x="235" y="500" type="line"/>
      <point x="106" y="500" type="line"/>
      <point x="6" y="-10" type="line" smooth="yes"/>
      <point x="0" y="-40"/>
      <point x="-10" y="-54"/>
      <point x="-33" y="-54" type="curve" smooth="yes"/>
      <point x="-41" y="-54"/>
      <point x="-47" y="-52"/>
      <point x="-56" y="-48" type="curve"/>
      <point x="-111" y="-174" type="line"/>
      <point x="-94" y="-182"/>
      <point x="-73" y="-188"/>
    </contour>
    <contour>
      <point x="354" y="520" type="move" name="aboveLC"/>
    </contour>
  </outline>
</glyph>
<glyph name="nine.dnom" format="1">
  <advance width="600"/>
  <outline>
    <contour>
      <point x="237" y="-12" type="curve" smooth="yes"/>
      <point x="343" y="-12"/>
      <point x="416" y="67"/>
      <point x="416" y="182" type="curve" smooth="yes"/>
      <point x="416" y="272"/>
      <point x="372" y="325"/>
      <point x="286" y="325" type="curve"/>
      <point x="207" y="325"/>
      <point x="141" y="272"/>
      <point x="141" y="201" type="curve" smooth="yes"/>
      <point x="141" y="143"/>
      <point x="183" y="114"/>
      <point x="230" y="114" type="curve"/>
      <point x="270" y="114"/>
      <point x="301" y="128"/>
      <point x="321" y="154" type="curve"/>
      <point x="321" y="204" type="line"/>
      <point x="305" y="189"/>
      <point x="291" y="182"/>
      <point x="273" y="182" type="curve" smooth="yes"/>
      <point x="255" y="182"/>
      <point x="243" y="193"/>
      <point x="243" y="210" type="curve" smooth="yes"/>
      <point x="243" y="229"/>
      <point x="258" y="246"/>
      <point x="281" y="246" type="curve" smooth="yes"/>
      <point x="302" y="246"/>
      <point x="316" y="232"/>
      <point x="316" y="195" type="curve" smooth="yes"/>
      <point x="316" y="118"/>
      <point x="290" y="69"/>
      <point x="227" y="69" type="curve" smooth="yes"/>
      <point x="195" y="69"/>
      <point x="176" y="80"/>
      <point x="155" y="98" type="curve"/>
      <point x="108" y="33" type="line"/>
      <point x="135" y="8"/>
      <point x="174" y="-12"/>
    </contour>
  </outline>
</glyph>
<glyph name="nine" format="1">
	<advance width="600"/>
	<outline>
		<contour>
			<point x="204" y="-12" type="curve" smooth="yes"/>
			<point x="406" y="-12"/>
			<point x="550" y="156"/>
			<point x="550" y="416" type="curve" smooth="yes"/>
			<point x="550" y="553"/>
			<point x="462" y="646"/>
			<point x="324" y="646" type="curve" smooth="yes"/>
			<point x="177" y="646"/>
			<point x="74" y="524"/>
			<point x="74" y="400" type="curve" smooth="yes"/>
			<point x="74" y="284"/>
			<point x="154" y="234"/>
			<point x="252" y="234" type="curve" smooth="yes"/>
			<point x="290" y="234"/>
			<point x="356" y="254"/>
			<point x="393" y="294" type="curve"/>
			<point x="408" y="406" type="line"/>
			<point x="368" y="354"/>
			<point x="328" y="342"/>
			<point x="296" y="342" type="curve" smooth="yes"/>
			<point x="246" y="342"/>
			<point x="220" y="368"/>
			<point x="220" y="413" type="curve" smooth="yes"/>
			<point x="220" y="460"/>
			<point x="248" y="528"/>
			<point x="316" y="528" type="curve" smooth="yes"/>
			<point x="366" y="528"/>
			<point x="402" y="496"/>
			<point x="402" y="432" type="curve" smooth="yes"/>
			<point x="402" y="212"/>
			<point x="314" y="116"/>
			<point x="214" y="116" type="curve" smooth="yes"/>
			<point x="170" y="116"/>
			<point x="142" y="132"/>
			<point x="120" y="162" type="curve"/>
			<point x="20" y="78" type="line"/>
			<point x="50" y="38"/>
			<point x="110" y="-12"/>
		</contour>
	</outline>
</glyph>
<glyph name="nretroflex" format="1">
  <advance width="600"/>
  <outline>
    <contour>
      <point x="424" y="-188" type="curve" smooth="yes"/>
      <point x="470" y="-188"/>
      <point x="498" y="-180"/>
      <point x="516" y="-174" type="curve"/>
      <point x="522" y="-56" type="line"/>
      <point x="514" y="-58"/>
      <point x="508" y="-60"/>
      <point x="500" y="-60" type="curve" smooth="yes"/>
      <point x="486" y="-60"/>
      <point x="474" y="-54"/>
      <point x="474" y="-35" type="curve" smooth="yes"/>
      <point x="474" y="-30"/>
      <point x="474" y="-26"/>
      <point x="476" y="-16" type="curve" smooth="yes"/>
      <point x="542" y="310" type="line" smooth="yes"/>
      <point x="547" y="334"/>
      <point x="550" y="360"/>
      <point x="550" y="382" type="curve" smooth="yes"/>
      <point x="550" y="468"/>
      <point x="502" y="512"/>
      <point x="420" y="512" type="curve" smooth="yes"/>
      <point x="356" y="512"/>
      <point x="282" y="466"/>
      <point x="236" y="420" type="curve"/>
      <point x="232" y="420" type="line"/>
      <point x="235" y="500" type="line"/>
      <point x="106" y="500" type="line"/>
      <point x="8" y="0" type="line"/>
      <point x="168" y="0" type="line"/>
      <point x="226" y="298" type="line"/>
      <point x="265" y="350"/>
      <point x="311" y="376"/>
      <point x="344" y="376" type="curve" smooth="yes"/>
      <point x="370" y="376"/>
      <point x="385" y="363"/>
      <point x="385" y="335" type="curve" smooth="yes"/>
      <point x="385" y="323"/>
      <point x="382" y="308"/>
      <point x="378" y="290" type="curve" smooth="yes"/>
      <point x="318" y="-10" type="line" smooth="yes"/>
      <point x="312" y="-38"/>
      <point x="310" y="-58"/>
      <point x="310" y="-78" type="curve" smooth="yes"/>
      <point x="310" y="-146"/>
      <point x="342" y="-188"/>
    </contour>
    <contour>
      <point x="354" y="520" type="move" name="aboveLC"/>
    </contour>
  </outline>
</glyph>
<glyph name="numero" format="1">
  <advance width="600"/>
  <outline>
    <contour>
      <point x="-58" y="-12" type="curve" smooth="yes"/>
      <point x="15" y="-12"/>
      <point x="57" y="40"/>
      <point x="75" y="132" type="curve" smooth="yes"/>
      <point x="85" y="184" type="line" smooth="yes"/>
      <point x="95" y="237"/>
      <point x="107" y="334"/>
      <point x="115" y="452" type="curve"/>
      <point x="119" y="452" type="line"/>
      <point x="123" y="354" type="line" smooth="yes"/>
      <point x="138" y="0" type="line"/>
      <point x="289" y="0" type="line"/>
      <point x="383" y="472" type="line" smooth="yes"/>
      <point x="391" y="510"/>
      <point x="400" y="518"/>
      <point x="421" y="518" type="curve"/>
      <point x="437" y="642" type="line"/>
      <point x="425" y="645"/>
      <point x="412" y="646"/>
      <point x="400" y="646" type="curve" smooth="yes"/>
      <point x="327" y="646"/>
      <point x="285" y="594"/>
      <point x="267" y="502" type="curve" smooth="yes"/>
      <point x="257" y="450" type="line" smooth="yes"/>
      <point x="247" y="397"/>
      <point x="235" y="300"/>
      <point x="227" y="182" type="curve"/>
      <point x="223" y="182" type="line"/>
      <point x="219" y="280" type="line" smooth="yes"/>
      <point x="204" y="634" type="line"/>
      <point x="53" y="634" type="line"/>
      <point x="-41" y="162" type="line" smooth="yes"/>
      <point x="-49" y="124"/>
      <point x="-58" y="116"/>
      <point x="-79" y="116" type="curve"/>
      <point x="-95" y="-8" type="line"/>
      <point x="-83" y="-11"/>
      <point x="-70" y="-12"/>
    </contour>
    <contour>
      <point x="501" y="266" type="curve" smooth="yes"/>
      <point x="595" y="266"/>
      <point x="665" y="366"/>
      <point x="665" y="492" type="curve" smooth="yes"/>
      <point x="665" y="572"/>
      <point x="623" y="606"/>
      <point x="569" y="606" type="curve" smooth="yes"/>
      <point x="475" y="606"/>
      <point x="405" y="506"/>
      <point x="405" y="380" type="curve" smooth="yes"/>
      <point x="405" y="300"/>
      <point x="447" y="266"/>
    </contour>
    <contour>
      <point x="523" y="360" type="curve" smooth="yes"/>
      <point x="508" y="360"/>
      <point x="501" y="367"/>
      <point x="501" y="394" type="curve" smooth="yes"/>
      <point x="501" y="447"/>
      <point x="523" y="512"/>
      <point x="547" y="512" type="curve" smooth="yes"/>
      <point x="562" y="512"/>
      <point x="569" y="505"/>
      <point x="569" y="478" type="curve" smooth="yes"/>
      <point x="569" y="424"/>
      <point x="547" y="360"/>
    </contour>
    <contour>
      <point x="387" y="142" type="line"/>
      <point x="567" y="142" type="line"/>
      <point x="583" y="226" type="line"/>
      <point x="403" y="226" type="line"/>
    </contour>
  </outline>
</glyph>
<glyph name="one.cap" format="1">
	<advance width="600"/>
	<outline>
		<contour>
			<point x="14" y="0" type="line"/>
			<point x="482" y="0" type="line"/>
			<point x="508" y="128" type="line"/>
			<point x="368" y="128" type="line"/>
			<point x="472" y="650" type="line"/>
			<point x="354" y="650" type="line"/>
			<point x="303" y="619"/>
			<point x="248" y="602"/>
			<point x="160" y="590" type="curve"/>
			<point x="140" y="490" type="line"/>
			<point x="280" y="490" type="line"/>
			<point x="208" y="128" type="line"/>
			<point x="40" y="128" type="line"/>
		</contour>
	</outline>
</glyph>
<glyph name="one.onum" format="1">
  <advance width="600"/>
  <outline>
    <contour>
      <point x="18" y="0" type="line"/>
      <point x="476" y="0" type="line"/>
      <point x="502" y="128" type="line"/>
      <point x="362" y="128" type="line"/>
      <point x="452" y="580" type="line"/>
      <point x="334" y="580" type="line"/>
      <point x="284" y="550"/>
      <point x="224" y="532"/>
      <point x="150" y="520" type="curve"/>
      <point x="130" y="420" type="line"/>
      <point x="260" y="420" type="line"/>
      <point x="202" y="128" type="line"/>
      <point x="44" y="128" type="line"/>
    </contour>
  </outline>
</glyph>
<glyph name="oopen" format="1">
  <advance width="600"/>
  <outline>
    <contour>
      <point x="222" y="-12" type="curve" smooth="yes"/>
      <point x="390" y="-12"/>
      <point x="528" y="110"/>
      <point x="528" y="294" type="curve" smooth="yes"/>
      <point x="528" y="440"/>
      <point x="416" y="512"/>
      <point x="286" y="512" type="curve" smooth="yes"/>
      <point x="206" y="512"/>
      <point x="142" y="484"/>
      <point x="93" y="438" type="curve"/>
      <point x="148" y="330" type="line"/>
      <point x="184" y="359"/>
      <point x="215" y="382"/>
      <point x="262" y="382" type="curve" smooth="yes"/>
      <point x="316" y="382"/>
      <point x="366" y="350"/>
      <point x="366" y="280" type="curve" smooth="yes"/>
      <point x="366" y="188"/>
      <point x="304" y="118"/>
      <point x="232" y="118" type="curve" smooth="yes"/>
      <point x="194" y="118"/>
      <point x="156" y="134"/>
      <point x="124" y="168" type="curve"/>
      <point x="28" y="80" type="line"/>
      <point x="64" y="34"/>
      <point x="132" y="-12"/>
    </contour>
    <contour>
      <point x="330.0" y="520.0" type="move" name="aboveLC"/>
    </contour>
    <contour>
      <point x="250.0" y="0.0" type="move" name="baseLC"/>
    </contour>
    <contour>
      <point x="234.0" y="-20.0" type="move" name="belowLC"/>
    </contour>
  </outline>
</glyph>
<glyph name="overline" format="1">
	<advance width="600"/>
	<outline>
		<contour>
			<point x="120" y="590" type="line"/>
			<point x="594" y="590" type="line"/>
			<point x="610" y="672" type="line"/>
			<point x="136" y="672" type="line"/>
		</contour>
	</outline>
</glyph>
<glyph name="parenleft.dnom" format="1">
  <advance width="600"/>
  <outline>
    <contour>
      <point x="246" y="-101" type="curve"/>
      <point x="337" y="-45" type="line"/>
      <point x="307" y="3"/>
      <point x="290" y="57"/>
      <point x="290" y="112" type="curve" smooth="yes"/>
      <point x="290" y="209"/>
      <point x="332" y="283"/>
      <point x="418" y="360" type="curve"/>
      <point x="347" y="427" type="line"/>
      <point x="236" y="340"/>
      <point x="178" y="228"/>
      <point x="178" y="97" type="curve" smooth="yes"/>
      <point x="178" y="22"/>
      <point x="205" y="-47"/>
    </contour>
  </outline>
</glyph>
<glyph name="parenright.dnom" format="1">
  <advance width="600"/>
  <outline>
    <contour>
      <point x="204" y="-101" type="line"/>
      <point x="315" y="-14"/>
      <point x="373" y="98"/>
      <point x="373" y="229" type="curve" smooth="yes"/>
      <point x="373" y="304"/>
      <point x="346" y="373"/>
      <point x="305" y="427" type="curve"/>
      <point x="214" y="371" type="line"/>
      <point x="244" y="323"/>
      <point x="261" y="269"/>
      <point x="261" y="214" type="curve" smooth="yes"/>
      <point x="261" y="119"/>
      <point x="219" y="43"/>
      <point x="133" y="-34" type="curve"/>
    </contour>
  </outline>
</glyph>
<glyph name="parenright.subs" format="1">
  <advance width="600"/>
  <outline>
    <contour>
      <point x="206" y="-282" type="line"/>
      <point x="316" y="-148"/>
      <point x="362" y="-58"/>
      <point x="362" y="90" type="curve" smooth="yes"/>
      <point x="362" y="164"/>
      <point x="342" y="232"/>
      <point x="316" y="292" type="curve"/>
      <point x="228" y="258" type="line"/>
      <point x="244" y="208"/>
      <point x="252" y="142"/>
      <point x="252" y="88" type="curve" smooth="yes"/>
      <point x="252" y="-34"/>
      <point x="210" y="-134"/>
      <point x="128" y="-248" type="curve"/>
    </contour>
  </outline>
</glyph>
<glyph name="perispomenicmb.cap" format="1">
	<advance width="600"/>
	<outline>
		<component base="tildecmb.cap"/>
		<contour>
			<point name="_aboveUC" x="370" y="670" type="move"/>
		</contour>
	</outline>
</glyph>
<glyph name="peso" format="1">
  <advance width="600"/>
  <outline>
    <contour>
      <point x="25" y="0" type="line"/>
      <point x="174" y="0" type="line"/>
      <point x="216" y="210" type="line"/>
      <point x="255" y="210" type="line" smooth="yes"/>
      <point x="404" y="210"/>
      <point x="549" y="289"/>
      <point x="549" y="465" type="curve" smooth="yes"/>
      <point x="549" y="589"/>
      <point x="465" y="635"/>
      <point x="340" y="635" type="curve" smooth="yes"/>
      <point x="152" y="635" type="line"/>
    </contour>
    <contour>
      <point x="236" y="310" type="line"/>
      <point x="281" y="536" type="line"/>
      <point x="315" y="536" type="line" smooth="yes"/>
      <point x="372" y="536"/>
      <point x="401" y="509"/>
      <point x="401" y="451" type="curve" smooth="yes"/>
      <point x="401" y="365"/>
      <point x="357" y="310"/>
      <point x="267" y="310" type="curve" smooth="yes"/>
    </contour>
    <contour>
      <point x="47" y="444" type="line"/>
      <point x="603" y="444" type="line"/>
      <point x="616" y="505" type="line"/>
      <point x="137" y="505" type="line"/>
      <point x="59" y="499" type="line"/>
    </contour>
    <contour>
      <point x="26" y="341" type="line"/>
      <point x="582" y="341" type="line"/>
      <point x="595" y="401" type="line"/>
      <point x="116" y="401" type="line"/>
      <point x="38" y="395" type="line"/>
    </contour>
  </outline>
</glyph>
<glyph name="philatin" format="1">
  <advance width="600"/>
  <outline>
    <contour>
      <point x="213" y="-8" type="curve"/>
      <point x="217" y="110" type="line"/>
      <point x="180" y="111"/>
      <point x="157" y="147"/>
      <point x="157" y="216" type="curve" smooth="yes"/>
      <point x="157" y="305"/>
      <point x="202" y="384"/>
      <point x="253" y="388" type="curve"/>
      <point x="285" y="506" type="line"/>
      <point x="142" y="504"/>
      <point x="4" y="396"/>
      <point x="4" y="204" type="curve" smooth="yes"/>
      <point x="4" y="58"/>
      <point x="102" y="-6"/>
    </contour>
    <contour>
      <point x="297" y="-8" type="line"/>
      <point x="440" y="-6"/>
      <point x="578" y="102"/>
      <point x="578" y="294" type="curve" smooth="yes"/>
      <point x="578" y="440"/>
      <point x="480" y="504"/>
      <point x="369" y="506" type="curve"/>
      <point x="365" y="388" type="line"/>
      <point x="402" y="387"/>
      <point x="426" y="351"/>
      <point x="426" y="282" type="curve" smooth="yes"/>
      <point x="426" y="193"/>
      <point x="380" y="114"/>
      <point x="329" y="110" type="curve"/>
    </contour>
    <contour>
      <point x="124" y="-176" type="line"/>
      <point x="268" y="-176" type="line"/>
      <point x="464" y="696" type="line"/>
      <point x="320" y="696" type="line"/>
    </contour>
    <contour>
      <point x="400" y="730" type="move" name="aboveUC"/>
    </contour>
    <contour>
      <point x="190" y="-200" type="move" name="belowLC"/>
    </contour>
  </outline>
</glyph>
<glyph name="poopile" format="1">
  <advance width="600"/>
  <outline>
    <contour>
      <point x="300" y="14" type="curve" smooth="yes"/>
      <point x="522" y="14"/>
      <point x="618" y="41"/>
      <point x="618" y="160" type="curve" smooth="yes"/>
      <point x="618" y="224"/>
      <point x="588" y="262"/>
      <point x="523" y="278" type="curve"/>
      <point x="548" y="296"/>
      <point x="560" y="324"/>
      <point x="560" y="368" type="curve" smooth="yes"/>
      <point x="560" y="440"/>
      <point x="513" y="478"/>
      <point x="447" y="490" type="curve"/>
      <point x="461" y="504"/>
      <point x="469" y="518"/>
      <point x="469" y="544" type="curve" smooth="yes"/>
      <point x="469" y="598"/>
      <point x="419" y="636"/>
      <point x="320" y="662" type="curve"/>
      <point x="260" y="600"/>
      <point x="131" y="642"/>
      <point x="131" y="542" type="curve" smooth="yes"/>
      <point x="131" y="514"/>
      <point x="141" y="502"/>
      <point x="153" y="490" type="curve"/>
      <point x="87" y="478"/>
      <point x="40" y="440"/>
      <point x="40" y="368" type="curve" smooth="yes"/>
      <point x="40" y="324"/>
      <point x="52" y="296"/>
      <point x="77" y="278" type="curve"/>
      <point x="12" y="262"/>
      <point x="-18" y="224"/>
      <point x="-18" y="160" type="curve" smooth="yes"/>
      <point x="-18" y="41"/>
      <point x="78" y="14"/>
    </contour>
    <contour>
      <point x="212" y="280" type="curve" smooth="yes"/>
      <point x="171" y="280"/>
      <point x="144" y="316"/>
      <point x="144" y="364" type="curve" smooth="yes"/>
      <point x="144" y="412"/>
      <point x="171" y="448"/>
      <point x="212" y="448" type="curve" smooth="yes"/>
      <point x="252" y="448"/>
      <point x="278" y="412"/>
      <point x="278" y="364" type="curve" smooth="yes"/>
      <point x="278" y="316"/>
      <point x="252" y="280"/>
    </contour>
    <contour>
      <point x="212" y="312" type="curve" smooth="yes"/>
      <point x="192" y="312"/>
      <point x="179" y="326"/>
      <point x="179" y="358" type="curve" smooth="yes"/>
      <point x="179" y="390"/>
      <point x="192" y="404"/>
      <point x="212" y="404" type="curve" smooth="yes"/>
      <point x="232" y="404"/>
      <point x="245" y="390"/>
      <point x="245" y="358" type="curve" smooth="yes"/>
      <point x="245" y="326"/>
      <point x="232" y="312"/>
    </contour>
    <contour>
      <point x="388" y="280" type="curve" smooth="yes"/>
      <point x="348" y="280"/>
      <point x="322" y="316"/>
      <point x="322" y="364" type="curve" smooth="yes"/>
      <point x="322" y="412"/>
      <point x="348" y="448"/>
      <point x="388" y="448" type="curve" smooth="yes"/>
      <point x="429" y="448"/>
      <point x="456" y="412"/>
      <point x="456" y="364" type="curve" smooth="yes"/>
      <point x="456" y="316"/>
      <point x="429" y="280"/>
    </contour>
    <contour>
      <point x="388" y="312" type="curve" smooth="yes"/>
      <point x="368" y="312"/>
      <point x="355" y="326"/>
      <point x="355" y="358" type="curve" smooth="yes"/>
      <point x="355" y="390"/>
      <point x="368" y="404"/>
      <point x="388" y="404" type="curve" smooth="yes"/>
      <point x="408" y="404"/>
      <point x="421" y="390"/>
      <point x="421" y="358" type="curve" smooth="yes"/>
      <point x="421" y="326"/>
      <point x="408" y="312"/>
    </contour>
    <contour>
      <point x="300" y="96" type="curve" smooth="yes"/>
      <point x="220" y="96"/>
      <point x="162" y="135"/>
      <point x="152" y="222" type="curve"/>
      <point x="190" y="235" type="line"/>
      <point x="207" y="189"/>
      <point x="245" y="166"/>
      <point x="300" y="166" type="curve" smooth="yes"/>
      <point x="355" y="166"/>
      <point x="393" y="189"/>
      <point x="410" y="235" type="curve"/>
      <point x="448" y="222" type="line"/>
      <point x="438" y="135"/>
      <point x="380" y="96"/>
    </contour>
  </outline>
</glyph>
<glyph name="radical" format="1">
  <advance width="600"/>
  <outline>
    <contour>
      <point x="279" y="-77" type="line"/>
      <point x="389" y="-77" type="line"/>
      <point x="605" y="820" type="line"/>
      <point x="499" y="820" type="line"/>
      <point x="346" y="165" type="line" smooth="yes"/>
      <point x="340" y="136"/>
      <point x="334" y="107"/>
      <point x="330" y="78" type="curve"/>
      <point x="326" y="78" type="line"/>
      <point x="320" y="107"/>
      <point x="313" y="136"/>
      <point x="305" y="165" type="curve" smooth="yes"/>
      <point x="210" y="448" type="line"/>
      <point x="27" y="374" type="line"/>
      <point x="54" y="300" type="line"/>
      <point x="129" y="330" type="line"/>
    </contour>
  </outline>
</glyph>
<glyph name="ramshorn" format="1">
  <advance width="600"/>
  <outline>
    <contour>
      <point x="238" y="-12" type="curve" smooth="yes"/>
      <point x="379" y="-12"/>
      <point x="476" y="88"/>
      <point x="476" y="204" type="curve" smooth="yes"/>
      <point x="476" y="250"/>
      <point x="455.0" y="299.0"/>
      <point x="420.0" y="342.0" type="curve"/>
      <point x="448.002232054" y="370.002232054"/>
      <point x="469.0" y="384.0"/>
      <point x="493" y="384" type="curve" smooth="yes"/>
      <point x="510" y="384"/>
      <point x="526" y="378"/>
      <point x="535" y="370" type="curve"/>
      <point x="606.0" y="484.0" type="line"/>
      <point x="586.0" y="502.0"/>
      <point x="538" y="512"/>
      <point x="498.0" y="512.0" type="curve" smooth="yes"/>
      <point x="446" y="512"/>
      <point x="384" y="492"/>
      <point x="326" y="436" type="curve"/>
      <point x="292" y="492"/>
      <point x="239" y="512"/>
      <point x="186" y="512" type="curve" smooth="yes"/>
      <point x="146" y="512"/>
      <point x="95.0" y="502.0"/>
      <point x="68.0" y="484.0" type="curve"/>
      <point x="89" y="370" type="line"/>
      <point x="101" y="378"/>
      <point x="119" y="384"/>
      <point x="136" y="384" type="curve" smooth="yes"/>
      <point x="159.0" y="384.0"/>
      <point x="181" y="372"/>
      <point x="198" y="342" type="curve"/>
      <point x="115" y="274"/>
      <point x="72" y="202"/>
      <point x="72" y="134" type="curve" smooth="yes"/>
      <point x="72" y="37"/>
      <point x="136" y="-12"/>
    </contour>
    <contour>
      <point x="263" y="118" type="curve" smooth="yes"/>
      <point x="240" y="118"/>
      <point x="226" y="134"/>
      <point x="226" y="162" type="curve" smooth="yes"/>
      <point x="226" y="194"/>
      <point x="250" y="234"/>
      <point x="293.0" y="266.0" type="curve"/>
      <point x="312.0" y="244.0"/>
      <point x="322" y="218"/>
      <point x="322" y="194" type="curve" smooth="yes"/>
      <point x="322" y="150"/>
      <point x="298" y="118"/>
    </contour>
    <contour>
      <point x="334" y="520" type="move" name="aboveLC"/>
    </contour>
    <contour>
      <point x="236" y="-20" type="move" name="belowLC"/>
    </contour>
  </outline>
</glyph>
<glyph name="rhookturned" format="1">
  <advance width="600"/>
  <outline>
    <contour>
      <point x="360.0" y="-188.0" type="curve" smooth="yes"/>
      <point x="399.0" y="-188.0"/>
      <point x="421" y="-182"/>
      <point x="442" y="-174" type="curve"/>
      <point x="448" y="-54" type="line"/>
      <point x="438" y="-58"/>
      <point x="432" y="-60"/>
      <point x="422" y="-60" type="curve" smooth="yes"/>
      <point x="398" y="-60"/>
      <point x="378" y="-50"/>
      <point x="378" y="-24" type="curve" smooth="yes"/>
      <point x="378" y="-11"/>
      <point x="380.0" y="-0.0"/>
      <point x="382.0" y="10.0" type="curve"/>
      <point x="480.0" y="500.0" type="line"/>
      <point x="320.0" y="500.0" type="line"/>
      <point x="265.0" y="222.0" type="line"/>
      <point x="228.0" y="144.0"/>
      <point x="181.0" y="130.0"/>
      <point x="146.0" y="130.0" type="curve" smooth="yes"/>
      <point x="124.0" y="130.0"/>
      <point x="97.0" y="132.0"/>
      <point x="68.0" y="146.0" type="curve"/>
      <point x="12.0" y="8.0" type="line"/>
      <point x="44.0" y="-6.0"/>
      <point x="70.0" y="-12.0"/>
      <point x="98.0" y="-12.0" type="curve" smooth="yes"/>
      <point x="164.0" y="-12.0"/>
      <point x="204.0" y="18.0"/>
      <point x="253.0" y="86.0" type="curve"/>
      <point x="257.0" y="86.0" type="line"/>
      <point x="238.0" y="-10.0" type="line" smooth="yes"/>
      <point x="234.0" y="-29.0"/>
      <point x="232.0" y="-48.0"/>
      <point x="232.0" y="-66.0" type="curve" smooth="yes"/>
      <point x="232.0" y="-134.0"/>
      <point x="264.0" y="-188.0"/>
    </contour>
    <contour>
      <point x="336" y="520" type="move" name="aboveLC"/>
    </contour>
    <contour>
      <point x="118" y="-20" type="move" name="belowLC"/>
    </contour>
  </outline>
</glyph>
<glyph name="righthalfblock" format="1">
	<advance width="600"/>
	<outline>
		<contour>
			<point x="300" y="-200" type="line"/>
			<point x="600" y="-200" type="line"/>
			<point x="600" y="800" type="line"/>
			<point x="300" y="800" type="line"/>
		</contour>
	</outline>
</glyph>
<glyph name="righttackbelowcmb" format="1">
  <advance width="600"/>
  <outline>
    <contour>
      <point x="86" y="-260" type="line"/>
      <point x="171" y="-260" type="line"/>
      <point x="183" y="-196" type="line"/>
      <point x="287" y="-196" type="line"/>
      <point x="303" y="-116" type="line"/>
      <point x="199" y="-116" type="line"/>
      <point x="212" y="-52" type="line"/>
      <point x="128" y="-52" type="line"/>
    </contour>
    <contour>
      <point x="234" y="-20" type="move" name="_belowLC"/>
    </contour>
  </outline>
</glyph>
<glyph name="rlonglegturned" format="1">
	<advance width="600"/>
	<outline>
		<contour>
			<point x="109" y="-12" type="curve" smooth="yes"/>
			<point x="182" y="-12"/>
			<point x="258" y="39"/>
			<point x="310" y="129" type="curve"/>
			<point x="314" y="129" type="line"/>
			<point x="302" y="0" type="line"/>
			<point x="432" y="0" type="line"/>
			<point x="588" y="696" type="line"/>
			<point x="428" y="696" type="line"/>
			<point x="328" y="296" type="line"/>
			<point x="275" y="195"/>
			<point x="208" y="137"/>
			<point x="152" y="132" type="curve" smooth="yes"/>
			<point x="120" y="129"/>
			<point x="92" y="134"/>
			<point x="68" y="146" type="curve"/>
			<point x="12" y="8" type="line"/>
			<point x="30" y="-4"/>
			<point x="65" y="-12"/>
		</contour>
		<contour>
			<point name="aboveUC" x="508" y="730" type="move"/>
		</contour>
		<contour>
			<point name="belowLC" x="230" y="-20" type="move"/>
		</contour>
	</outline>
</glyph>
<glyph name="schwa" format="1">
  <advance width="600"/>
  <outline>
    <contour>
      <point x="258" y="-12" type="curve" smooth="yes"/>
      <point x="408" y="-12"/>
      <point x="540.0" y="108.0"/>
      <point x="540" y="288" type="curve" smooth="yes"/>
      <point x="540.0" y="444.0"/>
      <point x="448" y="512"/>
      <point x="324" y="512" type="curve" smooth="yes"/>
      <point x="238" y="512"/>
      <point x="162" y="490"/>
      <point x="102" y="448" type="curve"/>
      <point x="154" y="342" type="line"/>
      <point x="198.0" y="370.0"/>
      <point x="236.0" y="390.0"/>
      <point x="286" y="390" type="curve" smooth="yes"/>
      <point x="336" y="390"/>
      <point x="380.0" y="368.0"/>
      <point x="380" y="282" type="curve" smooth="yes"/>
      <point x="380.0" y="160.0"/>
      <point x="312" y="110"/>
      <point x="262" y="110" type="curve" smooth="yes"/>
      <point x="216" y="110"/>
      <point x="186.0" y="134.0"/>
      <point x="186" y="183" type="curve" smooth="yes"/>
      <point x="186" y="195"/>
      <point x="189" y="208"/>
      <point x="192" y="219" type="curve"/>
      <point x="150" y="196" type="line"/>
      <point x="404" y="196" type="line"/>
      <point x="421" y="296" type="line"/>
      <point x="58" y="296" type="line"/>
      <point x="52" y="278"/>
      <point x="40" y="230"/>
      <point x="40" y="186" type="curve" smooth="yes"/>
      <point x="40.0" y="68.0"/>
      <point x="120" y="-12"/>
    </contour>
    <contour>
      <point x="355" y="520" type="move" name="aboveLC"/>
    </contour>
    <contour>
      <point x="238" y="0" type="move" name="baseLC"/>
    </contour>
    <contour>
      <point x="234" y="-20" type="move" name="belowLC"/>
    </contour>
    <contour>
      <point x="238" y="0" type="move" name="ogonekLC"/>
    </contour>
  </outline>
</glyph>
<glyph name="servicemark" format="1">
  <advance width="600"/>
  <outline>
    <contour>
      <point x="146" y="353" type="curve" smooth="yes"/>
      <point x="222" y="353"/>
      <point x="275" y="393"/>
      <point x="275" y="455" type="curve"/>
      <point x="275" y="506"/>
      <point x="244" y="532"/>
      <point x="204" y="556" type="curve" smooth="yes"/>
      <point x="170" y="577"/>
      <point x="159" y="585"/>
      <point x="159" y="600" type="curve" smooth="yes"/>
      <point x="159" y="611"/>
      <point x="168" y="618"/>
      <point x="183" y="618" type="curve" smooth="yes"/>
      <point x="205" y="618"/>
      <point x="232" y="605"/>
      <point x="251" y="585" type="curve"/>
      <point x="301" y="637" type="line"/>
      <point x="281" y="664"/>
      <point x="244" y="690"/>
      <point x="188" y="690" type="curve" smooth="yes"/>
      <point x="117" y="690"/>
      <point x="70" y="651"/>
      <point x="70" y="595" type="curve" smooth="yes"/>
      <point x="70" y="548"/>
      <point x="93" y="519"/>
      <point x="137" y="492" type="curve" smooth="yes"/>
      <point x="176" y="467"/>
      <point x="187" y="460"/>
      <point x="187" y="446" type="curve" smooth="yes"/>
      <point x="187" y="434"/>
      <point x="174" y="427"/>
      <point x="153" y="427" type="curve" smooth="yes"/>
      <point x="124" y="427"/>
      <point x="97" y="445"/>
      <point x="78" y="470" type="curve"/>
      <point x="27" y="412" type="line"/>
      <point x="57" y="376"/>
      <point x="98" y="353"/>
    </contour>
    <contour>
      <point x="283" y="361" type="line"/>
      <point x="372" y="361" type="line"/>
      <point x="389" y="450" type="line" smooth="yes"/>
      <point x="395" y="482"/>
      <point x="401" y="542"/>
      <point x="403" y="568" type="curve"/>
      <point x="407" y="568" type="line"/>
      <point x="421" y="425" type="line"/>
      <point x="482" y="425" type="line"/>
      <point x="553" y="569" type="line"/>
      <point x="557" y="569" type="line"/>
      <point x="544" y="532"/>
      <point x="529" y="482"/>
      <point x="523" y="450" type="curve" smooth="yes"/>
      <point x="506" y="361" type="line"/>
      <point x="595" y="361" type="line"/>
      <point x="658" y="676" type="line"/>
      <point x="545" y="676" type="line"/>
      <point x="504" y="586" type="line"/>
      <point x="472" y="515" type="line"/>
      <point x="468" y="515" type="line"/>
      <point x="462" y="586" type="line"/>
      <point x="455" y="676" type="line"/>
      <point x="346" y="676" type="line"/>
    </contour>
  </outline>
</glyph>
<glyph name="shook" format="1">
  <advance width="600"/>
  <outline>
    <contour>
      <point x="156" y="-188" type="curve" smooth="yes"/>
      <point x="196" y="-188"/>
      <point x="219" y="-182"/>
      <point x="240" y="-174" type="curve"/>
      <point x="234" y="-52" type="line"/>
      <point x="222" y="-56"/>
      <point x="212" y="-58"/>
      <point x="198" y="-58" type="curve" smooth="yes"/>
      <point x="174" y="-58"/>
      <point x="160" y="-48"/>
      <point x="160" y="-22" type="curve" smooth="yes"/>
      <point x="160" y="-10"/>
      <point x="162" y="14"/>
      <point x="174" y="58" type="curve"/>
      <point x="32" y="80" type="line"/>
      <point x="20" y="26"/>
      <point x="12" y="-13"/>
      <point x="12" y="-50" type="curve" smooth="yes"/>
      <point x="12" y="-121"/>
      <point x="47" y="-188"/>
    </contour>
    <component base="s"/>
    <contour>
      <point x="350" y="520" type="move" name="aboveLC"/>
    </contour>
    <contour>
      <point x="266" y="-20" type="move" name="belowLC"/>
    </contour>
  </outline>
</glyph>
<glyph name="slash" format="1">
  <advance width="600"/>
  <outline>
    <contour>
      <point x="-18" y="-160" type="line"/>
      <point x="121" y="-160" type="line"/>
      <point x="625" y="710" type="line"/>
      <point x="485" y="710" type="line"/>
    </contour>
  </outline>
</glyph>
<glyph name="smileface" format="1">
  <advance width="600"/>
  <outline>
    <contour>
      <point x="300" y="26" type="curve" smooth="yes"/>
      <point x="482" y="26"/>
      <point x="608" y="151"/>
      <point x="608" y="330" type="curve" smooth="yes"/>
      <point x="608" y="509"/>
      <point x="482" y="634"/>
      <point x="300" y="634" type="curve" smooth="yes"/>
      <point x="118" y="634"/>
      <point x="-8" y="509"/>
      <point x="-8" y="330" type="curve" smooth="yes"/>
      <point x="-8" y="151"/>
      <point x="118" y="26"/>
    </contour>
    <contour>
      <point x="300" y="98" type="curve" smooth="yes"/>
      <point x="165" y="98"/>
      <point x="74" y="191"/>
      <point x="74" y="330" type="curve" smooth="yes"/>
      <point x="74" y="469"/>
      <point x="165" y="562"/>
      <point x="300" y="562" type="curve" smooth="yes"/>
      <point x="435" y="562"/>
      <point x="526" y="469"/>
      <point x="526" y="330" type="curve" smooth="yes"/>
      <point x="526" y="191"/>
      <point x="435" y="98"/>
    </contour>
    <contour>
      <point x="212" y="334" type="curve" smooth="yes"/>
      <point x="252" y="334"/>
      <point x="279" y="365"/>
      <point x="279" y="404" type="curve" smooth="yes"/>
      <point x="279" y="444"/>
      <point x="252" y="475"/>
      <point x="212" y="475" type="curve" smooth="yes"/>
      <point x="173" y="475"/>
      <point x="146" y="444"/>
      <point x="146" y="404" type="curve" smooth="yes"/>
      <point x="146" y="365"/>
      <point x="173" y="334"/>
    </contour>
    <contour>
      <point x="388" y="334" type="curve" smooth="yes"/>
      <point x="427" y="334"/>
      <point x="454" y="365"/>
      <point x="454" y="404" type="curve" smooth="yes"/>
      <point x="454" y="444"/>
      <point x="427" y="475"/>
      <point x="388" y="475" type="curve" smooth="yes"/>
      <point x="348" y="475"/>
      <point x="321" y="444"/>
      <point x="321" y="404" type="curve" smooth="yes"/>
      <point x="321" y="365"/>
      <point x="348" y="334"/>
    </contour>
    <contour>
      <point x="300" y="153" type="curve" smooth="yes"/>
      <point x="388" y="153"/>
      <point x="438" y="199"/>
      <point x="455" y="274" type="curve"/>
      <point x="405" y="295" type="line"/>
      <point x="387" y="255"/>
      <point x="352" y="232"/>
      <point x="300" y="232" type="curve" smooth="yes"/>
      <point x="248" y="232"/>
      <point x="213" y="255"/>
      <point x="195" y="295" type="curve"/>
      <point x="145" y="274" type="line"/>
      <point x="162" y="199"/>
      <point x="212" y="153"/>
    </contour>
  </outline>
</glyph>
<glyph name="squareshadow" format="1">
  <advance width="600"/>
  <outline>
    <contour>
      <point x="66" y="96" type="line"/>
      <point x="486" y="96" type="line"/>
      <point x="534" y="150" type="line"/>
      <point x="534" y="564" type="line"/>
      <point x="120" y="564" type="line"/>
      <point x="66" y="516" type="line"/>
    </contour>
    <contour>
      <point x="110" y="140" type="line"/>
      <point x="110" y="502" type="line"/>
      <point x="472" y="502" type="line"/>
      <point x="472" y="140" type="line"/>
    </contour>
  </outline>
</glyph>
<glyph name="sterling" format="1">
	<advance width="600"/>
	<outline>
		<contour>
			<point x="12" y="0" type="line"/>
			<point x="458" y="0" type="line"/>
			<point x="482" y="134" type="line"/>
			<point x="246" y="134" type="line"/>
			<point x="248" y="138" type="line"/>
			<point x="298" y="188"/>
			<point x="318" y="232"/>
			<point x="318" y="306" type="curve" smooth="yes"/>
			<point x="318" y="332"/>
			<point x="312" y="368"/>
			<point x="312" y="394" type="curve" smooth="yes"/>
			<point x="312" y="490"/>
			<point x="348" y="518"/>
			<point x="396" y="518" type="curve" smooth="yes"/>
			<point x="426" y="518"/>
			<point x="454" y="502"/>
			<point x="476" y="474" type="curve"/>
			<point x="578" y="558" type="line"/>
			<point x="538" y="612"/>
			<point x="468" y="646"/>
			<point x="396" y="646" type="curve" smooth="yes"/>
			<point x="260" y="646"/>
			<point x="164" y="560"/>
			<point x="164" y="418" type="curve" smooth="yes"/>
			<point x="164" y="380"/>
			<point x="174" y="326"/>
			<point x="174" y="288" type="curve" smooth="yes"/>
			<point x="174" y="200"/>
			<point x="114" y="132"/>
			<point x="32" y="98" type="curve"/>
		</contour>
		<contour>
			<point x="64" y="270" type="line"/>
			<point x="453" y="270" type="line"/>
			<point x="472" y="364" type="line"/>
			<point x="167" y="364" type="line"/>
			<point x="82" y="358" type="line"/>
		</contour>
	</outline>
</glyph>
<glyph name="tbar" format="1">
	<advance width="600"/>
	<outline>
		<contour>
			<point x="28" y="218" type="line"/>
			<point x="504" y="218" type="line"/>
			<point x="520" y="294" type="line"/>
			<point x="164" y="294" type="line"/>
			<point x="42" y="288" type="line"/>
		</contour>
		<component base="t"/>
		<contour>
			<point name="aboveLC" x="326" y="644" type="move"/>
		</contour>
		<contour>
			<point name="belowLC" x="304" y="-20" type="move"/>
		</contour>
	</outline>
</glyph>
<glyph name="tenge" format="1">
	<advance width="600"/>
	<outline>
		<contour>
			<point x="156" y="0" type="line"/>
			<point x="318" y="0" type="line"/>
			<point x="402" y="422" type="line"/>
			<point x="574" y="422" type="line"/>
			<point x="591" y="506" type="line"/>
			<point x="181" y="506" type="line"/>
			<point x="84" y="500" type="line"/>
			<point x="68" y="422" type="line"/>
			<point x="240" y="422" type="line"/>
		</contour>
		<contour>
			<point x="94" y="550" type="line"/>
			<point x="600" y="550" type="line"/>
			<point x="616" y="634" type="line"/>
			<point x="110" y="634" type="line"/>
		</contour>
	</outline>
</glyph>
<glyph name="tesh" format="1">
  <advance width="600"/>
  <outline>
    <contour>
      <point x="182" y="-12" type="curve" smooth="yes"/>
      <point x="232" y="-12"/>
      <point x="272" y="-4"/>
      <point x="298" y="6" type="curve"/>
      <point x="270" y="118" type="line"/>
      <point x="262" y="114"/>
      <point x="252" y="112"/>
      <point x="244" y="112" type="curve" smooth="yes"/>
      <point x="218" y="112"/>
      <point x="206" y="126"/>
      <point x="206" y="156" type="curve" smooth="yes"/>
      <point x="206" y="166"/>
      <point x="206" y="176"/>
      <point x="208" y="188" type="curve" smooth="yes"/>
      <point x="246" y="376" type="line"/>
      <point x="458" y="376" type="line"/>
      <point x="482" y="500" type="line"/>
      <point x="272" y="500" type="line"/>
      <point x="298" y="628" type="line"/>
      <point x="164" y="628" type="line"/>
      <point x="120" y="500" type="line"/>
      <point x="48" y="494" type="line"/>
      <point x="24" y="376" type="line"/>
      <point x="88" y="376" type="line"/>
      <point x="50" y="194" type="line" smooth="yes"/>
      <point x="46" y="172"/>
      <point x="42" y="150"/>
      <point x="42" y="128" type="curve" smooth="yes"/>
      <point x="42" y="46"/>
      <point x="84" y="-12"/>
    </contour>
    <contour>
      <point x="281" y="-188" type="curve" smooth="yes"/>
      <point x="419" y="-188"/>
      <point x="474" y="-86"/>
      <point x="496" y="26" type="curve" smooth="yes"/>
      <point x="591" y="500" type="line" smooth="yes"/>
      <point x="604" y="564"/>
      <point x="620" y="582"/>
      <point x="652" y="582" type="curve" smooth="yes"/>
      <point x="662" y="582"/>
      <point x="670" y="580"/>
      <point x="678" y="576" type="curve"/>
      <point x="730" y="694" type="line"/>
      <point x="712" y="702"/>
      <point x="692" y="708"/>
      <point x="653" y="708" type="curve" smooth="yes"/>
      <point x="508" y="708"/>
      <point x="450" y="604"/>
      <point x="430" y="504" type="curve" smooth="yes"/>
      <point x="334" y="20" type="line"/>
      <point x="322" y="-40"/>
      <point x="308" y="-62"/>
      <point x="282" y="-62" type="curve" smooth="yes"/>
      <point x="270" y="-62"/>
      <point x="260" y="-60"/>
      <point x="248" y="-56" type="curve"/>
      <point x="202" y="-174" type="line"/>
      <point x="220" y="-182"/>
      <point x="244" y="-188"/>
    </contour>
  </outline>
</glyph>
